<svg xmlns="http://www.w3.org/2000/svg" xmlns:xlink="http://www.w3.org/1999/xlink" width="500" height="580" viewBox="0 0 500 580">
  <defs>
    <clipPath id="clip-path">
      <rect id="Rectángulo_16" data-name="Rectángulo 16" width="500" height="585" rx="30" fill="#fff"/>
    </clipPath>
    <filter id="Trazado_45" x="111.505" y="426.868" width="258.367" height="78.553" filterUnits="userSpaceOnUse">
      <feOffset dy="3" input="SourceAlpha"/>
      <feGaussianBlur stdDeviation="3" result="blur"/>
      <feFlood flood-opacity="0.161"/>
      <feComposite operator="in" in2="blur"/>
      <feComposite in="SourceGraphic"/>
    </filter>
    <clipPath id="clip-Banner_mobile_Summer_shopping">
      <rect width="500" height="580"/>
    </clipPath>
  </defs>
  <g id="Banner_mobile_Summer_shopping" data-name="Banner mobile Summer shopping" clip-path="url(#clip-Banner_mobile_Summer_shopping)">
    <rect width="500" height="580" fill="#fff"/>
    <g id="Enmascarar_grupo_4" data-name="Enmascarar grupo 4" clip-path="url(#clip-path)">
      <rect id="Rectángulo_11" data-name="Rectángulo 11" width="500" height="580" fill="#fffaef"/>
      <path id="Trazado_412" data-name="Trazado 412" d="M2061.264-103.9c-23.512,44.453-35.5,109.389-12.656,154.646,5.2,10.308,14.9,19.32,20.941,25.58-.625-11.608.248-23.046-5.278-33.485-5.242-9.9-13.079-18.272-19.337-27.509-7.129-10.525-7.541-23.948-6.031-36.175,1.339,12.417,10.218,18.655,33.022,38.133,7.848,6.7,10.513-6.6-5.751-16.19-8.809-5.191-21.9-8.893-25.632-25.661-1.1-4.921,1.432-16.773,3.012-24.259,1.7,13.19,10.525,25.048,21.54,32.779,12.262,8.606,26.974,12.9,41.511,16.52-11.782-9.14-14.493-16.887-21.939-23.588-10.931-9.836-28.286-12.311-36.333-25.154-3.729-5.952-2.182-12.055-.377-18.309a168.953,168.953,0,0,1,11.113-29.122c-14.488,39.286,9.866,51.9,26.242,45.632,12.711-4.863,21.249-19.876,35.436-20.306-25.366-6.621-38.167,4.15-47.208,3.485-5.89-.433-10.983-4.954-13.175-10.438-5.362-13.412,5.278-31.528,13.932-42.99-6.5,23.724,28.394,35.146,50.858,35.652,6.578.148,15,.335,21.52.08-4.627-.8-7.584-5.171-10.748-8.641a36.91,36.91,0,0,0-27.635-11.87c-6.836.138-27.782,5.673-32.26-7.97-2.848-8.68,6.716-21.009,14.69-33-3.752,11.77,7.224,17.419,18.579,13.345,4.271-1.532,8.252-3.788,12.522-5.32a22.927,22.927,0,0,0-19.789-1.294c-2.077.853-4.218,2.044-6.427,1.632-13.554-2.53,21.67-45.278,24.954-67.762,1.291-8.836-3.886-8-4.531-3.834C2110.258-171.9,2080.208-139.73,2061.264-103.9Z" transform="matrix(0.883, 0.469, -0.469, 0.883, -1833.573, -893.513)" fill="#81c0af" style="mix-blend-mode: multiply;isolation: isolate"/>
      <path id="Trazado_413" data-name="Trazado 413" d="M1936.967,885.828c-23.774-28.421-44.375-31.15-66.119-35.035-53.4-9.62-80.261,8.426-115.944,28.983-28.4,16.381-56.464,27.172-71.36,70.5-4.3,12.45-6.161,30.029-5.843,41.19.971,30.52,9.165,75.486,36.144,91.52,1.719,7.07,4.93,16.9,9.191,23.016,5.258,7.641,37.283,35.618,51.17,42.218a161.581,161.581,0,0,0,38.449,12.7c14.315,2.67,20.487.152,29.545-2.867,11.681-3.822,9.65-4.378,20.641-10.17,14.566-6.518,33.687-10.4,49.806-19.324,39.474-21.84,43.236-50.036,57.347-75.79,7.005-12.679,16.169-24.824,14.052-55.8C1981.481,958.519,1968.993,923.836,1936.967,885.828ZM1707.956,943.87c16.928-39.413,62.7-64.657,87.481-68.815-6.557,3.679-20.35,13.181-34.582,25.459-28.146,14.149-40.425,42.14-44.567,73.527-6.162,12.935-12.468,22.68-15.585,56.483C1694.2,1004.874,1694.686,974.95,1707.956,943.87Zm124.186-78.059c28.228-4.937,49.6,9,69.951,27.024,32.184,28.177,59.318,61.917,56.7,102.813a85.651,85.651,0,0,0-9.568-26.64c-11.552-38.528-27.356-55.6-48.929-72.1-20.848-15.811-54.513-32.751-79.918-25.953-1.91-.242-3.831-.411-5.767-.488a142.729,142.729,0,0,1,17.522-4.651C1832.015,865.828,1832.191,865.8,1832.142,865.811Zm62.7,256.641c-7.759,3.47-21.105,7.573-36.928,8.89,18.457-4.4,43.792-14.938,57.1-27.04,5.082-4.624,6.419-6.544,15.9-18.11-13.324,21.781-25.825,31.529-36.08,36.264Zm-44.867,11.09a166.107,166.107,0,0,0,20.362-1.845C1860.757,1134.554,1858.478,1134.6,1849.972,1133.543ZM1732.666,1092.6c12.787,6.251,12.91,6.073,29.313,12.256,24.9,18.917,32.547,20.858,45.17,25.026a87.676,87.676,0,0,0,21.134,3.8C1800.484,1139.122,1754.5,1110.958,1732.666,1092.6Zm.293-19.694a128.434,128.434,0,0,0,7.143,12.189c-9.332-5.262-15.62-8.208-20.866-11.361-3.448-5.913-3.627-14.825-3.449-21.652C1720.451,1060.521,1725.148,1066.858,1732.96,1072.908Zm-18.076-87.356c-.265,3.7-.173,33.2,1.891,46.6a62.692,62.692,0,0,0-2.7,9.218C1705.194,1019.381,1706.733,1003.536,1714.884,985.552Zm1.765-3.754c1.4-2.862.919-1.807,3.134-6.385-1.573,12.513-3.284,21.881-3.469,23.266C1715.62,988.693,1716.237,985.276,1716.65,981.8Zm56.189-59.474c101.566-79.676,208.067,91.888,131.561,157.131-22.686,18.5-145.256,2.919-156.428-60.365C1744.871,997.253,1749.371,943.756,1772.839,922.323Zm-14.661-2.664a59.145,59.145,0,0,1,23.853-17C1770.99,909.59,1764.754,914.863,1758.177,919.66Zm51.364-22.637c-8.577,1.707-22.3,8.607-24.7,9.866a71.256,71.256,0,0,0-14.648,6.064C1792.563,896.841,1798.746,897,1809.541,897.023Zm10.5-7.706c27.135-3.172,40.8,1.62,56.314,15.8C1872.288,903.14,1858.751,892.781,1820.041,889.317ZM1920.766,1072c-14.044,13.721-31.956,22.313-39.733,23.433,38.555-14.71,52.793-42.747,54.658-83.259,1.3,7.433,3.08,18.851,2.825,26.365C1935.339,1046.612,1926.007,1065.068,1920.766,1072Zm15.941-23.031a22.459,22.459,0,0,1-7.207,13.279C1932.207,1057.387,1934.319,1053.6,1936.708,1048.968Zm-83.465,56.012c33.4-.558,58.98-9.97,78.078-37.465C1920.252,1093.887,1879.118,1108.757,1853.243,1104.98Zm-29.425-7.278c31.588,3.609,41.483,1.218,51.279.385a81.1,81.1,0,0,1-21.484,3.251C1830.789,1101.449,1833.891,1101.091,1823.818,1097.7Zm-19.191-.77c1.507-.112,3.024-.15,4.537-.187,19.331,6.646,24.1,5.682,27.642,6.649A89.762,89.762,0,0,1,1804.627,1096.932Zm-65.337-22.1c-6.93-9.432-12.17-21.735-13.7-27.579,4.323,8.628,26.586,39.755,62.386,43.7,2.837,1.411,5.062,2.533,10.779,5.039C1775.479,1097.794,1758.49,1088.052,1739.29,1074.83Zm10.694,15.7c-2.355-1.215-4.673-2.5-6.981-3.8a70.521,70.521,0,0,1-5.847-8.913A77.522,77.522,0,0,0,1749.983,1090.53Zm-20.194-78.6c1.377,17.741,17.156,44.054,25.753,54.563C1743.995,1056.308,1727.257,1026.952,1729.789,1011.93Zm132.513,91.06a112.648,112.648,0,0,0,27.137-7.336c8.891-2.411,18.909-6.518,37.406-25.485-4.979,6.584-7.136,10.186-22.029,20.012C1889.36,1100.355,1867.654,1103.246,1862.3,1102.99Zm-90.75-29.825c-10.853-7.8-18.48-17.077-24.168-34.113,33.8,46.125,128.085,52.884,144.725,48.436C1853.259,1109.171,1795.939,1090.159,1771.552,1073.166Zm-.912,5.579c6.1,3.307,10.152,5.133,20.728,10.34-3.517-.609-2.436-.4-5.663-.879A106.823,106.823,0,0,1,1770.64,1078.745Zm-24.549-31.975c-11.844-16.459-12.821-26.589-13.137-39.614C1740.453,1028.135,1741.812,1036.878,1746.09,1046.771Zm35.263,40.676c-24.493-1.961-54.4-30.749-52.509-63.031C1739.856,1052.792,1751.275,1070.212,1781.353,1087.446Zm11.184,4.084c8.164,1.233,5.94,1.195,13.1,3.942-1.249.058-2.536.169-3.826.274C1798.813,1094.434,1798.1,1094.148,1792.537,1091.53Zm152.14-57.739c1.316-8.7,2.5-12.845,3.179-19.061.672,9.613-.849,15.031-2.735,24.1Q1944.9,1036.311,1944.677,1033.791Zm-2.2-25.139c-2.709-16.3-11.635-43.108-23.449-60.985C1931.049,960.732,1941.528,975.035,1942.473,1008.652Zm-44.251-86.216c9.937,4.347,19.361,15.084,23.3,23.647C1917.349,941.494,1900.881,924.874,1898.222,922.436Zm20.758,28.845c11.906,18.74,20.66,48.086,21.85,63.8C1938.356,996.547,1920.089,953.781,1918.98,951.282ZM1717.6,1036.768c2.43,12.005,6.059,20.059,11.929,29.936-6.76-7.015-10.216-13.871-13.381-20.553A56.123,56.123,0,0,1,1717.6,1036.768Zm49.032,69.841c27.1,10.224,36.319,18.63,61.382,25.548C1801.623,1130.992,1782.842,1118.511,1766.628,1106.609Zm44.744,16.338c-6.724-3-12.74-6.836-19.292-10.829,35.934,8.387,77.576,3.4,106.755-4.654-4.9,2.656-19.455,9.162-23.215,10.778-6.694,2.892-15.006,6.27-39.134,13.4C1828.888,1130.163,1818.357,1126.066,1811.372,1122.947Zm49.469,4.24c11.92-3.588,38.309-14.635,49.95-22.667-7.446,6.426-27.338,17.6-47.4,23.534-2.684.809-13.531,3.906-19.176,4.046C1854.27,1129.115,1855.891,1128.669,1860.842,1127.187Zm74.8-43.061a51.41,51.41,0,0,1-26.11,31.872C1920.2,1107.287,1928.55,1095.976,1935.64,1084.125Zm-25.8,16.715c-20.711,9.217-120.721,35.134-166.174-20.614,17.779,10.792,33.463,18.907,57.833,16.953,16.806,7.2,55.94,9.635,59.163,9.647,14.409.094,36.225-5.107,53.615-17.454a55.092,55.092,0,0,0,21.106-28.034,55.684,55.684,0,0,0,7.394-16.58C1943.118,1065.345,1925.388,1089.966,1909.836,1100.84Zm37.2-110.135c-1.5-12.481-3.01-19.983-8.147-30.062,10.275,14.883,22.359,51.057,12.569,82.482-1.377,2.894-4.58,9.523-6.743,13.413C1953.747,1025.3,1951.522,1010.464,1947.038,990.705Zm-47.494-91.224c19.81,15.584,30.619,28.5,41.019,55.794a98.094,98.094,0,0,0-12.444-13.476c-12.149-20.664-57.187-61.488-102.371-69.993C1848.234,867.628,1880.874,884.854,1899.544,899.481Zm-80.471-26.042c47.877,4.432,90.571,44.217,99.616,60.008-15.273-14.953-50.352-53.216-93.978-49.116-4.386-.4-17.2-2.1-37.349,4.235A101.89,101.89,0,0,1,1819.074,873.439Zm-38.906,17.709c-2.616,1.058-5.239,2.169-7.778,3.43,9.975-7.531,23.032-16.515,34.508-21.178a55.615,55.615,0,0,1,6.468-.285A112.569,112.569,0,0,0,1780.168,891.148Zm-75.312,123.838a84.856,84.856,0,0,0,8.3,32c-.488,3.555-1.2,9.082-1.474,12.661a168.313,168.313,0,0,1-9.094-22.491C1702.776,1033.689,1703.754,1021.328,1704.856,1014.986Zm6.661,47.293c-.086,1.888-.106,3.777-.037,5.668-3.644-3.351-3.672-3.854-4.619-5.9a46.381,46.381,0,0,1-4.41-20.921A168.836,168.836,0,0,0,1711.517,1062.279Zm12.782,26.212c1.147.567,4.725,3.9,5.995,4.929a171.516,171.516,0,0,0,12.683,15.729C1732.7,1102.29,1729.6,1099.205,1724.3,1088.491Zm10.054,8.23c6.525,5.312,46.546,33.838,77.392,38.577C1794.184,1136.225,1766.122,1138.383,1734.352,1096.721Zm222.213-160.294a182.4,182.4,0,0,1,7.94,24.477c9.844,46.124,10.108,61.513.719,83.523-10.3,23.916-15.76,58.514-48.959,78.292-22.487,13.433-41.142,15.224-56.917,23.663-7.844,4.148-7.527,5.466-18.185,8.2-10.485,2.757-13.565,3.38-25.5.3-8.9-2.285-23.3-10.294-31.208-14.784-7.108-4.073-7.323-4.434-14.863-10.461,19.167,9.554,49.771,8.858,72.266,5.173,15.919,1.673,18.171,3.14,43.32-6.625,13.939-4.24,32.995-12.616,42.476-24.42,8.271-10.248,10.183-19.032,12.2-26.868,12.587-21.654,10.552-19.136,15.6-34.651l.01-.032c3.679-7.618,5.361-11.058,8.275-52.524,2.739-38.057-30.156-72.757-57.808-99.035-8.142-7.722-30.726-26.07-48.878-28.551-13.429-1.825-29.387-2.7-54.22,9.127-13.406,1.8-39.045,2.9-77.286,41.756-11.88,12-14.537,19.333-18.558,29.225-2.325,5.788-20.845,40.444-6.634,92.224-.623,7.8-.59,13.076,1.164,19.673-9.225-17.969-16.26-43.364-17.38-57.584-5.506-68.877,29.522-87.978,67.764-111.436,39.777-24.437,66.119-42.8,120.211-30.625,16.2,3.544,32.036,7.407,47.472,23.725C1932.982,892.418,1948.127,918.856,1956.565,936.427Zm-124.423-70.616h-.01C1832.285,865.792,1832.316,865.784,1832.142,865.811Z" transform="translate(-1290.638 -374.051)" fill="#fedfd2" style="mix-blend-mode: multiply;isolation: isolate"/>
      <g id="Grupo_6340" data-name="Grupo 6340" transform="matrix(0.588, 0.809, -0.809, 0.588, 461.113, -51.538)">
        <path id="Trazado_390" data-name="Trazado 390" d="M81.314,4.635q2.668.417,5.327.865c3.851.653,6.864,4.966,9.056,7,6.993,6.485,16.351,11.577,25.066,16.941,11.338,6.979,21.154,15.328,32.157,22.585C159.2,56.169,175.346,63.631,176.37,69.9c-16.106-7.738-33.8-13.668-48.955-22.406C115.881,40.847,108.2,32.307,98.9,24.5A103.6,103.6,0,0,1,86.564,12.566c4.126,6.9,6.027,14.844,13.071,20.934,10.142,8.769,23.36,17.23,29.336,27.928,6.2,11.093,5.554,24.016,9.595,35.471-9.852-5.251-16.083-17.524-19.308-25.527a90.82,90.82,0,0,0-15.982-26.009C94.566,35.2,86.483,24.473,82.514,13.167c1.65,10.219,5.493,19.656,9.044,30.149,4.005,11.835,5.907,23.785,4.331,35.907-1,7.7-2.022,21.154-7.892,27.693-2.185-3.431-1.915-6.934-2.657-10.559-.957-4.681-3.887-9.015-4.676-13.8C78.987,72.384,75.7,62.425,73.52,52.236c-1.819-8.515-.259-17.086,2.074-25.48.758-2.731,1.6-5.45,2.336-8.184.666-2.485.926-5.068,2.205-7.456-.23.431-1.309.92-1.833,1.163-4.165,2.564-4.925,9.643-8.08,13.667-3.54,4.514-8.944,8.584-14.117,12.135C47.433,44.035,33.762,52.72,19.869,56.7c1.805-4.9,2.5-7.609,6.429-13.585,3.675-5.592,7.941-9.787,13.4-14.656,6.891-6.15,17.53-7.709,25.422-12.454,4.415-2.655,8.588-5.331,12.817-7.859-13.858,2.36-28.779,3.331-42.762,4.812C23.231,14.22,11.556,11.644,0,12.9,5.79,9.711,14.173,8.388,20.419,5.133,28.563.89,35.454-.659,46.327.251c9.623.805,19.179,2.014,28.648,3.422Q78.147,4.145,81.314,4.635Z" transform="translate(0 -6.928)" fill="#556eda" style="mix-blend-mode: multiply;isolation: isolate"/>
        <path id="Trazado_391" data-name="Trazado 391" d="M61.522,73.371A.879.879,0,0,0,61,72.7c-1.229-.483-2.1,2.3-.356,2.233C61.311,74.907,61.664,74.032,61.522,73.371ZM55.167,51.876c-1.409-.072-1.2,1.913-.24,2C55.741,53.956,56.573,51.948,55.167,51.876Zm49.671,57.412c.9.165,1.344-.833,1.273-1.569-.052-.537-.38-.936-1.01-.643C104.351,107.426,103.626,109.067,104.838,109.289ZM31,45.4c-1.836-1.508-2.545,1.64-.945,1.687C30.622,47.1,31.242,46.14,31,45.4ZM93.29,83.482c.664-.025,1.016-.9.875-1.561a.877.877,0,0,0-.519-.672C92.417,80.766,91.548,83.546,93.29,83.482Zm35.113-8.5a1.011,1.011,0,0,0-.079-.087.635.635,0,0,0-.9-.027c-.539.433-.81,1.665.188,1.651A1.069,1.069,0,0,0,128.4,74.978ZM11.229,58.505c-.544-1.117-1.842-.43-2.007.614C9.408,60.446,11.261,59.987,11.229,58.505Zm45.55-24.346a.84.84,0,0,0,.935,1.163c.649-.111,1.215-1.274.694-1.776S56.961,33.579,56.779,34.159ZM7.569,67.549a.729.729,0,0,0-.817-.511.935.935,0,0,0-.629.549c-.265.555-.116,1.3.595,1.351C7.328,68.979,7.732,68.126,7.569,67.549ZM66.8,126.833a.788.788,0,0,0-.572-.608c-1.255-.344-2.059,2.205-.3,2.084C66.569,128.264,66.947,127.44,66.8,126.833ZM88.876,65.471a1.1,1.1,0,0,0-1.841.221C86.656,67.108,89.458,67.456,88.876,65.471Zm33.063,3.049c-.966.537-.19,1.824.574,1.416C123.045,69.652,122.889,67.992,121.939,68.52Zm-15.705-9c-.447-.664-1.4.183-1.643.585-.357.59-.292,1.311.528,1.33.58.014,1.266-.933,1.219-1.591A.661.661,0,0,0,106.234,59.518ZM91.119,42.152c-.362.483-.422,1.343.3,1.512.634.149,1.327-.826,1.133-1.42a.611.611,0,0,0-.04-.093A.84.84,0,0,0,91.119,42.152ZM61.595,9.664c.524.047.8-.5.943-1.26C61.606,6.846,60.038,9.524,61.595,9.664ZM41.6,1.893c-.9.128-1.335,1.712-.322,1.986C42.679,4.257,43.275,1.656,41.6,1.893Zm4.653,21.659c-.2-.584-1.017-.392-1.342-.042a.9.9,0,0,0-.256.7.726.726,0,0,0,1.013.545A1.049,1.049,0,0,0,46.257,23.552Zm57.321,63.713a.632.632,0,0,0-.153-.239c-.489-.479-1.3-.015-1.581.477-.361.642-.172,1.42.663,1.428A1.405,1.405,0,0,0,103.578,87.265ZM1.745,6.861a.731.731,0,0,0-.506-.212A1.218,1.218,0,0,0,.066,7.34,1.449,1.449,0,0,0,0,7.648c-.082,1.134,1.419.571,1.8.025A.615.615,0,0,0,1.745,6.861ZM35.195,28.89a.87.87,0,0,0-.7.6c-.231.553-.218,1.629.553,1.738.55.078.873-.428.948-.99C36.085,29.585,35.829,28.851,35.195,28.89ZM11.959.477C11.668-.342,10.625.026,10.25.6c-.343.522-.47,1.436.322,1.6.727.152,1.592-1,1.409-1.653C11.974.522,11.967.5,11.959.477Z" transform="translate(23.39 -17.627)" fill="#fffcf2"/>
      </g>
      <path id="Trazado_414" data-name="Trazado 414" d="M2921.367,445.067q-.441.088-.877.184c-25.521,5.575-48.891,22.363-59.911,46.391-7.557,16.478-8.684,39.22,2.762,54.277,12.605,16.582,39.858,14.159,47.3-6.445,1.887-5.034,2.248-10.549,4.242-15.542a25.547,25.547,0,0,1,12.594-13.441c7.784-3.711,16.932-3.237,25.068-6.1a32.576,32.576,0,0,0,20.723-23.848C2979.393,450.027,2944.882,440.351,2921.367,445.067Z" transform="translate(-2928.842 84.15)" fill="#ff552f" style="mix-blend-mode: multiply;isolation: isolate"/>
      <path id="Trazado_415" data-name="Trazado 415" d="M2222.7,824.068c9.317-4.348,17.25-9.862,31.519-11.033-13.817-2.666-23.682-4.4-37.435-3.586-14.711.874-26.969-.551-38.126-6.58-16.359-8.841-22.526-16.476-34.909-24.89,13.631,3.686,26.213,2.516,45.672,7.895,19.62,5.424,32.2,18.4,57.664,23.531-6.941-3.5-12.547-8.09-17.449-11.346-7.464-4.958-23.417-13.356-34.6-26.273-2.587-2.988-5.365-5.837-7.811-8.988-9.377-12.084-10.717-16.16-16.136-22.306,20.794,12.238,34.813,11.06,49.243,28.956,10.389,12.884,9.934,26.031,26.033,36.973,6.571,4.465,13.734,6.009,21.251,8.225-10.842-6-13.175-18.642-14.9-30.932-3.239-23.114-4.628-27.042-1.33-29.265,2.265-1.526,6.049-.809,8.6,5.1,7,16.235-1.181,25.593-.329,36.787.45,5.919,2.59,11.281,7.212,15.006,8.043,6.484,17.9,7.714,35.87,16.6-16-11.621-30.748-25.548-34.3-44.366a31.235,31.235,0,0,1,16.341,13.685c10.35,17.24,6.093,21.449,35.255,40.264,20.76,13.393,33.7,26.735,46.693,47.106.88,1.38,6.234,8.346,4.13,9.811-3.568,2.483-9.015-7.516-9.93-9.38-9.689-19.74-38.075-54.25-53.99-37.907-9.051,9.293-7.028,27.872-30.737,40.142,1.1-12.5,2.5-25.781,10.26-35.646,7.367-9.367,19.611-14.778,31.691-12.01-16.974-10.94-24.766-14.963-43.129-8.034-16.174,6.1-29.1,16.649-53.917,8.743,10.126-6.332,20.507-12.771,32.165-15.364,13.72-3.053,27.978-.523,41.8,2.141-14.187-6.473-32.123-15.914-47.6-9.165-15.948,6.955-26.648,23.045-43.061,29.054-13.121,4.8-27.743,2.276-41.177-1.562C2180.419,833.4,2203.686,832.943,2222.7,824.068Z" transform="translate(-2150.073 686.205) rotate(-22)" fill="#fdb99d" style="mix-blend-mode: multiply;isolation: isolate"/>
      <g id="Grupo_6341" data-name="Grupo 6341" transform="translate(-102.334 -92.137)">
        <g id="Grupo_180" data-name="Grupo 180" transform="matrix(0.956, 0.292, -0.292, 0.956, 367.412, 104.137)">
          <path id="Trazado_158" data-name="Trazado 158" d="M0,31.012A46.133,46.133,0,0,1,88.526,49.028h1.128c.056-.874.056-1.973.056-2.791A46.129,46.129,0,0,0,0,31.012Z" transform="translate(17.339 19.481)" fill="#fdec98"/>
          <path id="Trazado_160" data-name="Trazado 160" d="M7.894,2,8.148.366,0,0Z" transform="translate(3.129 56.076)" fill="#fdec98"/>
          <path id="Trazado_161" data-name="Trazado 161" d="M5.328,9.163,0,0,3.44,10.065A14.2,14.2,0,0,0,5.328,9.163Z" transform="translate(36.876 10.065)" fill="#fdec98"/>
          <path id="Trazado_162" data-name="Trazado 162" d="M5.723,15.422,0,0,2.622,16.127C3.58,15.816,4.652,15.675,5.723,15.422Z" transform="translate(44.742 2.03)" fill="#fdec98"/>
          <path id="Trazado_163" data-name="Trazado 163" d="M2.96,0,0,16.408c1.071.113,2.143.113,3.27.226Z" transform="translate(63.181 0)" fill="#fdec98"/>
          <path id="Trazado_164" data-name="Trazado 164" d="M.085,0,0,10.206H2Z" transform="translate(55.85 5.949)" fill="#fdec98"/>
          <path id="Trazado_165" data-name="Trazado 165" d="M10.093,12.433,0,0,7.5,13.927C8.345,13.42,9.247,12.969,10.093,12.433Z" transform="translate(25.148 10.685)" fill="#fdec98"/>
          <path id="Trazado_166" data-name="Trazado 166" d="M7.612,3.017,0,0,6.879,4.313A10.056,10.056,0,0,1,7.612,3.017Z" transform="translate(9.05 36.905)" fill="#fdec98"/>
          <path id="Trazado_167" data-name="Trazado 167" d="M13.617,2.622,0,0,12.715,5.244C12.941,4.539,13.251,3.665,13.617,2.622Z" transform="translate(0 45.024)" fill="#fdec98"/>
          <path id="Trazado_168" data-name="Trazado 168" d="M12.715,7.584,0,0,10.911,9.811A11.754,11.754,0,0,1,12.715,7.584Z" transform="translate(9.642 25.797)" fill="#fdec98"/>
          <path id="Trazado_169" data-name="Trazado 169" d="M6.851,5.751,0,0,5.5,7.076C5.921,6.625,6.343,6.231,6.851,5.751Z" transform="translate(21.201 21.793)" fill="#fdec98"/>
          <path id="Trazado_170" data-name="Trazado 170" d="M.564,3.806,9.3,0,0,2.086C.113,2.65.451,3.1.564,3.806Z" transform="translate(108.881 46.18)" fill="#fdec98"/>
          <path id="Trazado_172" data-name="Trazado 172" d="M1.269,6.625,8.458,0,0,5.047A11.05,11.05,0,0,1,1.269,6.625Z" transform="translate(100.198 28.56)" fill="#fdec98"/>
          <path id="Trazado_173" data-name="Trazado 173" d="M3.637,0,0,9.924a6.086,6.086,0,0,1,1.945.451Z" transform="translate(71.92 7.076)" fill="#fdec98"/>
          <path id="Trazado_174" data-name="Trazado 174" d="M.423,2.96,13.533,0,0,.338C.113,1.184.31,2.115.423,2.96Z" transform="translate(110.629 55.258)" fill="#fdec98"/>
          <path id="Trazado_175" data-name="Trazado 175" d="M1.353,7.5,13.307,0,0,5.244C.423,5.92.93,6.795,1.353,7.5Z" transform="translate(104.512 34.677)" fill="#fdec98"/>
          <path id="Trazado_176" data-name="Trazado 176" d="M8.148,0,0,14.012c1.015.367,2.03.846,2.988,1.128Z" transform="translate(78.912 5.469)" fill="#fdec98"/>
          <path id="Trazado_177" data-name="Trazado 177" d="M2.34,11.869,11.672,0,0,9.952C.874,10.572,1.579,11.249,2.34,11.869Z" transform="translate(93.263 17.451)" fill="#fdec98"/>
          <path id="Trazado_178" data-name="Trazado 178" d="M6.456,0,0,7.894c.536.31,1.128.733,1.663.987Z" transform="translate(87.06 15.027)" fill="#fdec98"/>
        </g>
        <text id="SHOPPING" transform="translate(352.439 225.954)" fill="#895967" font-size="19" font-family="OpenSans-Light, Open Sans" font-weight="300" letter-spacing="0.08em"><tspan x="-51.818" y="0">SHOPPING</tspan></text>
        <g id="Grupo_178" data-name="Grupo 178" transform="translate(236.894 141.23)">
          <g id="Grupo_142" data-name="Grupo 142" transform="translate(0 0)">
            <g id="Grupo_140" data-name="Grupo 140">
              <path id="Trazado_84" data-name="Trazado 84" d="M73,37.279C77.984,30,82.508,21.3,82.416,12.249c0-3.72-2.273-7.073-6.315-6.108C65.492,8.506,65.837,26.463,65.883,34.408c.046,2.342.827,5.672.321,7.073-.712,2.25-7.624,8.542-7.968,8.4,0,0-1.033-6.361-4.845-9.622-4.524-3.7-9.507-3.192-13.434-2.09C13.871,45.982,17.315,76.2,17.2,76.247A47.631,47.631,0,0,1,6.293,79.072c-.321,2.641-3.651,6.384-1.4,6.682A40.145,40.145,0,0,0,18.44,82.1c.39-.207,5.649,16.327,27.418,10.563C64.137,87.844,73.69,64.651,73.369,44.6c0-.873-.092-1.676-.092-2.595C73.185,40.424,73.093,38.84,73,37.279ZM24.64,73.469a5.163,5.163,0,0,1-.344-1.355c-1.217-11.619,3.376-25.007,16.028-30.335,7.6-3.238,13.755,2.733,13.8,10.4a6.056,6.056,0,0,1,.046,1.24C51.462,59.484,26.041,74.249,24.64,73.469ZM44.389,87.752c-14.375,4.914-19.174-9.461-19.174-9.461C48.476,66.924,53.3,57.762,53.85,58.06c0,0-1.171,8.565-9.668,17.016,1.24,1.4,2.3,2.824,3.513,4.156,6.613-6.315,10.931-19.266,10.586-25.122,0,0,6.682-6.062,8.221-8.634,0,0,.092,1.791.092,2.641C66.893,63.411,60.027,82.333,44.389,87.752ZM72.611,32.64S72.06,25.062,72.06,21.3c-.046-3.49-.367-10.471,4.248-11.413,1.768-.344,2.549,1.584,2.549,2.939C78.857,19.826,72.955,32.686,72.611,32.64Z" transform="translate(-4.116 -5.973)" fill="#f59799"/>
            </g>
            <g id="Grupo_141" data-name="Grupo 141" transform="translate(73.087 24.393)">
              <path id="Trazado_85" data-name="Trazado 85" d="M151.555,45.063c-2.09,1.952-7.6,1.607-6.545,4.087,3.192,2.273,4.087,6.246,3.72,10.035-.528,4.5-4.96,7.394-9.714,5.879-4.96-1.653-7.165-5.97-7.256-12.262-.046-5.442,3.536-9.208,3.7-13.617.207-4.11-4.822-8.933-5.1-11.183-.276-1.607.964-5.35,1.4-8.657.964-6.292-4.294-6.659-5.373-3.422a21.417,21.417,0,0,0-.758,5.787c0,2.067,1.1,4.685,1.24,6.246.207,2.136-1.493,5.947-2.618,8.887h0c-1.562,2.044-4.639,9.254-9.736,7.555-3.49-1.148-4.363-5.511-4.363-8.749,0-.322-.138-.987,0-.987,2.779-.528,11.78-3.7,11.619-10.425,0-3.307-2.3-6.039-5.144-6.085-6.361-.092-9.943,5.282-11.39,10.747l-.046-.046c-.9,2.572-4.11,11.734-7.417,11.229-.551-.138-1.4-.666-1.4-2.687,0-6.522,4.225-12.331,4.225-18.945,0-2.595-1.4-5.167-4.064-5.81-3.674-.827-8.565,4.547-8.657,4.547,0,0,.092-1.217.092-1.676,0-2.457-1.24-4.96-3.881-5.35-3.422-.643-5.81,2.2-7.509,4.639.253-1.607.574-3.33.781-4.96-1.952-.321-4.064-.574-6.062-.85-.712,4.914-1.263,10.1-2.159,14.788C68.565,26.6,65.4,34.66,61.86,34.66c-.551,0-1.424-.436-1.424-2.411-.115-6.728,4.294-12.905,4.294-19.771,0-2.457-1.447-4.937-4.248-5.1-3.95-.184-8.565,6.2-8.726,6.108,0,0,.161-1.194.161-1.676-.115-2.342-1.4-4.822-4.042-4.776-3.444.115-5.925,3.33-7.532,6.062.253-1.676.528-3.422.873-5.167-2.067.138-4.087.184-6.154.321-.712,4.8-1.24,9.9-2.067,14.6C32.26,25.613,29.344,34.89,25.6,35.648c-.528.115-1.332-.184-1.378-2.182-.161-8.2,2.434-16.625,4.11-24.686-1.975.207-3.973.482-5.925.689-1.194,4.891-2.25,9.805-3.031,14.765-.207.873-.3,1.378-.482,2.319-.6,2.825-1.791,9.736-4.478,10.655-.551.184-1.539-.046-1.539-2.09a53.777,53.777,0,0,1,1.355-10.012c.9-4.96,1.814-9.943,2.916-14.9-2.021.344-3.973.689-5.97,1.033-1.148,4.983-2.09,9.943-2.916,14.811a59.906,59.906,0,0,0-.964,9.6c0,3.123.919,7.762,5.052,6.935,3.169-.666,6.154-6.636,6.2-6.636,0,0,1.975,5.373,5.075,4.868,2.779-.39,4.868-2.48,6.476-5.167-.23,1.424-.505,2.847-.666,4.248,2.067-.23,4.087-.39,6.177-.551.689-3.789,1.424-7.624,2.113-11.551.643-3.559,2.319-14.857,6.889-15.317.574-.069,1.033.367.942,1.424,0,8.175-2.87,17.062-4.593,25.214,2.2-.092,4.363-.138,6.5-.138,1.079-4.547,1.768-9.277,2.733-13.663.62-3.054,2.687-13.158,7.119-13.158.85,0,1.171.689,1.171,1.424.046,6.613-4.2,12.974-4.271,19.68-.138,2.939,1.63,6.085,4.845,6.246,2.985.161,5.488-1.745,7.394-4.386a36.869,36.869,0,0,0-.712,4.432c2.021.207,4.087.39,6.085.643.735-3.7,1.355-7.394,2.113-11.16.6-3.031,2.48-14.444,6.912-14.168.551.115.919.551.919,1.676-.023,7.9-2.87,16.534-4.547,24.272,2.113.3,4.225.643,6.384,1.056,1.056-4.432,1.791-8.933,2.687-13.158.62-2.664,2.8-12.607,7.05-11.872a1.525,1.525,0,0,1,1.125,1.607c.092,6.384-4.11,12.377-4.2,18.9,0,2.939,1.584,6.292,4.822,7.05,4.156,1.01,7.463-2.779,9.415-6.705.689,5.236,3.169,10.4,8.428,11.941,6.545,1.975,11.321-6.522,13.227-11.137h0c.85-2.113,1.7-4.11,2.526-6.085a13.3,13.3,0,0,1,1.447,5.511c0,2.159-.964,3.4-1.791,5.327a27.5,27.5,0,0,0-1.952,7.279c-.666,8.473,2.87,15.891,10.7,18.669a14.437,14.437,0,0,0,18.577-9.553C157.846,52.48,153.9,43.938,151.555,45.063ZM116.4,22.7c.666.207,1.056,1.079,1.1,2.09,0,3.927-6.751,7.808-7.233,7.325C110.152,31.951,112.31,21.365,116.4,22.7Z" transform="translate(-7.299 -7.035)" fill="#f59799"/>
            </g>
          </g>
        </g>
      </g>
      <g id="Grupo_6342" data-name="Grupo 6342" transform="translate(-507.764 135.716)">
        <g id="_35_" data-name="35%" transform="translate(530.95 35.539)">
          <text id="_35" data-name="35" transform="translate(12.365 83.696)" fill="#db697f" font-size="76" font-family="OpenSans-Bold, Open Sans" font-weight="700"><tspan x="0" y="0">35</tspan></text>
          <text id="OFF" transform="translate(104.906 83.559)" fill="#db697f" font-size="12" font-family="OpenSans-Bold, Open Sans" font-weight="700"><tspan x="0" y="0">OFF</tspan></text>
          <text id="_" data-name="%" transform="translate(100.673 70.047)" fill="#db697f" font-size="36" font-family="OpenSans-Bold, Open Sans" font-weight="700" letter-spacing="-0.02em"><tspan x="0" y="0">%</tspan></text>
          <text id="Compra_mínimo_500.000_y_recibe" data-name="Compra mínimo
$500.000 y recibe" transform="translate(71.353 7)" fill="#8c5152" font-size="8" font-family="Asap-Regular, Asap"><tspan x="-28.448" y="0">Compra mínimo</tspan><tspan font-family="Asap-Bold, Asap" font-weight="700"><tspan x="-30.512" y="9">$500.000 y recibe</tspan></tspan></text>
          <g id="Grupo_6131" data-name="Grupo 6131" transform="translate(12.365 94.828)">
            <rect id="Rectángulo_5" data-name="Rectángulo 5" width="118.44" height="14.497" transform="translate(0)" fill="#f59799"/>
            <text id="Con_el_cupón:_HOLY35" data-name="Con el cupón: HOLY35" transform="translate(55.825 10.341)" fill="#fff" font-size="10" font-family="Asap-Bold, Asap" font-weight="700"><tspan x="-49.085" y="0">Con el cupón: </tspan><tspan y="0" fill="#ffeb98">HOLY35</tspan></text>
          </g>
          <path id="Trazado_209" data-name="Trazado 209" d="M171.865,710.961H159.5V623.5h23.227" transform="translate(-159.5 -608.884)" fill="none" stroke="#e8dbdb" stroke-width="4"/>
          <path id="Trazado_210" data-name="Trazado 210" d="M170.362,710.961h12.365V623.5H159.5" transform="translate(-39.379 -608.884)" fill="none" stroke="#e8dbdb" stroke-width="4"/>
          <g id="Grupo_3" data-name="Grupo 3" transform="translate(6.387 2.696)">
            <g id="Grupo_1" data-name="Grupo 1">
              <path id="Trazado_1" data-name="Trazado 1" d="M14.166,29.066a8.976,8.976,0,0,0,1.912-1.576,11.147,11.147,0,0,1,1.912-2.16,1.869,1.869,0,0,1,1.735-.425,4.113,4.113,0,0,1,1.859.832c.673.478,1.222.974,1.824,1.416a3.536,3.536,0,0,0,1.912.814c.266.071.567,0,.567-.248a1.5,1.5,0,0,0-.071-.885c-.23-.407-.425-.868-.637-1.275-.266-.513-.443-1.08-.673-1.611-.195-.5-.425-.992-.584-1.505a3.733,3.733,0,0,1-.177-1.47,2.914,2.914,0,0,1,1.576-1.965c.744-.478,1.47-.885,2.178-1.381a5.329,5.329,0,0,0,1.2-1.08c.035-.106.159-.354,0-.425a1.475,1.475,0,0,0-.938-.212c-1.115-.053-2.284.071-3.417,0a3.908,3.908,0,0,1-2.355-.531c-1.222-.761-1.664-2.231-2.089-3.488-.177-.584-.354-1.186-.584-1.771-.089-.266-.212-.549-.354-.9a1.558,1.558,0,0,0-.478-.637c-.567-.354-.9.407-1.08.868a11.621,11.621,0,0,0-.3,2.107c-.124.62-.195,1.275-.354,1.877a5.137,5.137,0,0,1-.637,1.877,3.425,3.425,0,0,1-2.975,1.275,28.949,28.949,0,0,0-3.028-.035c-.372,0-2.2,0-1.717.761v.071c.195.549.885.921,1.416,1.222a7.618,7.618,0,0,1,.85.46c.407.336.814.567,1.239.9.425.266.832.567,1.328.921a2.658,2.658,0,0,1,.691.85,2.852,2.852,0,0,1,.266,1.983,11.2,11.2,0,0,1-.779,2.443,7.31,7.31,0,0,0-.708,2.213c0,.407,0,.956.407,1.062A1.561,1.561,0,0,0,14.166,29.066Zm11.013-2c.071.053,0,.089,0,.053l-.106-.053.071.089c.035.106,0,.142-.071.212h-.035c-.124-.071-.266-.248-.159-.407S25.144,26.994,25.179,27.065Zm-.832-1.1.035.195v.053c.089,0,.089.124.089.177l-.124.071c-.106.089-.142,0-.195-.035a.265.265,0,0,1,0-.425c-.071-.035,0-.035,0-.035h.195ZM18.4,10.156s-.106-.106-.177-.106l-.035-.159.106-.035a.983.983,0,0,1,.336.035c.071,0,.177.159.071.23h0l-.071-.106-.071-.035-.071-.089v.089l.071.071c0,.071.071.177,0,.177C18.486,10.262,18.433,10.227,18.4,10.156Zm-.106,1.08a.276.276,0,0,1,.407-.159.4.4,0,0,1,.106.23v.071h0V11.5C18.628,11.555,18.221,11.466,18.292,11.236Zm0,1.257a.324.324,0,0,1,.513-.266.35.35,0,0,1,.053.513h0c0,.089-.053.124-.159.159C18.486,12.971,18.292,12.705,18.292,12.493Zm.106,1.594c-.106-.248.159-.62.336-.567.159,0,.336.124.336.195l.035.212V14c.124.23-.035.3-.248.3C18.7,14.3,18.433,14.264,18.4,14.087Zm.46,1.505c-.23-.035-.425-.142-.46-.283-.106-.266.23-.531.46-.531.142,0,.248.035.372.266v.106a.363.363,0,0,1,.089.3C19.23,15.592,19,15.592,18.858,15.592ZM23.479,24.9a.253.253,0,0,1,.177.142l.089.177a.307.307,0,0,1-.195.266c-.23.106-.478-.159-.478-.407C23.072,24.9,23.249,24.816,23.479,24.9ZM21.3,21.771c.266.159.531.567.177.832a.535.535,0,0,1-.708-.124c-.142-.177-.142-.655.23-.655.071,0,.195,0,.212.071v-.071S21.213,21.736,21.3,21.771Zm-2.16.531a.66.66,0,0,1-.443-.266.315.315,0,0,1,.3-.407.4.4,0,0,1,.39.6h0A.211.211,0,0,1,19.141,22.3Zm1.222-1.594a.879.879,0,0,1,.3.372l.071.124a.354.354,0,0,1-.212.567.65.65,0,0,1-.691-.549C19.8,20.939,19.991,20.567,20.363,20.709Zm.85-.673c.089.195.089.266-.053.39a.542.542,0,0,1-.691-.124c-.142-.266-.071-.673.3-.673A.444.444,0,0,1,21.213,20.036ZM21.16,19.4a.594.594,0,0,1-.691-.39c-.071-.283.159-.708.531-.637a.531.531,0,0,1,.336.513.155.155,0,0,1,.071.142A.478.478,0,0,1,21.16,19.4Zm1.133-.956h0c.106.195.142.584-.106.62a.593.593,0,0,1-.708-.46.6.6,0,0,1,.443-.637.594.594,0,0,1,.478.23c0,.106,0,.177-.089.248Zm-2.3-.319c-.035-.089-.159-.195-.159-.3,0-.159.23-.266.372-.266l.266.159.159.195c.106.124-.071.319-.23.39A.846.846,0,0,1,19.991,18.123Zm3.559.248a.57.57,0,0,1-.708-.142c-.124-.3,0-.691.407-.673.124.071.266.106.3.23l.071.124A.269.269,0,0,1,23.55,18.371Zm3.4-1.257c-.23.142-.39-.035-.443-.266-.106-.106,0-.266.195-.3a.372.372,0,0,1,.212.159h.035l.035.035-.035-.195h.035A.362.362,0,0,1,26.95,17.114Zm.974-.832h.106v.106c0,.053.035.089,0,.159,0,.159-.23.159-.3.035-.106-.035-.106-.142-.071-.266l.106-.035-.035-.089.035-.035A.149.149,0,0,1,27.924,16.282Zm-9.49.372c-.142-.266.124-.673.425-.744a.462.462,0,0,1,.46.567c.071.106-.053.266-.212.336A.719.719,0,0,1,18.433,16.654Zm7.012.195a.251.251,0,0,1,.248.23c.159.142.195.407.035.478-.248.23-.549-.071-.584-.3A.328.328,0,0,1,25.445,16.849Zm-1.133.407.195.053h0c.266.177.407.478.071.62a.443.443,0,0,1-.655-.266A.33.33,0,0,1,24.312,17.256Zm-5.347,0a.537.537,0,0,1,.425.283c.106.018.106.124.106.177.089.212.159.513-.106.62a.713.713,0,0,1-.832-.3C18.4,17.787,18.557,17.22,18.964,17.256Zm-1.558.779c-.159-.124-.053-.5.212-.549a.337.337,0,0,1,.407.142c.124.035.124.195,0,.3.124.106.124.266-.035.3A.593.593,0,0,1,17.406,18.035Zm-7.419-.407a.315.315,0,0,1-.3-.248c-.106-.159.053-.266.266-.3a.234.234,0,0,1,.195.142c.071.035.106.089.071.159h.035C10.253,17.539,10.147,17.663,9.987,17.628Zm.885,0a.3.3,0,0,1,.425-.319.615.615,0,0,1,.177.23c.159.124.23.39-.035.425A.434.434,0,0,1,10.873,17.628Zm1.293.567c-.142-.23-.035-.637.23-.637.195,0,.407.23.336.372l.071.106c.035.089-.071.195-.106.266A.576.576,0,0,1,12.165,18.194Zm1.47.407a.45.45,0,0,1-.372-.513.417.417,0,0,1,.549-.177c.159.018.23.212.23.39C14.077,18.531,13.812,18.725,13.635,18.6Zm1.1.407c-.159-.124-.39-.283-.39-.478-.053-.3.39-.443.637-.407a.291.291,0,0,1,.3.248c.035.124.106.23.035.354.124.071.159.283,0,.3C15.14,19.133,14.892,19.026,14.733,19.009Zm.921.018c-.177-.3.159-.655.46-.691a.447.447,0,0,1,.407.266.3.3,0,0,1,.035.407c.124.177-.035.39-.3.39C16.078,19.327,15.724,19.221,15.653,19.026Zm1.257.567c-.266-.3.035-.832.407-.868a.793.793,0,0,1,.567.195.351.351,0,0,1,0,.478c.035.159,0,.3-.23.425A.762.762,0,0,1,16.91,19.593Zm.708.443c.035-.142.266-.142.372-.212.089-.124.035-.354.035-.5v-.195c0-.106-.035-.124,0-.212l.266-.159a2.683,2.683,0,0,1,.513.035A1.975,1.975,0,0,1,19.5,18.6c.23,0,.3.283.3.425,0,.195-.071.407,0,.567a1.365,1.365,0,0,0,.336.372c.071.035.071.071.071.195-.071.106-.142.266-.3.266l-.248.035c-.159,0-.23.177-.266.248a.654.654,0,0,1-.319.336c-.372.159-.443-.159-.673-.336-.212-.177-.584-.071-.779-.319C17.583,20.266,17.512,20.107,17.619,20.036Zm-1.062.8c-.177-.159-.035-.372.124-.443a.341.341,0,0,1,.5,0l.142.177.035.106c.124.159-.035.266-.177.266A.932.932,0,0,1,16.556,20.832Zm.921,1.133c-.266-.142-.159-.478,0-.744a.578.578,0,0,1,.708-.142.7.7,0,0,1,.212.549c.159.195.159.407-.106.443A.852.852,0,0,1,17.477,21.966Zm-.655.992c-.177-.142-.035-.6.159-.655a.48.48,0,0,1,.6.035c.035.106.159.212.071.372a.225.225,0,0,1-.071.407A.911.911,0,0,1,16.822,22.957Zm4.94-.071a.4.4,0,0,1,.5.39l-.071.035v.071a.44.44,0,0,1-.567.195C21.443,23.382,21.443,22.957,21.762,22.886Zm-5.648.832c-.035-.266.142-.567.443-.443a.436.436,0,0,1,.354.443c.071.159.142.425-.124.5A.57.57,0,0,1,16.114,23.719Zm6.427.124a.405.405,0,0,1,.372.142l.159.159a1.07,1.07,0,0,1,0,.336.383.383,0,0,1-.6.035C22.311,24.3,22.187,23.878,22.541,23.843Zm-6.693,1.31a.77.77,0,0,1-.372-.336c-.089-.142.177-.336.336-.407.142-.035.3.071.407.266.159.106.425.372.071.478A1.81,1.81,0,0,1,15.848,25.153Zm-.814,1.009c-.142-.159-.177-.513,0-.6h.035l-.035-.071h.142c.212.071.513.283.372.513A.491.491,0,0,1,15.034,26.162Zm-.425,1.1a.466.466,0,0,1-.319-.266c0-.106.053-.106.177-.159h0V26.8l.106.035h.159a.262.262,0,0,1,0,.23v.159Z" transform="translate(-8.315 -8.489)" fill="#d9afb1"/>
            </g>
            <g id="Grupo_2" data-name="Grupo 2" transform="translate(5.48 19.479)">
              <path id="Trazado_2" data-name="Trazado 2" d="M8.872,9.855h0l-.124-.142-.124-.124c0,.23.089.266.283.266Z" transform="translate(-8.624 -9.589)" fill="#d9afb1"/>
            </g>
          </g>
        </g>
        <g id="_20_" data-name="20%" transform="translate(835.626 36.068)">
          <text id="OFF-2" data-name="OFF" transform="translate(104.906 83.03)" fill="#db697f" font-size="12" font-family="OpenSans-Bold, Open Sans" font-weight="700"><tspan x="0" y="0">OFF</tspan></text>
          <g id="Grupo_6335" data-name="Grupo 6335" transform="translate(0 0)">
            <text id="_20" data-name="20" transform="translate(12.365 83.167)" fill="#db697f" font-size="76" font-family="OpenSans-Bold, Open Sans" font-weight="700"><tspan x="0" y="0">20</tspan></text>
            <text id="_2" data-name="%" transform="translate(100.673 69.518)" fill="#db697f" font-size="36" font-family="OpenSans-Bold, Open Sans" font-weight="700" letter-spacing="-0.02em"><tspan x="0" y="0">%</tspan></text>
            <text id="Compra_mínimo_200.000_y_recibe" data-name="Compra mínimo
$200.000 y recibe" transform="translate(67.302 7)" fill="#8c5152" font-size="8" font-family="Asap-Regular, Asap"><tspan x="-28.448" y="0">Compra mínimo</tspan><tspan font-family="Asap-Bold, Asap" font-weight="700"><tspan x="-30.512" y="9">$200.000 y recibe</tspan></tspan></text>
            <g id="Grupo_6320" data-name="Grupo 6320" transform="translate(12.365 94.299)">
              <rect id="Rectángulo_5-2" data-name="Rectángulo 5" width="118.44" height="14.497" transform="translate(0 0)" fill="#f59799"/>
              <text id="Con_el_cupón:_HOLY20" data-name="Con el cupón: HOLY20" transform="translate(57.132 10.285)" fill="#fff" font-size="10" font-family="Asap-Bold, Asap" font-weight="700"><tspan x="-49.085" y="0">Con el cupón: </tspan><tspan y="0" fill="#ffeb98">HOLY20</tspan></text>
            </g>
            <path id="Trazado_371" data-name="Trazado 371" d="M171.865,710.961H159.5V623.5h23.227" transform="translate(-159.5 -609.413)" fill="none" stroke="#e8dbdb" stroke-width="4"/>
            <path id="Trazado_370" data-name="Trazado 370" d="M170.362,710.961h12.365V623.5H159.5" transform="translate(-39.379 -609.413)" fill="none" stroke="#e8dbdb" stroke-width="4"/>
            <g id="Grupo_6322" data-name="Grupo 6322" transform="translate(6.387 2.167)">
              <g id="Grupo_1-2" data-name="Grupo 1">
                <path id="Trazado_1-2" data-name="Trazado 1" d="M14.166,29.066a8.976,8.976,0,0,0,1.912-1.576,11.147,11.147,0,0,1,1.912-2.16,1.869,1.869,0,0,1,1.735-.425,4.113,4.113,0,0,1,1.859.832c.673.478,1.222.974,1.824,1.416a3.536,3.536,0,0,0,1.912.814c.266.071.567,0,.567-.248a1.5,1.5,0,0,0-.071-.885c-.23-.407-.425-.868-.637-1.275-.266-.513-.443-1.08-.673-1.611-.195-.5-.425-.992-.584-1.505a3.733,3.733,0,0,1-.177-1.47,2.914,2.914,0,0,1,1.576-1.965c.744-.478,1.47-.885,2.178-1.381a5.329,5.329,0,0,0,1.2-1.08c.035-.106.159-.354,0-.425a1.475,1.475,0,0,0-.938-.212c-1.115-.053-2.284.071-3.417,0a3.908,3.908,0,0,1-2.355-.531c-1.222-.761-1.664-2.231-2.089-3.488-.177-.584-.354-1.186-.584-1.771-.089-.266-.212-.549-.354-.9a1.558,1.558,0,0,0-.478-.637c-.567-.354-.9.407-1.08.868a11.621,11.621,0,0,0-.3,2.107c-.124.62-.195,1.275-.354,1.877a5.137,5.137,0,0,1-.637,1.877,3.425,3.425,0,0,1-2.975,1.275,28.949,28.949,0,0,0-3.028-.035c-.372,0-2.2,0-1.717.761v.071c.195.549.885.921,1.416,1.222a7.618,7.618,0,0,1,.85.46c.407.336.814.567,1.239.9.425.266.832.567,1.328.921a2.658,2.658,0,0,1,.691.85,2.852,2.852,0,0,1,.266,1.983,11.2,11.2,0,0,1-.779,2.443,7.31,7.31,0,0,0-.708,2.213c0,.407,0,.956.407,1.062A1.561,1.561,0,0,0,14.166,29.066Zm11.013-2c.071.053,0,.089,0,.053l-.106-.053.071.089c.035.106,0,.142-.071.212h-.035c-.124-.071-.266-.248-.159-.407S25.144,26.994,25.179,27.065Zm-.832-1.1.035.195v.053c.089,0,.089.124.089.177l-.124.071c-.106.089-.142,0-.195-.035a.265.265,0,0,1,0-.425c-.071-.035,0-.035,0-.035h.195ZM18.4,10.156s-.106-.106-.177-.106l-.035-.159.106-.035a.983.983,0,0,1,.336.035c.071,0,.177.159.071.23h0l-.071-.106-.071-.035-.071-.089v.089l.071.071c0,.071.071.177,0,.177C18.486,10.262,18.433,10.227,18.4,10.156Zm-.106,1.08a.276.276,0,0,1,.407-.159.4.4,0,0,1,.106.23v.071h0V11.5C18.628,11.555,18.221,11.466,18.292,11.236Zm0,1.257a.324.324,0,0,1,.513-.266.35.35,0,0,1,.053.513h0c0,.089-.053.124-.159.159C18.486,12.971,18.292,12.705,18.292,12.493Zm.106,1.594c-.106-.248.159-.62.336-.567.159,0,.336.124.336.195l.035.212V14c.124.23-.035.3-.248.3C18.7,14.3,18.433,14.264,18.4,14.087Zm.46,1.505c-.23-.035-.425-.142-.46-.283-.106-.266.23-.531.46-.531.142,0,.248.035.372.266v.106a.363.363,0,0,1,.089.3C19.23,15.592,19,15.592,18.858,15.592ZM23.479,24.9a.253.253,0,0,1,.177.142l.089.177a.307.307,0,0,1-.195.266c-.23.106-.478-.159-.478-.407C23.072,24.9,23.249,24.816,23.479,24.9ZM21.3,21.771c.266.159.531.567.177.832a.535.535,0,0,1-.708-.124c-.142-.177-.142-.655.23-.655.071,0,.195,0,.212.071v-.071S21.213,21.736,21.3,21.771Zm-2.16.531a.66.66,0,0,1-.443-.266.315.315,0,0,1,.3-.407.4.4,0,0,1,.39.6h0A.211.211,0,0,1,19.141,22.3Zm1.222-1.594a.879.879,0,0,1,.3.372l.071.124a.354.354,0,0,1-.212.567.65.65,0,0,1-.691-.549C19.8,20.939,19.991,20.567,20.363,20.709Zm.85-.673c.089.195.089.266-.053.39a.542.542,0,0,1-.691-.124c-.142-.266-.071-.673.3-.673A.444.444,0,0,1,21.213,20.036ZM21.16,19.4a.594.594,0,0,1-.691-.39c-.071-.283.159-.708.531-.637a.531.531,0,0,1,.336.513.155.155,0,0,1,.071.142A.478.478,0,0,1,21.16,19.4Zm1.133-.956h0c.106.195.142.584-.106.62a.593.593,0,0,1-.708-.46.6.6,0,0,1,.443-.637.594.594,0,0,1,.478.23c0,.106,0,.177-.089.248Zm-2.3-.319c-.035-.089-.159-.195-.159-.3,0-.159.23-.266.372-.266l.266.159.159.195c.106.124-.071.319-.23.39A.846.846,0,0,1,19.991,18.123Zm3.559.248a.57.57,0,0,1-.708-.142c-.124-.3,0-.691.407-.673.124.071.266.106.3.23l.071.124A.269.269,0,0,1,23.55,18.371Zm3.4-1.257c-.23.142-.39-.035-.443-.266-.106-.106,0-.266.195-.3a.372.372,0,0,1,.212.159h.035l.035.035-.035-.195h.035A.362.362,0,0,1,26.95,17.114Zm.974-.832h.106v.106c0,.053.035.089,0,.159,0,.159-.23.159-.3.035-.106-.035-.106-.142-.071-.266l.106-.035-.035-.089.035-.035A.149.149,0,0,1,27.924,16.282Zm-9.49.372c-.142-.266.124-.673.425-.744a.462.462,0,0,1,.46.567c.071.106-.053.266-.212.336A.719.719,0,0,1,18.433,16.654Zm7.012.195a.251.251,0,0,1,.248.23c.159.142.195.407.035.478-.248.23-.549-.071-.584-.3A.328.328,0,0,1,25.445,16.849Zm-1.133.407.195.053h0c.266.177.407.478.071.62a.443.443,0,0,1-.655-.266A.33.33,0,0,1,24.312,17.256Zm-5.347,0a.537.537,0,0,1,.425.283c.106.018.106.124.106.177.089.212.159.513-.106.62a.713.713,0,0,1-.832-.3C18.4,17.787,18.557,17.22,18.964,17.256Zm-1.558.779c-.159-.124-.053-.5.212-.549a.337.337,0,0,1,.407.142c.124.035.124.195,0,.3.124.106.124.266-.035.3A.593.593,0,0,1,17.406,18.035Zm-7.419-.407a.315.315,0,0,1-.3-.248c-.106-.159.053-.266.266-.3a.234.234,0,0,1,.195.142c.071.035.106.089.071.159h.035C10.253,17.539,10.147,17.663,9.987,17.628Zm.885,0a.3.3,0,0,1,.425-.319.615.615,0,0,1,.177.23c.159.124.23.39-.035.425A.434.434,0,0,1,10.873,17.628Zm1.293.567c-.142-.23-.035-.637.23-.637.195,0,.407.23.336.372l.071.106c.035.089-.071.195-.106.266A.576.576,0,0,1,12.165,18.194Zm1.47.407a.45.45,0,0,1-.372-.513.417.417,0,0,1,.549-.177c.159.018.23.212.23.39C14.077,18.531,13.812,18.725,13.635,18.6Zm1.1.407c-.159-.124-.39-.283-.39-.478-.053-.3.39-.443.637-.407a.291.291,0,0,1,.3.248c.035.124.106.23.035.354.124.071.159.283,0,.3C15.14,19.133,14.892,19.026,14.733,19.009Zm.921.018c-.177-.3.159-.655.46-.691a.447.447,0,0,1,.407.266.3.3,0,0,1,.035.407c.124.177-.035.39-.3.39C16.078,19.327,15.724,19.221,15.653,19.026Zm1.257.567c-.266-.3.035-.832.407-.868a.793.793,0,0,1,.567.195.351.351,0,0,1,0,.478c.035.159,0,.3-.23.425A.762.762,0,0,1,16.91,19.593Zm.708.443c.035-.142.266-.142.372-.212.089-.124.035-.354.035-.5v-.195c0-.106-.035-.124,0-.212l.266-.159a2.683,2.683,0,0,1,.513.035A1.975,1.975,0,0,1,19.5,18.6c.23,0,.3.283.3.425,0,.195-.071.407,0,.567a1.365,1.365,0,0,0,.336.372c.071.035.071.071.071.195-.071.106-.142.266-.3.266l-.248.035c-.159,0-.23.177-.266.248a.654.654,0,0,1-.319.336c-.372.159-.443-.159-.673-.336-.212-.177-.584-.071-.779-.319C17.583,20.266,17.512,20.107,17.619,20.036Zm-1.062.8c-.177-.159-.035-.372.124-.443a.341.341,0,0,1,.5,0l.142.177.035.106c.124.159-.035.266-.177.266A.932.932,0,0,1,16.556,20.832Zm.921,1.133c-.266-.142-.159-.478,0-.744a.578.578,0,0,1,.708-.142.7.7,0,0,1,.212.549c.159.195.159.407-.106.443A.852.852,0,0,1,17.477,21.966Zm-.655.992c-.177-.142-.035-.6.159-.655a.48.48,0,0,1,.6.035c.035.106.159.212.071.372a.225.225,0,0,1-.071.407A.911.911,0,0,1,16.822,22.957Zm4.94-.071a.4.4,0,0,1,.5.39l-.071.035v.071a.44.44,0,0,1-.567.195C21.443,23.382,21.443,22.957,21.762,22.886Zm-5.648.832c-.035-.266.142-.567.443-.443a.436.436,0,0,1,.354.443c.071.159.142.425-.124.5A.57.57,0,0,1,16.114,23.719Zm6.427.124a.405.405,0,0,1,.372.142l.159.159a1.07,1.07,0,0,1,0,.336.383.383,0,0,1-.6.035C22.311,24.3,22.187,23.878,22.541,23.843Zm-6.693,1.31a.77.77,0,0,1-.372-.336c-.089-.142.177-.336.336-.407.142-.035.3.071.407.266.159.106.425.372.071.478A1.81,1.81,0,0,1,15.848,25.153Zm-.814,1.009c-.142-.159-.177-.513,0-.6h.035l-.035-.071h.142c.212.071.513.283.372.513A.491.491,0,0,1,15.034,26.162Zm-.425,1.1a.466.466,0,0,1-.319-.266c0-.106.053-.106.177-.159h0V26.8l.106.035h.159a.262.262,0,0,1,0,.23v.159Z" transform="translate(-8.315 -8.489)" fill="#d9afb1"/>
              </g>
              <g id="Grupo_2-2" data-name="Grupo 2" transform="translate(5.48 19.479)">
                <path id="Trazado_2-2" data-name="Trazado 2" d="M8.872,9.855h0l-.124-.142-.124-.124c0,.23.089.266.283.266Z" transform="translate(-8.624 -9.589)" fill="#d9afb1"/>
              </g>
            </g>
          </g>
        </g>
        <g id="_30_" data-name="30%" transform="translate(683.288 35.539)">
          <text id="_30" data-name="30" transform="translate(12.365 83.696)" fill="#db697f" font-size="76" font-family="OpenSans-Bold, Open Sans" font-weight="700"><tspan x="0" y="0">30</tspan></text>
          <text id="OFF-3" data-name="OFF" transform="translate(104.906 83.559)" fill="#db697f" font-size="12" font-family="OpenSans-Bold, Open Sans" font-weight="700"><tspan x="0" y="0">OFF</tspan></text>
          <text id="_3" data-name="%" transform="translate(100.673 70.047)" fill="#db697f" font-size="36" font-family="OpenSans-Bold, Open Sans" font-weight="700" letter-spacing="-0.02em"><tspan x="0" y="0">%</tspan></text>
          <text id="Compra_mínimo_300.000_y_recibe" data-name="Compra mínimo
$300.000 y recibe" transform="translate(63.035 7)" fill="#8c5152" font-size="8" font-family="Asap-Regular, Asap"><tspan x="-28.448" y="0">Compra mínimo</tspan><tspan font-family="Asap-Bold, Asap" font-weight="700"><tspan x="-30.512" y="9">$300.000 y recibe</tspan></tspan></text>
          <g id="Grupo_6132" data-name="Grupo 6132" transform="translate(12.365 94.828)">
            <rect id="Rectángulo_5-3" data-name="Rectángulo 5" width="118.44" height="14.497" transform="translate(0)" fill="#f59799"/>
            <text id="Con_el_cupón:_HOLY30" data-name="Con el cupón: HOLY30" transform="translate(58.417 10.728)" fill="#fff" font-size="10" font-family="Asap-Bold, Asap" font-weight="700"><tspan x="-49.085" y="0">Con el cupón: </tspan><tspan y="0" fill="#ffeb98">HOLY30</tspan></text>
          </g>
          <path id="Trazado_212" data-name="Trazado 212" d="M171.865,710.961H159.5V623.5h23.227" transform="translate(-159.5 -608.884)" fill="none" stroke="#e8dbdb" stroke-width="4"/>
          <path id="Trazado_211" data-name="Trazado 211" d="M170.362,710.961h12.365V623.5H159.5" transform="translate(-39.379 -608.884)" fill="none" stroke="#e8dbdb" stroke-width="4"/>
          <g id="Grupo_6318" data-name="Grupo 6318" transform="translate(115.234 2.61)">
            <g id="Grupo_6147" data-name="Grupo 6147" transform="translate(13.746 14.808)">
              <path id="Trazado_222" data-name="Trazado 222" d="M29.342,16.964a4.2,4.2,0,0,1,.542-.606,2.334,2.334,0,0,1,1.1-.735V15.7a8.1,8.1,0,0,0-.994.761,5.26,5.26,0,0,0-.826,1.11h-.052a1.2,1.2,0,0,0-.09.374h0a2.272,2.272,0,0,1,1.187-1.11,3.533,3.533,0,0,1,1.69-.7l.052.09a10.892,10.892,0,0,0-1.587.684,2.923,2.923,0,0,0-.748.594.853.853,0,0,0-.219.194c.219-.077.49-.168.594-.194a4.648,4.648,0,0,1,2.1-.4v.052a10.428,10.428,0,0,0-2.7.787,7.223,7.223,0,0,1,.813-.116c.387-.026.774-.026,1.161-.077a2.61,2.61,0,0,0,.9-.052c.826-.439.323-2-.465-2.181-.439-.116-1.445-.09-1.6-.671C29.884,15.571,29.613,16.254,29.342,16.964Z" transform="translate(-29.019 -14.848)" fill="#d9afb1"/>
            </g>
            <g id="Grupo_6148" data-name="Grupo 6148">
              <path id="Trazado_223" data-name="Trazado 223" d="M46,20.728c-.219-.245-.594-.194-.774-.477-.271-.542.181-1.329-.155-1.845-.3-.465-.813-.465-1.174-.826-.31-.387-.232-.761-.361-1.174a.929.929,0,0,0-.865-.8,2.389,2.389,0,0,1-.594-.1,1.723,1.723,0,0,1-.7-.568,1.067,1.067,0,0,0-1.368-.568,1.445,1.445,0,0,1-1.135,0c-.335-.168-.606-.555-.993-.645-.594-.116-.877.271-1.187.645a.9.9,0,0,1-.877.335c-.426-.065-.645-.413-1.1-.413-.671,0-.916.348-1.342.826-.206.194-.3.464-.581.516-.452.168-.994-.219-1.368.194a3.822,3.822,0,0,0-.452,1.161c0,.155-.039.4-.219.452a2.87,2.87,0,0,1-.877.361,1.115,1.115,0,0,0-.774,1.239,3.27,3.27,0,0,1,.219,1.213c-.026.426-.413.529-.71.671a1.365,1.365,0,0,0-.632,1.587c.052.387.5.7.4,1.1-.039.206-.181.31-.181.5a1.208,1.208,0,0,0,.142.9,6.094,6.094,0,0,1,.761,1.2,3.851,3.851,0,0,0,.219,1.187,2.455,2.455,0,0,0,1.471.7c.632.168,1.174.323,1.768.5a23.118,23.118,0,0,1,3.368,1.471,30.078,30.078,0,0,1,3.148,1.948,3.828,3.828,0,0,0,1.213.684.794.794,0,0,0,1.1-.516.549.549,0,0,0,.09-.335,17.624,17.624,0,0,1,1.355-3.471c.7-1.484,1.445-2.955,2.194-4.387.245-.477.568-.968.8-1.458C46.086,22.108,46.474,21.283,46,20.728Zm-1.2-.194a10.361,10.361,0,0,1-.658,1.7,14.3,14.3,0,0,0-.684,1.677,19.416,19.416,0,0,0-.89,3.265A19.555,19.555,0,0,1,41.2,31.773a.976.976,0,0,1-.5.606c-.258.142-.413-.116-.684-.219h-.026A8.963,8.963,0,0,1,38.1,31.115c-.813-.594-1.69-1.29-2.426-1.91a11.928,11.928,0,0,0-2.955-1.7,19.142,19.142,0,0,0-2.89-1.123l.052-.116a13.065,13.065,0,0,1,5.845,2.477c.774.645,1.561,1.329,2.374,1.974.49.3.877.594,1.316.865.271.142.477.271.748.387-1.677-1.342-3.084-2.994-4.619-4.464a10.382,10.382,0,0,0-3.032-2.077,22.5,22.5,0,0,1-3.032-1.6c-.077-.013-.052-.1.026-.052,2.3.852,4.4,1.51,6.168,3.148,1.419,1.458,2.813,3.2,4.31,4.542a24.185,24.185,0,0,0-1.716-2.258c-.929-1.135-1.871-2.219-2.826-3.316a26.551,26.551,0,0,0-3.148-3.11c-.49-.374-.916-.748-1.419-1.135a2.443,2.443,0,0,1-.787-.8c-.026-.026.026-.116.077-.026a5.21,5.21,0,0,0,1.406.968c.49.4.994.723,1.51,1.135A22.246,22.246,0,0,1,36.138,25.8c.955,1.1,1.639,2.49,2.606,3.587.452.5.813,1.084,1.239,1.626-.516-.942-1.058-1.9-1.6-2.839a41.924,41.924,0,0,0-2.89-4.864,30.52,30.52,0,0,0-2.5-3.1c-.426-.4-.826-.877-1.187-1.29a6.917,6.917,0,0,1-.5-.542l.077-.052a4.379,4.379,0,0,1,.684.49c.387.4.826.748,1.239,1.2a33.08,33.08,0,0,1,2.787,3.226,28.019,28.019,0,0,1,1.471,2.645c.4.735.774,1.51,1.187,2.232.335.619.619,1.265.942,1.9-.606-1.51-1.3-2.981-1.819-4.516a25.286,25.286,0,0,0-2-5.2,22.326,22.326,0,0,1-2.3-4c0-.052.039-.09.09,0,.606,1.5,1.884,2.594,2.7,4.013a39.316,39.316,0,0,1,1.91,5.071,39.723,39.723,0,0,0,1.29,3.794c.129.348.335.787.542,1.213-.206-.7-.413-1.329-.632-2.013-.452-1.342-.774-2.658-1.084-4a57.716,57.716,0,0,1-1.794-9.368.052.052,0,1,1,.1,0c.529,3.1,1.3,6.129,2.129,9.226a32.018,32.018,0,0,0,.865,4.181c.3.89.594,1.768.826,2.671-.142-2.3-.723-4.49-.994-6.761-.155-1.523-.323-3.187-.387-4.684-.052-.8-.052-1.587-.116-2.361a9.956,9.956,0,0,1,.348-2.194c0-.052.052-.052.052.026.052.774,0,1.6,0,2.374,0,.748.052,1.51.1,2.258.039,1.587.271,3.226.465,4.826.155,1.5.3,3.006.49,4.516a9.433,9.433,0,0,1,.181,1.187,10.641,10.641,0,0,0,.039-1.69c-.039-1.458-.31-2.89-.4-4.284a16.713,16.713,0,0,1,1.5-8.193c.052-.09.181,0,.116.026a17.752,17.752,0,0,0-1.213,8.439c.064,1.394.181,2.826.181,4.219q0,1.064-.077,2.129a2.043,2.043,0,0,0-.039.49v.077c1.213-4.387.31-9.252,2.516-13.458.077-.09.181-.039.181.026-1.755,4.374-1.381,9.316-2.581,13.793.968-1.523.916-3.342,1.3-5.123a31.807,31.807,0,0,1,.994-3.213,17.636,17.636,0,0,1,1.561-2.981C44.77,20.483,44.861,20.521,44.8,20.534Z" transform="translate(-27.954 -13.7)" fill="#d9afb1"/>
            </g>
            <g id="Grupo_6149" data-name="Grupo 6149" transform="translate(7.436 16.563)">
              <path id="Trazado_224" data-name="Trazado 224" d="M32.22,16.984h0a2.721,2.721,0,0,0-1.677.206,5.7,5.7,0,0,1-1.419.452V17.59a5.413,5.413,0,0,1,1.6-.606,2.815,2.815,0,0,1,1.239-.194l-.077-.052c-.413-.026-.877-.116-1.342-.116a6.75,6.75,0,0,0-1.471.284c-.065.026-.065-.026-.065-.077a4.517,4.517,0,0,1,1.419-.31h.813a5.9,5.9,0,0,1-.826-.31c-.374-.077-.684-.129-1.006-.206a.058.058,0,1,1,0-.116,3.784,3.784,0,0,1,2.065.606v.026l.155.052-.052-.052a23.677,23.677,0,0,0-2.568-1.535c0,.723-.426,1.316-.477,2a1.87,1.87,0,0,0,.387,1.213.919.919,0,0,0,.916.065c.581-.181,1.058-.529,1.639-.748a2.316,2.316,0,0,1,1.226-.219C32.556,17.19,32.388,17.1,32.22,16.984Z" transform="translate(-28.53 -14.984)" fill="#d9afb1"/>
            </g>
          </g>
        </g>
        <g id="_15_" data-name="15%" transform="translate(593.871 165.284)">
          <text id="_15" data-name="15" transform="translate(12.365 81.729)" fill="#db697f" font-size="76" font-family="OpenSans-Bold, Open Sans" font-weight="700"><tspan x="0" y="0">15</tspan></text>
          <text id="OFF-4" data-name="OFF" transform="translate(104.906 81.592)" fill="#db697f" font-size="12" font-family="OpenSans-Bold, Open Sans" font-weight="700"><tspan x="0" y="0">OFF</tspan></text>
          <text id="_4" data-name="%" transform="translate(100.673 68.08)" fill="#db697f" font-size="36" font-family="OpenSans-Bold, Open Sans" font-weight="700" letter-spacing="-0.02em"><tspan x="0" y="0">%</tspan></text>
          <text id="Compra_mínimo_150.000_y_recibe" data-name="Compra mínimo
$150.000 y recibe" transform="translate(67.302 7)" fill="#8c5152" font-size="8" font-family="Asap-Regular, Asap"><tspan x="-28.448" y="0">Compra mínimo</tspan><tspan font-family="Asap-Bold, Asap" font-weight="700"><tspan x="-30.512" y="9">$150.000 y recibe</tspan></tspan></text>
          <g id="Grupo_6319" data-name="Grupo 6319" transform="translate(12.365 92.86)">
            <rect id="Rectángulo_5-4" data-name="Rectángulo 5" width="118.44" height="14.497" transform="translate(0)" fill="#f59799"/>
            <text id="Con_el_cupón:_HOLY15" data-name="Con el cupón: HOLY15" transform="translate(56.489 10.728)" fill="#fff" font-size="10" font-family="Asap-Bold, Asap" font-weight="700"><tspan x="-49.085" y="0">Con el cupón: </tspan><tspan y="0" fill="#ffeb98">HOLY15</tspan></text>
          </g>
          <path id="Trazado_369" data-name="Trazado 369" d="M171.865,710.961H159.5V623.5h23.227" transform="translate(-159.5 -610.852)" fill="none" stroke="#e8dbdb" stroke-width="4"/>
          <path id="Trazado_368" data-name="Trazado 368" d="M170.362,710.961h12.365V623.5H159.5" transform="translate(-39.379 -610.852)" fill="none" stroke="#e8dbdb" stroke-width="4"/>
          <g id="Grupo_6321" data-name="Grupo 6321" transform="translate(115.234 0.643)">
            <g id="Grupo_6147-2" data-name="Grupo 6147" transform="translate(13.746 14.808)">
              <path id="Trazado_222-2" data-name="Trazado 222" d="M29.342,16.964a4.2,4.2,0,0,1,.542-.606,2.334,2.334,0,0,1,1.1-.735V15.7a8.1,8.1,0,0,0-.994.761,5.26,5.26,0,0,0-.826,1.11h-.052a1.2,1.2,0,0,0-.09.374h0a2.272,2.272,0,0,1,1.187-1.11,3.533,3.533,0,0,1,1.69-.7l.052.09a10.892,10.892,0,0,0-1.587.684,2.923,2.923,0,0,0-.748.594.853.853,0,0,0-.219.194c.219-.077.49-.168.594-.194a4.648,4.648,0,0,1,2.1-.4v.052a10.428,10.428,0,0,0-2.7.787,7.223,7.223,0,0,1,.813-.116c.387-.026.774-.026,1.161-.077a2.61,2.61,0,0,0,.9-.052c.826-.439.323-2-.465-2.181-.439-.116-1.445-.09-1.6-.671C29.884,15.571,29.613,16.254,29.342,16.964Z" transform="translate(-29.019 -14.848)" fill="#d9afb1"/>
            </g>
            <g id="Grupo_6148-2" data-name="Grupo 6148">
              <path id="Trazado_223-2" data-name="Trazado 223" d="M46,20.728c-.219-.245-.594-.194-.774-.477-.271-.542.181-1.329-.155-1.845-.3-.465-.813-.465-1.174-.826-.31-.387-.232-.761-.361-1.174a.929.929,0,0,0-.865-.8,2.389,2.389,0,0,1-.594-.1,1.723,1.723,0,0,1-.7-.568,1.067,1.067,0,0,0-1.368-.568,1.445,1.445,0,0,1-1.135,0c-.335-.168-.606-.555-.993-.645-.594-.116-.877.271-1.187.645a.9.9,0,0,1-.877.335c-.426-.065-.645-.413-1.1-.413-.671,0-.916.348-1.342.826-.206.194-.3.464-.581.516-.452.168-.994-.219-1.368.194a3.822,3.822,0,0,0-.452,1.161c0,.155-.039.4-.219.452a2.87,2.87,0,0,1-.877.361,1.115,1.115,0,0,0-.774,1.239,3.27,3.27,0,0,1,.219,1.213c-.026.426-.413.529-.71.671a1.365,1.365,0,0,0-.632,1.587c.052.387.5.7.4,1.1-.039.206-.181.31-.181.5a1.208,1.208,0,0,0,.142.9,6.094,6.094,0,0,1,.761,1.2,3.851,3.851,0,0,0,.219,1.187,2.455,2.455,0,0,0,1.471.7c.632.168,1.174.323,1.768.5a23.118,23.118,0,0,1,3.368,1.471,30.078,30.078,0,0,1,3.148,1.948,3.828,3.828,0,0,0,1.213.684.794.794,0,0,0,1.1-.516.549.549,0,0,0,.09-.335,17.624,17.624,0,0,1,1.355-3.471c.7-1.484,1.445-2.955,2.194-4.387.245-.477.568-.968.8-1.458C46.086,22.108,46.474,21.283,46,20.728Zm-1.2-.194a10.361,10.361,0,0,1-.658,1.7,14.3,14.3,0,0,0-.684,1.677,19.416,19.416,0,0,0-.89,3.265A19.555,19.555,0,0,1,41.2,31.773a.976.976,0,0,1-.5.606c-.258.142-.413-.116-.684-.219h-.026A8.963,8.963,0,0,1,38.1,31.115c-.813-.594-1.69-1.29-2.426-1.91a11.928,11.928,0,0,0-2.955-1.7,19.142,19.142,0,0,0-2.89-1.123l.052-.116a13.065,13.065,0,0,1,5.845,2.477c.774.645,1.561,1.329,2.374,1.974.49.3.877.594,1.316.865.271.142.477.271.748.387-1.677-1.342-3.084-2.994-4.619-4.464a10.382,10.382,0,0,0-3.032-2.077,22.5,22.5,0,0,1-3.032-1.6c-.077-.013-.052-.1.026-.052,2.3.852,4.4,1.51,6.168,3.148,1.419,1.458,2.813,3.2,4.31,4.542a24.185,24.185,0,0,0-1.716-2.258c-.929-1.135-1.871-2.219-2.826-3.316a26.551,26.551,0,0,0-3.148-3.11c-.49-.374-.916-.748-1.419-1.135a2.443,2.443,0,0,1-.787-.8c-.026-.026.026-.116.077-.026a5.21,5.21,0,0,0,1.406.968c.49.4.994.723,1.51,1.135A22.246,22.246,0,0,1,36.138,25.8c.955,1.1,1.639,2.49,2.606,3.587.452.5.813,1.084,1.239,1.626-.516-.942-1.058-1.9-1.6-2.839a41.924,41.924,0,0,0-2.89-4.864,30.52,30.52,0,0,0-2.5-3.1c-.426-.4-.826-.877-1.187-1.29a6.917,6.917,0,0,1-.5-.542l.077-.052a4.379,4.379,0,0,1,.684.49c.387.4.826.748,1.239,1.2a33.08,33.08,0,0,1,2.787,3.226,28.019,28.019,0,0,1,1.471,2.645c.4.735.774,1.51,1.187,2.232.335.619.619,1.265.942,1.9-.606-1.51-1.3-2.981-1.819-4.516a25.286,25.286,0,0,0-2-5.2,22.326,22.326,0,0,1-2.3-4c0-.052.039-.09.09,0,.606,1.5,1.884,2.594,2.7,4.013a39.316,39.316,0,0,1,1.91,5.071,39.723,39.723,0,0,0,1.29,3.794c.129.348.335.787.542,1.213-.206-.7-.413-1.329-.632-2.013-.452-1.342-.774-2.658-1.084-4a57.716,57.716,0,0,1-1.794-9.368.052.052,0,1,1,.1,0c.529,3.1,1.3,6.129,2.129,9.226a32.018,32.018,0,0,0,.865,4.181c.3.89.594,1.768.826,2.671-.142-2.3-.723-4.49-.994-6.761-.155-1.523-.323-3.187-.387-4.684-.052-.8-.052-1.587-.116-2.361a9.956,9.956,0,0,1,.348-2.194c0-.052.052-.052.052.026.052.774,0,1.6,0,2.374,0,.748.052,1.51.1,2.258.039,1.587.271,3.226.465,4.826.155,1.5.3,3.006.49,4.516a9.433,9.433,0,0,1,.181,1.187,10.641,10.641,0,0,0,.039-1.69c-.039-1.458-.31-2.89-.4-4.284a16.713,16.713,0,0,1,1.5-8.193c.052-.09.181,0,.116.026a17.752,17.752,0,0,0-1.213,8.439c.064,1.394.181,2.826.181,4.219q0,1.064-.077,2.129a2.043,2.043,0,0,0-.039.49v.077c1.213-4.387.31-9.252,2.516-13.458.077-.09.181-.039.181.026-1.755,4.374-1.381,9.316-2.581,13.793.968-1.523.916-3.342,1.3-5.123a31.807,31.807,0,0,1,.994-3.213,17.636,17.636,0,0,1,1.561-2.981C44.77,20.483,44.861,20.521,44.8,20.534Z" transform="translate(-27.954 -13.7)" fill="#d9afb1"/>
            </g>
            <g id="Grupo_6149-2" data-name="Grupo 6149" transform="translate(7.436 16.563)">
              <path id="Trazado_224-2" data-name="Trazado 224" d="M32.22,16.984h0a2.721,2.721,0,0,0-1.677.206,5.7,5.7,0,0,1-1.419.452V17.59a5.413,5.413,0,0,1,1.6-.606,2.815,2.815,0,0,1,1.239-.194l-.077-.052c-.413-.026-.877-.116-1.342-.116a6.75,6.75,0,0,0-1.471.284c-.065.026-.065-.026-.065-.077a4.517,4.517,0,0,1,1.419-.31h.813a5.9,5.9,0,0,1-.826-.31c-.374-.077-.684-.129-1.006-.206a.058.058,0,1,1,0-.116,3.784,3.784,0,0,1,2.065.606v.026l.155.052-.052-.052a23.677,23.677,0,0,0-2.568-1.535c0,.723-.426,1.316-.477,2a1.87,1.87,0,0,0,.387,1.213.919.919,0,0,0,.916.065c.581-.181,1.058-.529,1.639-.748a2.316,2.316,0,0,1,1.226-.219C32.556,17.19,32.388,17.1,32.22,16.984Z" transform="translate(-28.53 -14.984)" fill="#d9afb1"/>
            </g>
          </g>
        </g>
        <g id="_10_" data-name="10%" transform="translate(754.962 163.845)">
          <text id="_10" data-name="10" transform="translate(12.365 83.168)" fill="#db697f" font-size="76" font-family="OpenSans-Bold, Open Sans" font-weight="700" letter-spacing="-0.01em"><tspan x="0" y="0">10</tspan></text>
          <text id="OFF-5" data-name="OFF" transform="translate(104.906 83.031)" fill="#db697f" font-size="12" font-family="OpenSans-Bold, Open Sans" font-weight="700"><tspan x="0" y="0">OFF</tspan></text>
          <text id="_5" data-name="%" transform="translate(100.673 69.519)" fill="#db697f" font-size="36" font-family="OpenSans-Bold, Open Sans" font-weight="700" letter-spacing="-0.02em"><tspan x="0" y="0">%</tspan></text>
          <text id="Compra_mínimo_100.000_y_recibe" data-name="Compra mínimo
$100.000 y recibe" transform="translate(67.79 7)" fill="#8c5152" font-size="8" font-family="Asap-Regular, Asap"><tspan x="-28.448" y="0">Compra mínimo</tspan><tspan font-family="Asap-Bold, Asap" font-weight="700"><tspan x="-30.512" y="9">$100.000 y recibe</tspan></tspan></text>
          <g id="Grupo_6323" data-name="Grupo 6323" transform="translate(12.365 94.299)">
            <rect id="Rectángulo_5-5" data-name="Rectángulo 5" width="118.44" height="14.497" transform="translate(0 0)" fill="#f59799"/>
            <text id="Con_el_cupón:_HOLY10" data-name="Con el cupón: HOLY10" transform="translate(57.132 10.285)" fill="#fff" font-size="10" font-family="Asap-Bold, Asap" font-weight="700"><tspan x="-49.085" y="0">Con el cupón: </tspan><tspan y="0" fill="#ffeb98">HOLY10</tspan></text>
          </g>
          <path id="Trazado_373" data-name="Trazado 373" d="M171.865,710.961H159.5V623.5h23.227" transform="translate(-159.5 -609.413)" fill="none" stroke="#e8dbdb" stroke-width="4"/>
          <path id="Trazado_372" data-name="Trazado 372" d="M170.362,710.961h12.365V623.5H159.5" transform="translate(-39.379 -609.413)" fill="none" stroke="#e8dbdb" stroke-width="4"/>
          <g id="Grupo_6324" data-name="Grupo 6324" transform="translate(115.234 2.082)">
            <g id="Grupo_6147-3" data-name="Grupo 6147" transform="translate(13.746 14.808)">
              <path id="Trazado_222-3" data-name="Trazado 222" d="M29.342,16.964a4.2,4.2,0,0,1,.542-.606,2.334,2.334,0,0,1,1.1-.735V15.7a8.1,8.1,0,0,0-.994.761,5.26,5.26,0,0,0-.826,1.11h-.052a1.2,1.2,0,0,0-.09.374h0a2.272,2.272,0,0,1,1.187-1.11,3.533,3.533,0,0,1,1.69-.7l.052.09a10.892,10.892,0,0,0-1.587.684,2.923,2.923,0,0,0-.748.594.853.853,0,0,0-.219.194c.219-.077.49-.168.594-.194a4.648,4.648,0,0,1,2.1-.4v.052a10.428,10.428,0,0,0-2.7.787,7.223,7.223,0,0,1,.813-.116c.387-.026.774-.026,1.161-.077a2.61,2.61,0,0,0,.9-.052c.826-.439.323-2-.465-2.181-.439-.116-1.445-.09-1.6-.671C29.884,15.571,29.613,16.254,29.342,16.964Z" transform="translate(-29.019 -14.848)" fill="#d9afb1"/>
            </g>
            <g id="Grupo_6148-3" data-name="Grupo 6148">
              <path id="Trazado_223-3" data-name="Trazado 223" d="M46,20.728c-.219-.245-.594-.194-.774-.477-.271-.542.181-1.329-.155-1.845-.3-.465-.813-.465-1.174-.826-.31-.387-.232-.761-.361-1.174a.929.929,0,0,0-.865-.8,2.389,2.389,0,0,1-.594-.1,1.723,1.723,0,0,1-.7-.568,1.067,1.067,0,0,0-1.368-.568,1.445,1.445,0,0,1-1.135,0c-.335-.168-.606-.555-.993-.645-.594-.116-.877.271-1.187.645a.9.9,0,0,1-.877.335c-.426-.065-.645-.413-1.1-.413-.671,0-.916.348-1.342.826-.206.194-.3.464-.581.516-.452.168-.994-.219-1.368.194a3.822,3.822,0,0,0-.452,1.161c0,.155-.039.4-.219.452a2.87,2.87,0,0,1-.877.361,1.115,1.115,0,0,0-.774,1.239,3.27,3.27,0,0,1,.219,1.213c-.026.426-.413.529-.71.671a1.365,1.365,0,0,0-.632,1.587c.052.387.5.7.4,1.1-.039.206-.181.31-.181.5a1.208,1.208,0,0,0,.142.9,6.094,6.094,0,0,1,.761,1.2,3.851,3.851,0,0,0,.219,1.187,2.455,2.455,0,0,0,1.471.7c.632.168,1.174.323,1.768.5a23.118,23.118,0,0,1,3.368,1.471,30.078,30.078,0,0,1,3.148,1.948,3.828,3.828,0,0,0,1.213.684.794.794,0,0,0,1.1-.516.549.549,0,0,0,.09-.335,17.624,17.624,0,0,1,1.355-3.471c.7-1.484,1.445-2.955,2.194-4.387.245-.477.568-.968.8-1.458C46.086,22.108,46.474,21.283,46,20.728Zm-1.2-.194a10.361,10.361,0,0,1-.658,1.7,14.3,14.3,0,0,0-.684,1.677,19.416,19.416,0,0,0-.89,3.265A19.555,19.555,0,0,1,41.2,31.773a.976.976,0,0,1-.5.606c-.258.142-.413-.116-.684-.219h-.026A8.963,8.963,0,0,1,38.1,31.115c-.813-.594-1.69-1.29-2.426-1.91a11.928,11.928,0,0,0-2.955-1.7,19.142,19.142,0,0,0-2.89-1.123l.052-.116a13.065,13.065,0,0,1,5.845,2.477c.774.645,1.561,1.329,2.374,1.974.49.3.877.594,1.316.865.271.142.477.271.748.387-1.677-1.342-3.084-2.994-4.619-4.464a10.382,10.382,0,0,0-3.032-2.077,22.5,22.5,0,0,1-3.032-1.6c-.077-.013-.052-.1.026-.052,2.3.852,4.4,1.51,6.168,3.148,1.419,1.458,2.813,3.2,4.31,4.542a24.185,24.185,0,0,0-1.716-2.258c-.929-1.135-1.871-2.219-2.826-3.316a26.551,26.551,0,0,0-3.148-3.11c-.49-.374-.916-.748-1.419-1.135a2.443,2.443,0,0,1-.787-.8c-.026-.026.026-.116.077-.026a5.21,5.21,0,0,0,1.406.968c.49.4.994.723,1.51,1.135A22.246,22.246,0,0,1,36.138,25.8c.955,1.1,1.639,2.49,2.606,3.587.452.5.813,1.084,1.239,1.626-.516-.942-1.058-1.9-1.6-2.839a41.924,41.924,0,0,0-2.89-4.864,30.52,30.52,0,0,0-2.5-3.1c-.426-.4-.826-.877-1.187-1.29a6.917,6.917,0,0,1-.5-.542l.077-.052a4.379,4.379,0,0,1,.684.49c.387.4.826.748,1.239,1.2a33.08,33.08,0,0,1,2.787,3.226,28.019,28.019,0,0,1,1.471,2.645c.4.735.774,1.51,1.187,2.232.335.619.619,1.265.942,1.9-.606-1.51-1.3-2.981-1.819-4.516a25.286,25.286,0,0,0-2-5.2,22.326,22.326,0,0,1-2.3-4c0-.052.039-.09.09,0,.606,1.5,1.884,2.594,2.7,4.013a39.316,39.316,0,0,1,1.91,5.071,39.723,39.723,0,0,0,1.29,3.794c.129.348.335.787.542,1.213-.206-.7-.413-1.329-.632-2.013-.452-1.342-.774-2.658-1.084-4a57.716,57.716,0,0,1-1.794-9.368.052.052,0,1,1,.1,0c.529,3.1,1.3,6.129,2.129,9.226a32.018,32.018,0,0,0,.865,4.181c.3.89.594,1.768.826,2.671-.142-2.3-.723-4.49-.994-6.761-.155-1.523-.323-3.187-.387-4.684-.052-.8-.052-1.587-.116-2.361a9.956,9.956,0,0,1,.348-2.194c0-.052.052-.052.052.026.052.774,0,1.6,0,2.374,0,.748.052,1.51.1,2.258.039,1.587.271,3.226.465,4.826.155,1.5.3,3.006.49,4.516a9.433,9.433,0,0,1,.181,1.187,10.641,10.641,0,0,0,.039-1.69c-.039-1.458-.31-2.89-.4-4.284a16.713,16.713,0,0,1,1.5-8.193c.052-.09.181,0,.116.026a17.752,17.752,0,0,0-1.213,8.439c.064,1.394.181,2.826.181,4.219q0,1.064-.077,2.129a2.043,2.043,0,0,0-.039.49v.077c1.213-4.387.31-9.252,2.516-13.458.077-.09.181-.039.181.026-1.755,4.374-1.381,9.316-2.581,13.793.968-1.523.916-3.342,1.3-5.123a31.807,31.807,0,0,1,.994-3.213,17.636,17.636,0,0,1,1.561-2.981C44.77,20.483,44.861,20.521,44.8,20.534Z" transform="translate(-27.954 -13.7)" fill="#d9afb1"/>
            </g>
            <g id="Grupo_6149-3" data-name="Grupo 6149" transform="translate(7.436 16.563)">
              <path id="Trazado_224-3" data-name="Trazado 224" d="M32.22,16.984h0a2.721,2.721,0,0,0-1.677.206,5.7,5.7,0,0,1-1.419.452V17.59a5.413,5.413,0,0,1,1.6-.606,2.815,2.815,0,0,1,1.239-.194l-.077-.052c-.413-.026-.877-.116-1.342-.116a6.75,6.75,0,0,0-1.471.284c-.065.026-.065-.026-.065-.077a4.517,4.517,0,0,1,1.419-.31h.813a5.9,5.9,0,0,1-.826-.31c-.374-.077-.684-.129-1.006-.206a.058.058,0,1,1,0-.116,3.784,3.784,0,0,1,2.065.606v.026l.155.052-.052-.052a23.677,23.677,0,0,0-2.568-1.535c0,.723-.426,1.316-.477,2a1.87,1.87,0,0,0,.387,1.213.919.919,0,0,0,.916.065c.581-.181,1.058-.529,1.639-.748a2.316,2.316,0,0,1,1.226-.219C32.556,17.19,32.388,17.1,32.22,16.984Z" transform="translate(-28.53 -14.984)" fill="#d9afb1"/>
            </g>
          </g>
        </g>
      </g>
      <g id="Grupo_6343" data-name="Grupo 6343" transform="translate(120.505 432.868)">
        <g transform="matrix(1, 0, 0, 1, -120.51, -432.87)" filter="url(#Trazado_45)">
          <path id="Trazado_45-2" data-name="Trazado 45" d="M25.561,0H214.806c14.117,0,25.561,13.555,25.561,30.277s-11.444,30.277-25.561,30.277H25.561C11.444,60.553,0,47,0,30.277S11.444,0,25.561,0Z" transform="translate(120.51 432.87)" fill="#895967"/>
        </g>
        <text id="_Compra_ya_" data-name="¡Compra ya!" transform="translate(202 38.25)" fill="#fff" font-size="28" font-family="OpenSans-Bold, Open Sans" font-weight="700"><tspan x="-166.154" y="0">¡Compra ya!</tspan></text>
      </g>
      <text id="_APLICAN_TÉRMINOS_Y_CONDICIONES._PROMOCIÓN_NO_VÁLIDA_EN_SECADORES_NI_PLANCHAS_PARA_EL_CABELLO._Promoción_válida_hasta_el_30_de_Junio_de_2021." data-name="*APLICAN TÉRMINOS Y CONDICIONES. PROMOCIÓN NO VÁLIDA
EN SECADORES NI PLANCHAS PARA EL CABELLO.
Promoción válida hasta el 30 de Junio de 2021." transform="translate(250 522)" fill="#db697f" font-size="10" font-family="OpenSans-Bold, Open Sans" font-weight="700"><tspan x="-156.399" y="0">*APLICAN TÉRMINOS Y CONDICIONES. PROMOCIÓN NO VÁLIDA</tspan><tspan x="-118.613" y="14">EN SECADORES NI PLANCHAS PARA EL CABELLO.</tspan><tspan x="-114.578" y="28">Promoción válida hasta el 30 de Junio de 2021.</tspan></text>
    </g>
  </g>
</svg>
