<?xml version="1.0" encoding="utf-8"?>
<!-- Generator: Adobe Illustrator 25.2.3, SVG Export Plug-In . SVG Version: 6.00 Build 0)  -->
<svg version="1.1" id="Capa_1" xmlns="http://www.w3.org/2000/svg" xmlns:xlink="http://www.w3.org/1999/xlink" x="0px" y="0px"
	 viewBox="0 0 1571 456" style="enable-background:new 0 0 1571 456;" xml:space="preserve">
<style type="text/css">
	.st0{fill:#AB8759;}
	.st1{fill:#FFFFFF;}
	.st2{fill:#C5A592;}
</style>
<g>
	<g>
		<path class="st0" d="M146.84,179.73c0,63,51.25,114.26,114.26,114.26s114.26-51.25,114.26-114.26S324.1,65.47,261.1,65.47
			S146.84,116.73,146.84,179.73z M261.1,80.71c54.6,0,99.02,44.42,99.02,99.02s-44.42,99.02-99.02,99.02s-99.02-44.42-99.02-99.02
			S206.5,80.71,261.1,80.71z"/>
		<path class="st0" d="M190.56,166.15l29.53,29.09l-6.79,40.89c-0.47,2.85,0.7,5.72,3.04,7.41c2.33,1.7,5.42,1.93,7.99,0.6
			l36.79-19.1l36.78,19.1c2.54,1.32,5.63,1.11,7.99-0.6c2.34-1.7,3.51-4.56,3.04-7.41l-6.79-40.89l29.53-29.09
			c2.06-2.02,2.79-5.03,1.9-7.78c-0.89-2.74-3.26-4.75-6.11-5.18l-40.97-6.17l-18.54-37.08c-1.29-2.58-3.93-4.21-6.81-4.21
			c-2.89,0-5.52,1.63-6.81,4.21l-18.54,37.08l-40.97,6.17c-2.85,0.43-5.22,2.43-6.11,5.18C187.77,161.11,188.5,164.13,190.56,166.15
			z M241.92,161.5c2.45-0.37,4.57-1.91,5.68-4.12l13.49-26.99l13.49,26.99c1.11,2.22,3.23,3.75,5.68,4.12l29.82,4.49l-21.49,21.17
			c-1.76,1.74-2.57,4.23-2.17,6.68l4.95,29.76l-26.77-13.9c-1.1-0.57-2.3-0.86-3.51-0.86s-2.41,0.29-3.51,0.86l-26.77,13.9
			l4.95-29.76c0.41-2.45-0.4-4.94-2.17-6.68l-21.49-21.17L241.92,161.5z"/>
		<path class="st0" d="M225.2,39.49c-64.08,16.36-108.83,74.02-108.83,140.23c0,41.12,17.29,79.87,47.64,107.31l-45.89,80.88
			c-1.48,2.6-1.29,5.83,0.47,8.24c1.76,2.42,4.77,3.58,7.7,2.97l52.11-10.82l18.32,51.61c0.99,2.81,3.54,4.78,6.51,5.04
			c2.97,0.26,5.82-1.23,7.29-3.82l50.57-88.91l50.57,88.91c1.36,2.4,3.9,3.85,6.62,3.85c0.22,0,0.45-0.01,0.67-0.03
			c2.97-0.26,5.51-2.23,6.51-5.04l18.31-51.61l52.11,10.82c2.93,0.61,5.94-0.56,7.7-2.97c1.76-2.42,1.95-5.64,0.47-8.24
			l-45.89-80.88c30.35-27.44,47.64-66.19,47.64-107.31c0-66.21-44.75-123.88-108.82-140.23c-4.08-1.04-8.22,1.42-9.27,5.5
			s1.42,8.22,5.5,9.27c57.32,14.63,97.36,66.23,97.36,125.47c0,72.1-58.56,129.49-129.49,129.49
			c-70.98,0-129.49-57.43-129.49-129.49c0-59.24,40.03-110.84,97.36-125.47c4.08-1.04,6.54-5.19,5.5-9.27
			C233.42,40.91,229.28,38.45,225.2,39.49z M205.52,399.14l-14.97-42.18c-1.27-3.59-5-5.69-8.73-4.91l-42.14,8.75L176,296.79
			c21.18,15.39,46.25,24.77,72.32,27.09L205.52,399.14z M340.37,352.05c-3.73-0.77-7.45,1.32-8.73,4.91l-14.97,42.18l-42.81-75.26
			c26.08-2.32,51.15-11.7,72.33-27.09l36.32,64.01L340.37,352.05z"/>
	</g>
	<path class="st0" d="M227.81,54.56c0,0,29.58-7.79,67.27,0.19c6.09-12.76,6.16-14.1,6.16-14.1c-0.93,0-36.49-11.37-78.2-0.59
		C219.79,49.74,227.81,54.56,227.81,54.56z"/>
</g>
<g>
	<path class="st0" d="M581.36,139.83h-27.91v15.3h24.68v14.23h-24.68v16.6h27.91v14.76h-46.34v-75.66h46.34V139.83z"/>
	<path class="st0" d="M617.35,184.02l-9.7,16.7h-19.94l19.83-30.72l-20.37-29.42h20.69l11.53,16.6l9.7-16.6h19.94l-20.15,30.28
		l20.69,29.85h-20.69L617.35,184.02z"/>
	<path class="st0" d="M683.21,139.72c15.09,0,25.76,8.3,28.88,22.63h-19.61c-1.51-4.2-4.53-6.9-9.59-6.9
		c-6.57,0-11.1,5.17-11.1,15.2c0,10.02,4.53,15.2,11.1,15.2c5.06,0,7.97-2.48,9.59-6.9h19.61c-3.12,13.9-13.79,22.63-28.88,22.63
		c-17.67,0-30.18-11.85-30.18-30.93C653.03,151.68,665.53,139.72,683.21,139.72z"/>
	<path class="st0" d="M748.63,201.58c-17.67,0-30.39-11.85-30.39-30.93c0-19.08,12.5-30.93,30.39-30.93
		c17.57,0,29.96,11.64,29.96,29.96c0,1.72-0.11,3.56-0.32,5.39h-41.71c0.65,7.87,5.5,11.53,11.42,11.53c5.17,0,8.08-2.59,9.59-5.82
		h19.62C774.28,192.53,763.61,201.58,748.63,201.58z M736.66,164.83h23.06c0-6.57-5.17-10.35-11.32-10.35
		C742.38,154.49,737.74,158.15,736.66,164.83z"/>
	<path class="st0" d="M788.29,120.97h18.43v79.75h-18.43V120.97z"/>
	<path class="st0" d="M846.81,201.58c-17.67,0-30.39-11.85-30.39-30.93c0-19.08,12.5-30.93,30.39-30.93
		c17.57,0,29.96,11.64,29.96,29.96c0,1.72-0.11,3.56-0.32,5.39h-41.71c0.65,7.87,5.5,11.53,11.42,11.53c5.17,0,8.08-2.59,9.59-5.82
		h19.62C872.46,192.53,861.79,201.58,846.81,201.58z M834.85,164.83h23.06c0-6.57-5.17-10.35-11.32-10.35
		C840.56,154.49,835.93,158.15,834.85,164.83z"/>
	<path class="st0" d="M927.97,168.07c0-8.19-4.53-12.72-11.53-12.72c-7,0-11.53,4.53-11.53,12.72v32.66h-18.43v-60.14h18.43v7.98
		c3.66-5.07,10.13-8.62,18.21-8.62c13.9,0,23.17,9.48,23.17,25.65v35.13h-18.32V168.07z"/>
	<path class="st0" d="M962.03,155.89h-7.33v-15.3h7.33v-14.66h18.43v14.66h12.07v15.3h-12.07v24.14c0,3.56,1.51,5.07,5.6,5.07h6.57
		v15.63h-9.38c-12.5,0-21.23-5.28-21.23-20.91V155.89z"/>
	<path class="st0" d="M1029.6,201.58c-17.67,0-30.39-11.85-30.39-30.93c0-19.08,12.5-30.93,30.39-30.93
		c17.57,0,29.96,11.64,29.96,29.96c0,1.72-0.11,3.56-0.32,5.39h-41.71c0.65,7.87,5.5,11.53,11.42,11.53c5.17,0,8.08-2.59,9.59-5.82
		h19.62C1055.25,192.53,1044.58,201.58,1029.6,201.58z M1017.64,164.83h23.06c0-6.57-5.17-10.35-11.32-10.35
		C1023.35,154.49,1018.72,158.15,1017.64,164.83z"/>
	<path class="st0" d="M1118.62,139.72c15.09,0,25.76,8.3,28.88,22.63h-19.61c-1.51-4.2-4.53-6.9-9.59-6.9
		c-6.57,0-11.1,5.17-11.1,15.2c0,10.02,4.53,15.2,11.1,15.2c5.07,0,7.97-2.48,9.59-6.9h19.61c-3.12,13.9-13.79,22.63-28.88,22.63
		c-17.67,0-30.18-11.85-30.18-30.93C1088.45,151.68,1100.95,139.72,1118.62,139.72z"/>
	<path class="st0" d="M1180.17,139.72c8.95,0,15.3,4.1,18.54,9.38v-8.51h18.43v60.14h-18.43v-8.51c-3.34,5.28-9.7,9.38-18.64,9.38
		c-14.66,0-26.4-12.07-26.4-31.04C1153.65,151.58,1165.4,139.72,1180.17,139.72z M1185.55,155.78c-6.9,0-13.15,5.17-13.15,14.77
		s6.25,14.98,13.15,14.98c7.01,0,13.15-5.28,13.15-14.87C1198.7,161.06,1192.56,155.78,1185.55,155.78z"/>
	<path class="st0" d="M1230.5,120.97h18.43v79.75h-18.43V120.97z"/>
	<path class="st0" d="M1260.57,124.42c0-5.6,4.42-10.02,10.99-10.02c6.47,0,10.88,4.42,10.88,10.02c0,5.5-4.42,9.92-10.88,9.92
		C1264.99,134.33,1260.57,129.91,1260.57,124.42z M1262.29,140.58h18.43v60.14h-18.43V140.58z"/>
	<path class="st0" d="M1316.93,139.72c7.98,0,14.87,3.66,18.54,9.16v-27.91h18.43v79.75h-18.43v-8.62c-3.34,5.5-9.7,9.48-18.54,9.48
		c-14.76,0-26.51-12.07-26.51-31.04C1290.42,151.58,1302.17,139.72,1316.93,139.72z M1322.32,155.78c-6.9,0-13.15,5.17-13.15,14.77
		s6.25,14.98,13.15,14.98c7.01,0,13.15-5.28,13.15-14.87C1335.47,161.06,1329.33,155.78,1322.32,155.78z"/>
	<path class="st0" d="M1390.11,139.72c8.95,0,15.3,4.1,18.54,9.38v-8.51h18.43v60.14h-18.43v-8.51c-3.34,5.28-9.7,9.38-18.64,9.38
		c-14.66,0-26.4-12.07-26.4-31.04C1363.6,151.58,1375.35,139.72,1390.11,139.72z M1395.5,155.78c-6.9,0-13.15,5.17-13.15,14.77
		s6.25,14.98,13.15,14.98c7.01,0,13.15-5.28,13.15-14.87C1408.65,161.06,1402.51,155.78,1395.5,155.78z"/>
	<path class="st0" d="M1463.29,139.72c7.98,0,14.87,3.66,18.54,9.16v-27.91h18.43v79.75h-18.43v-8.62c-3.34,5.5-9.7,9.48-18.54,9.48
		c-14.76,0-26.51-12.07-26.51-31.04C1436.78,151.58,1448.53,139.72,1463.29,139.72z M1468.68,155.78c-6.9,0-13.15,5.17-13.15,14.77
		s6.25,14.98,13.15,14.98c7.01,0,13.15-5.28,13.15-14.87C1481.83,161.06,1475.69,155.78,1468.68,155.78z"/>
</g>
<g>
	<g>
		<path class="st2" d="M551.51,272.83h-8.04l-3.12,17.46h-5.46l7.44-41.82h13.5c9.84,0,13.44,5.4,12.24,12.24
			C566.99,267.07,561.83,272.83,551.51,272.83z M552.29,268.51c6.24,0,9.36-3.12,10.2-7.8c0.9-4.86-1.2-7.92-7.44-7.92h-8.04
			l-2.76,15.72H552.29z"/>
		<path class="st2" d="M575.09,290.29h-5.46l5.82-32.88h5.46l-1.08,6.24c2.58-4.2,6.6-6.84,11.82-6.84l-1.02,5.64h-1.44
			c-5.22,0-9.54,2.34-10.92,9.96L575.09,290.29z"/>
		<path class="st2" d="M606.47,290.83c-8.34,0-13.92-5.46-13.92-13.68c0-11.22,8.4-20.28,19.8-20.28c8.34,0,14.1,5.4,14.1,13.74
			C626.45,281.89,617.81,290.83,606.47,290.83z M607.13,286.21c7.98,0,13.68-7.26,13.68-15.3c0-6.36-4.26-9.42-9.24-9.42
			c-8.04,0-13.38,7.26-13.38,15.42C598.19,283.09,602.21,286.21,607.13,286.21z"/>
		<path class="st2" d="M649.97,256.87c5.16,0,9.36,2.64,11.04,6.42l3.06-17.4h5.52l-7.86,44.4h-5.52l1.14-6.18
			c-2.64,3.66-7.44,6.72-13.44,6.72c-8.82,0-14.46-6.9-12.66-17.1C633.05,263.47,641.03,256.87,649.97,256.87z M650.15,261.61
			c-6,0-11.94,4.38-13.26,12.12c-1.38,7.74,2.94,12.3,8.94,12.3s11.94-4.5,13.32-12.24C660.53,266.17,656.15,261.61,650.15,261.61z"
			/>
		<path class="st2" d="M700.13,290.29h-5.46l0.84-4.8c-2.7,3.42-7.08,5.28-11.4,5.28c-7.56,0-12.66-4.68-11.04-14.1l3.42-19.26h5.4
			l-3.24,18.54c-1.14,6.66,1.86,10.08,7.38,10.08c5.58,0,10.08-3.48,11.22-10.56v0.18l3.24-18.24h5.46L700.13,290.29z"/>
		<path class="st2" d="M729.29,256.87c8.16,0,12.72,4.2,13.2,11.1h-5.88c-0.42-3.96-3.3-6.48-8.16-6.48c-6,0-11.22,4.26-12.6,12.3
			c-1.44,8.16,2.28,12.42,8.28,12.42c4.8,0,8.46-2.34,10.38-6.48h5.88c-2.82,6.54-8.94,11.1-17.1,11.1
			c-9.36,0-14.94-6.6-13.08-17.04C712.07,263.47,719.93,256.87,729.29,256.87z"/>
		<path class="st2" d="M751.97,261.91h-4.2l0.78-4.5h4.26l1.44-8.28h5.52l-1.44,8.28h8.52l-0.78,4.5h-8.58l-3.42,19.38
			c-0.6,3.24,0.42,4.38,3.78,4.38h4.02l-0.84,4.62h-4.92c-5.82,0-8.7-2.4-7.56-9L751.97,261.91z"/>
		<path class="st2" d="M782.09,290.83c-8.34,0-13.92-5.46-13.92-13.68c0-11.22,8.4-20.28,19.8-20.28c8.34,0,14.1,5.4,14.1,13.74
			C802.07,281.89,793.43,290.83,782.09,290.83z M782.75,286.21c7.98,0,13.68-7.26,13.68-15.3c0-6.36-4.26-9.42-9.24-9.42
			c-8.04,0-13.38,7.26-13.38,15.42C773.81,283.09,777.83,286.21,782.75,286.21z"/>
		<path class="st2" d="M817.61,290.83c-7.14,0-12.42-3.96-11.7-10.2h5.34c-0.3,3.36,2.1,5.82,6.66,5.82c4.32,0,7.5-1.74,7.5-4.92
			c0-6.72-16.62-4.5-16.62-15.24c0-5.64,5.22-9.42,12.54-9.42c7.14,0,12.24,4.14,11.46,10.32h-5.22c0.42-3.6-2.34-5.94-6.6-5.94
			c-3.9,0-6.72,1.86-6.72,4.86c0,7.08,16.56,4.92,16.56,15.24C830.81,287.23,825.17,290.83,817.61,290.83z"/>
		<path class="st2" d="M874.73,256.87c5.94,0,9.78,3,11.04,6.54l1.08-6h5.52l-5.94,33.6c-1.62,9.06-8.82,15.48-18.42,15.48
			c-8.64,0-14.1-4.38-13.92-11.4h5.46c0.48,3.96,3.9,6.66,9.3,6.66c5.82,0,10.86-3.72,12.12-10.74l1.2-6.9
			c-2.64,3.54-7.44,6.72-13.44,6.72c-8.82,0-14.46-6.9-12.66-17.1C857.87,263.47,865.85,256.87,874.73,256.87z M874.97,261.61
			c-6,0-11.94,4.38-13.26,12.12c-1.38,7.74,2.94,12.3,8.94,12.3s11.94-4.5,13.32-12.24C885.35,266.17,880.97,261.61,874.97,261.61z"
			/>
		<path class="st2" d="M915.29,256.87c6.12,0,9.72,3.12,11.04,6.54l1.08-6h5.52l-5.82,32.88h-5.52l1.14-6.12
			c-2.64,3.54-7.44,6.66-13.5,6.66c-8.76,0-14.4-6.9-12.6-17.1C898.43,263.47,906.41,256.87,915.29,256.87z M915.53,261.61
			c-6,0-11.94,4.38-13.26,12.12c-1.38,7.74,2.94,12.3,8.94,12.3s11.94-4.5,13.32-12.24C925.91,266.17,921.53,261.61,915.53,261.61z"
			/>
		<path class="st2" d="M941.81,290.29h-5.46l5.82-32.88h5.46l-1.08,6.24c2.58-4.2,6.6-6.84,11.82-6.84l-1.02,5.64h-1.44
			c-5.22,0-9.54,2.34-10.92,9.96L941.81,290.29z"/>
		<path class="st2" d="M978.23,256.87c6.12,0,9.72,3.12,11.04,6.54l1.08-6h5.52l-5.82,32.88h-5.52l1.14-6.12
			c-2.64,3.54-7.44,6.66-13.5,6.66c-8.76,0-14.4-6.9-12.6-17.1C961.37,263.47,969.35,256.87,978.23,256.87z M978.47,261.61
			c-6,0-11.94,4.38-13.26,12.12c-1.38,7.74,2.94,12.3,8.94,12.3s11.94-4.5,13.32-12.24C988.85,266.17,984.47,261.61,978.47,261.61z"
			/>
		<path class="st2" d="M1026.65,271.69c1.14-6.72-1.86-10.14-7.38-10.14c-5.58,0-10.02,3.48-11.28,10.56v-0.12l-3.24,18.3h-5.46
			l5.82-32.88h5.46l-0.84,4.74c2.76-3.48,7.08-5.34,11.52-5.34c7.56,0,12.6,4.68,10.92,14.1l-3.42,19.38h-5.4L1026.65,271.69z"/>
		<path class="st2" d="M1043.87,261.91h-4.2l0.78-4.5h4.26l1.44-8.28h5.52l-1.44,8.28h8.52l-0.78,4.5h-8.58l-3.42,19.38
			c-0.6,3.24,0.42,4.38,3.78,4.38h4.02l-0.84,4.62h-4.92c-5.82,0-8.7-2.4-7.56-9L1043.87,261.91z"/>
		<path class="st2" d="M1065.35,257.41h5.46l-5.82,32.88h-5.46L1065.35,257.41z M1066.07,248.35c0.36-2.1,2.28-3.72,4.32-3.72
			c2.04,0,3.36,1.62,3,3.72c-0.36,2.1-2.28,3.72-4.32,3.72S1065.71,250.45,1066.07,248.35z"/>
		<path class="st2" d="M1099.37,261.85l-20.16,23.94h16.14l-0.84,4.5h-22.38l0.78-4.5l20.22-23.94h-15.84l0.78-4.44h22.08
			L1099.37,261.85z"/>
		<path class="st2" d="M1121.08,256.87c6.12,0,9.72,3.12,11.04,6.54l1.08-6h5.52l-5.82,32.88h-5.52l1.14-6.12
			c-2.64,3.54-7.44,6.66-13.5,6.66c-8.76,0-14.4-6.9-12.6-17.1C1104.23,263.47,1112.21,256.87,1121.08,256.87z M1121.32,261.61
			c-6,0-11.94,4.38-13.26,12.12c-1.38,7.74,2.94,12.3,8.94,12.3s11.94-4.5,13.32-12.24C1131.7,266.17,1127.32,261.61,1121.32,261.61
			z"/>
		<path class="st2" d="M1161.7,256.87c5.16,0,9.36,2.64,11.04,6.42l3.06-17.4h5.52l-7.86,44.4h-5.52l1.14-6.18
			c-2.64,3.66-7.44,6.72-13.44,6.72c-8.82,0-14.46-6.9-12.66-17.1C1144.79,263.47,1152.76,256.87,1161.7,256.87z M1161.88,261.61
			c-6,0-11.94,4.38-13.26,12.12c-1.38,7.74,2.94,12.3,8.94,12.3s11.94-4.5,13.32-12.24
			C1172.26,266.17,1167.88,261.61,1161.88,261.61z"/>
		<path class="st2" d="M1197.16,290.83c-8.34,0-13.92-5.46-13.92-13.68c0-11.22,8.4-20.28,19.8-20.28c8.34,0,14.1,5.4,14.1,13.74
			C1217.14,281.89,1208.5,290.83,1197.16,290.83z M1197.82,286.21c7.98,0,13.68-7.26,13.68-15.3c0-6.36-4.26-9.42-9.24-9.42
			c-8.04,0-13.38,7.26-13.38,15.42C1188.88,283.09,1192.9,286.21,1197.82,286.21z"/>
		<path class="st2" d="M1232.68,290.83c-7.14,0-12.42-3.96-11.7-10.2h5.34c-0.3,3.36,2.1,5.82,6.66,5.82c4.32,0,7.5-1.74,7.5-4.92
			c0-6.72-16.62-4.5-16.62-15.24c0-5.64,5.22-9.42,12.54-9.42c7.14,0,12.24,4.14,11.46,10.32h-5.22c0.42-3.6-2.34-5.94-6.6-5.94
			c-3.9,0-6.72,1.86-6.72,4.86c0,7.08,16.56,4.92,16.56,15.24C1245.88,287.23,1240.24,290.83,1232.68,290.83z"/>
		<path class="st2" d="M536.81,329.41h6.06l5.58,26.52l14.94-26.52h5.64l-28.32,48.36h-5.7l9.3-15.84L536.81,329.41z"/>
		<path class="st2" d="M606.11,328.87c5.16,0,9.36,2.64,11.04,6.42l3.06-17.4h5.52l-7.86,44.4h-5.52l1.14-6.18
			c-2.64,3.66-7.44,6.72-13.44,6.72c-8.82,0-14.46-6.9-12.66-17.1C589.19,335.47,597.17,328.87,606.11,328.87z M606.29,333.61
			c-6,0-11.94,4.38-13.26,12.12c-1.38,7.74,2.94,12.3,8.94,12.3s11.94-4.5,13.32-12.24C616.67,338.17,612.29,333.61,606.29,333.61z"
			/>
		<path class="st2" d="M641.27,362.83c-9.36,0-15.18-6.6-13.32-17.04c1.86-10.38,9.72-16.92,19.26-16.92s14.64,6.72,13.08,15.6
			c-0.18,1.14-0.42,2.1-0.78,3.24h-26.28c-0.84,6.72,3.18,10.5,8.88,10.5c4.92,0,8.46-2.52,10.26-6.06h5.88
			C655.49,358.15,649.43,362.83,641.27,362.83z M633.95,343.75h20.82c1.2-6.72-2.94-10.26-8.58-10.26
			C640.79,333.49,635.63,337.15,633.95,343.75z"/>
		<path class="st2" d="M702.11,328.87c8.16,0,12.72,4.2,13.2,11.1h-5.88c-0.42-3.96-3.3-6.48-8.16-6.48c-6,0-11.22,4.26-12.6,12.3
			c-1.44,8.16,2.28,12.42,8.28,12.42c4.8,0,8.46-2.34,10.38-6.48h5.88c-2.82,6.54-8.94,11.1-17.1,11.1
			c-9.36,0-14.94-6.6-13.08-17.04C684.89,335.47,692.75,328.87,702.11,328.87z"/>
		<path class="st2" d="M738.11,328.87c6.12,0,9.72,3.12,11.04,6.54l1.08-6h5.52l-5.82,32.88h-5.52l1.14-6.12
			c-2.64,3.54-7.44,6.66-13.5,6.66c-8.76,0-14.4-6.9-12.6-17.1C721.25,335.47,729.23,328.87,738.11,328.87z M738.35,333.61
			c-6,0-11.94,4.38-13.26,12.12c-1.38,7.74,2.94,12.3,8.94,12.3s11.94-4.5,13.32-12.24C748.73,338.17,744.35,333.61,738.35,333.61z"
			/>
		<path class="st2" d="M767.03,317.89h5.46l-7.86,44.4h-5.46L767.03,317.89z"/>
		<path class="st2" d="M779.75,329.41h5.46l-5.82,32.88h-5.46L779.75,329.41z M780.47,320.35c0.36-2.1,2.28-3.72,4.32-3.72
			c2.04,0,3.36,1.62,3,3.72c-0.36,2.1-2.28,3.72-4.32,3.72S780.11,322.45,780.47,320.35z"/>
		<path class="st2" d="M808.25,328.87c5.16,0,9.36,2.64,11.04,6.42l3.06-17.4h5.52l-7.86,44.4h-5.52l1.14-6.18
			c-2.64,3.66-7.44,6.72-13.44,6.72c-8.82,0-14.46-6.9-12.66-17.1C791.33,335.47,799.31,328.87,808.25,328.87z M808.42,333.61
			c-6,0-11.94,4.38-13.26,12.12c-1.38,7.74,2.94,12.3,8.94,12.3s11.94-4.5,13.32-12.24C818.8,338.17,814.42,333.61,808.42,333.61z"
			/>
		<path class="st2" d="M848.75,328.87c6.12,0,9.72,3.12,11.04,6.54l1.08-6h5.52l-5.82,32.88h-5.52l1.14-6.12
			c-2.64,3.54-7.44,6.66-13.5,6.66c-8.76,0-14.4-6.9-12.6-17.1C831.89,335.47,839.87,328.87,848.75,328.87z M848.98,333.61
			c-6,0-11.94,4.38-13.26,12.12c-1.38,7.74,2.94,12.3,8.94,12.3s11.94-4.5,13.32-12.24C859.36,338.17,854.98,333.61,848.98,333.61z"
			/>
		<path class="st2" d="M889.36,328.87c5.16,0,9.36,2.64,11.04,6.42l3.06-17.4h5.52l-7.86,44.4h-5.52l1.14-6.18
			c-2.64,3.66-7.44,6.72-13.44,6.72c-8.82,0-14.46-6.9-12.66-17.1C872.45,335.47,880.42,328.87,889.36,328.87z M889.54,333.61
			c-6,0-11.94,4.38-13.26,12.12c-1.38,7.74,2.94,12.3,8.94,12.3s11.94-4.5,13.32-12.24C899.92,338.17,895.54,333.61,889.54,333.61z"
			/>
	</g>
</g>
</svg>
