<svg xmlns="http://www.w3.org/2000/svg" xmlns:xlink="http://www.w3.org/1999/xlink" width="1400" height="450" viewBox="0 0 1400 450">
  <defs>
    <clipPath id="clip-path">
      <rect id="Rectángulo_15" data-name="Rectángulo 15" width="1400" height="450" rx="30" fill="#fff"/>
    </clipPath>
    <filter id="Trazado_45" x="152.505" y="254.868" width="258.367" height="78.553" filterUnits="userSpaceOnUse">
      <feOffset dy="3" input="SourceAlpha"/>
      <feGaussianBlur stdDeviation="3" result="blur"/>
      <feFlood flood-opacity="0.161"/>
      <feComposite operator="in" in2="blur"/>
      <feComposite in="SourceGraphic"/>
    </filter>
  </defs>
  <g id="Enmascarar_grupo_3" data-name="Enmascarar grupo 3" clip-path="url(#clip-path)">
    <rect id="Rectángulo_10" data-name="Rectángulo 10" width="1400" height="450" fill="#fffaef"/>
    <path id="Trazado_403" data-name="Trazado 403" d="M2061.264-103.9c-23.512,44.453-35.5,109.389-12.656,154.646,5.2,10.308,14.9,19.32,20.941,25.58-.625-11.608.248-23.046-5.278-33.485-5.242-9.9-13.079-18.272-19.337-27.509-7.129-10.525-7.541-23.948-6.031-36.175,1.339,12.417,10.218,18.655,33.022,38.133,7.848,6.7,10.513-6.6-5.751-16.19-8.809-5.191-21.9-8.893-25.632-25.661-1.1-4.921,1.432-16.773,3.012-24.259,1.7,13.19,10.525,25.048,21.54,32.779,12.262,8.606,26.974,12.9,41.511,16.52-11.782-9.14-14.493-16.887-21.939-23.588-10.931-9.836-28.286-12.311-36.333-25.154-3.729-5.952-2.182-12.055-.377-18.309a168.953,168.953,0,0,1,11.113-29.122c-14.488,39.286,9.866,51.9,26.242,45.632,12.711-4.863,21.249-19.876,35.436-20.306-25.366-6.621-38.167,4.15-47.208,3.485-5.89-.433-10.983-4.954-13.175-10.438-5.362-13.412,5.278-31.528,13.932-42.99-6.5,23.724,28.394,35.146,50.858,35.652,6.578.148,15,.335,21.52.08-4.627-.8-7.584-5.171-10.748-8.641a36.91,36.91,0,0,0-27.635-11.87c-6.836.138-27.782,5.673-32.26-7.97-2.848-8.68,6.716-21.009,14.69-33-3.752,11.77,7.224,17.419,18.579,13.345,4.271-1.532,8.252-3.788,12.522-5.32a22.927,22.927,0,0,0-19.789-1.294c-2.077.853-4.218,2.044-6.427,1.632-13.554-2.53,21.67-45.278,24.954-67.762,1.291-8.836-3.886-8-4.531-3.834C2110.258-171.9,2080.208-139.73,2061.264-103.9Z" transform="matrix(0.883, 0.469, -0.469, 0.883, -1825.255, -887.513)" fill="#81c0af" style="mix-blend-mode: multiply;isolation: isolate"/>
    <path id="Trazado_407" data-name="Trazado 407" d="M1936.967,885.828c-23.774-28.421-44.375-31.15-66.119-35.035-53.4-9.62-80.261,8.426-115.944,28.983-28.4,16.381-56.464,27.172-71.36,70.5-4.3,12.45-6.161,30.029-5.843,41.19.971,30.52,9.165,75.486,36.144,91.52,1.719,7.07,4.93,16.9,9.191,23.016,5.258,7.641,37.283,35.618,51.17,42.218a161.581,161.581,0,0,0,38.449,12.7c14.315,2.67,20.487.152,29.545-2.867,11.681-3.822,9.65-4.378,20.641-10.17,14.566-6.518,33.687-10.4,49.806-19.324,39.474-21.84,43.236-50.036,57.347-75.79,7.005-12.679,16.169-24.824,14.052-55.8C1981.481,958.519,1968.993,923.836,1936.967,885.828ZM1707.956,943.87c16.928-39.413,62.7-64.657,87.481-68.815-6.557,3.679-20.35,13.181-34.582,25.459-28.146,14.149-40.425,42.14-44.567,73.527-6.162,12.935-12.468,22.68-15.585,56.483C1694.2,1004.874,1694.686,974.95,1707.956,943.87Zm124.186-78.059c28.228-4.937,49.6,9,69.951,27.024,32.184,28.177,59.318,61.917,56.7,102.813a85.651,85.651,0,0,0-9.568-26.64c-11.552-38.528-27.356-55.6-48.929-72.1-20.848-15.811-54.513-32.751-79.918-25.953-1.91-.242-3.831-.411-5.767-.488a142.729,142.729,0,0,1,17.522-4.651C1832.015,865.828,1832.191,865.8,1832.142,865.811Zm62.7,256.641c-7.759,3.47-21.105,7.573-36.928,8.89,18.457-4.4,43.792-14.938,57.1-27.04,5.082-4.624,6.419-6.544,15.9-18.11-13.324,21.781-25.825,31.529-36.08,36.264Zm-44.867,11.09a166.107,166.107,0,0,0,20.362-1.845C1860.757,1134.554,1858.478,1134.6,1849.972,1133.543ZM1732.666,1092.6c12.787,6.251,12.91,6.073,29.313,12.256,24.9,18.917,32.547,20.858,45.17,25.026a87.676,87.676,0,0,0,21.134,3.8C1800.484,1139.122,1754.5,1110.958,1732.666,1092.6Zm.293-19.694a128.434,128.434,0,0,0,7.143,12.189c-9.332-5.262-15.62-8.208-20.866-11.361-3.448-5.913-3.627-14.825-3.449-21.652C1720.451,1060.521,1725.148,1066.858,1732.96,1072.908Zm-18.076-87.356c-.265,3.7-.173,33.2,1.891,46.6a62.692,62.692,0,0,0-2.7,9.218C1705.194,1019.381,1706.733,1003.536,1714.884,985.552Zm1.765-3.754c1.4-2.862.919-1.807,3.134-6.385-1.573,12.513-3.284,21.881-3.469,23.266C1715.62,988.693,1716.237,985.276,1716.65,981.8Zm56.189-59.474c101.566-79.676,208.067,91.888,131.561,157.131-22.686,18.5-145.256,2.919-156.428-60.365C1744.871,997.253,1749.371,943.756,1772.839,922.323Zm-14.661-2.664a59.145,59.145,0,0,1,23.853-17C1770.99,909.59,1764.754,914.863,1758.177,919.66Zm51.364-22.637c-8.577,1.707-22.3,8.607-24.7,9.866a71.256,71.256,0,0,0-14.648,6.064C1792.563,896.841,1798.746,897,1809.541,897.023Zm10.5-7.706c27.135-3.172,40.8,1.62,56.314,15.8C1872.288,903.14,1858.751,892.781,1820.041,889.317ZM1920.766,1072c-14.044,13.721-31.956,22.313-39.733,23.433,38.555-14.71,52.793-42.747,54.658-83.259,1.3,7.433,3.08,18.851,2.825,26.365C1935.339,1046.612,1926.007,1065.068,1920.766,1072Zm15.941-23.031a22.459,22.459,0,0,1-7.207,13.279C1932.207,1057.387,1934.319,1053.6,1936.708,1048.968Zm-83.465,56.012c33.4-.558,58.98-9.97,78.078-37.465C1920.252,1093.887,1879.118,1108.757,1853.243,1104.98Zm-29.425-7.278c31.588,3.609,41.483,1.218,51.279.385a81.1,81.1,0,0,1-21.484,3.251C1830.789,1101.449,1833.891,1101.091,1823.818,1097.7Zm-19.191-.77c1.507-.112,3.024-.15,4.537-.187,19.331,6.646,24.1,5.682,27.642,6.649A89.762,89.762,0,0,1,1804.627,1096.932Zm-65.337-22.1c-6.93-9.432-12.17-21.735-13.7-27.579,4.323,8.628,26.586,39.755,62.386,43.7,2.837,1.411,5.062,2.533,10.779,5.039C1775.479,1097.794,1758.49,1088.052,1739.29,1074.83Zm10.694,15.7c-2.355-1.215-4.673-2.5-6.981-3.8a70.521,70.521,0,0,1-5.847-8.913A77.522,77.522,0,0,0,1749.983,1090.53Zm-20.194-78.6c1.377,17.741,17.156,44.054,25.753,54.563C1743.995,1056.308,1727.257,1026.952,1729.789,1011.93Zm132.513,91.06a112.648,112.648,0,0,0,27.137-7.336c8.891-2.411,18.909-6.518,37.406-25.485-4.979,6.584-7.136,10.186-22.029,20.012C1889.36,1100.355,1867.654,1103.246,1862.3,1102.99Zm-90.75-29.825c-10.853-7.8-18.48-17.077-24.168-34.113,33.8,46.125,128.085,52.884,144.725,48.436C1853.259,1109.171,1795.939,1090.159,1771.552,1073.166Zm-.912,5.579c6.1,3.307,10.152,5.133,20.728,10.34-3.517-.609-2.436-.4-5.663-.879A106.823,106.823,0,0,1,1770.64,1078.745Zm-24.549-31.975c-11.844-16.459-12.821-26.589-13.137-39.614C1740.453,1028.135,1741.812,1036.878,1746.09,1046.771Zm35.263,40.676c-24.493-1.961-54.4-30.749-52.509-63.031C1739.856,1052.792,1751.275,1070.212,1781.353,1087.446Zm11.184,4.084c8.164,1.233,5.94,1.195,13.1,3.942-1.249.058-2.536.169-3.826.274C1798.813,1094.434,1798.1,1094.148,1792.537,1091.53Zm152.14-57.739c1.316-8.7,2.5-12.845,3.179-19.061.672,9.613-.849,15.031-2.735,24.1Q1944.9,1036.311,1944.677,1033.791Zm-2.2-25.139c-2.709-16.3-11.635-43.108-23.449-60.985C1931.049,960.732,1941.528,975.035,1942.473,1008.652Zm-44.251-86.216c9.937,4.347,19.361,15.084,23.3,23.647C1917.349,941.494,1900.881,924.874,1898.222,922.436Zm20.758,28.845c11.906,18.74,20.66,48.086,21.85,63.8C1938.356,996.547,1920.089,953.781,1918.98,951.282ZM1717.6,1036.768c2.43,12.005,6.059,20.059,11.929,29.936-6.76-7.015-10.216-13.871-13.381-20.553A56.123,56.123,0,0,1,1717.6,1036.768Zm49.032,69.841c27.1,10.224,36.319,18.63,61.382,25.548C1801.623,1130.992,1782.842,1118.511,1766.628,1106.609Zm44.744,16.338c-6.724-3-12.74-6.836-19.292-10.829,35.934,8.387,77.576,3.4,106.755-4.654-4.9,2.656-19.455,9.162-23.215,10.778-6.694,2.892-15.006,6.27-39.134,13.4C1828.888,1130.163,1818.357,1126.066,1811.372,1122.947Zm49.469,4.24c11.92-3.588,38.309-14.635,49.95-22.667-7.446,6.426-27.338,17.6-47.4,23.534-2.684.809-13.531,3.906-19.176,4.046C1854.27,1129.115,1855.891,1128.669,1860.842,1127.187Zm74.8-43.061a51.41,51.41,0,0,1-26.11,31.872C1920.2,1107.287,1928.55,1095.976,1935.64,1084.125Zm-25.8,16.715c-20.711,9.217-120.721,35.134-166.174-20.614,17.779,10.792,33.463,18.907,57.833,16.953,16.806,7.2,55.94,9.635,59.163,9.647,14.409.094,36.225-5.107,53.615-17.454a55.092,55.092,0,0,0,21.106-28.034,55.684,55.684,0,0,0,7.394-16.58C1943.118,1065.345,1925.388,1089.966,1909.836,1100.84Zm37.2-110.135c-1.5-12.481-3.01-19.983-8.147-30.062,10.275,14.883,22.359,51.057,12.569,82.482-1.377,2.894-4.58,9.523-6.743,13.413C1953.747,1025.3,1951.522,1010.464,1947.038,990.705Zm-47.494-91.224c19.81,15.584,30.619,28.5,41.019,55.794a98.094,98.094,0,0,0-12.444-13.476c-12.149-20.664-57.187-61.488-102.371-69.993C1848.234,867.628,1880.874,884.854,1899.544,899.481Zm-80.471-26.042c47.877,4.432,90.571,44.217,99.616,60.008-15.273-14.953-50.352-53.216-93.978-49.116-4.386-.4-17.2-2.1-37.349,4.235A101.89,101.89,0,0,1,1819.074,873.439Zm-38.906,17.709c-2.616,1.058-5.239,2.169-7.778,3.43,9.975-7.531,23.032-16.515,34.508-21.178a55.615,55.615,0,0,1,6.468-.285A112.569,112.569,0,0,0,1780.168,891.148Zm-75.312,123.838a84.856,84.856,0,0,0,8.3,32c-.488,3.555-1.2,9.082-1.474,12.661a168.313,168.313,0,0,1-9.094-22.491C1702.776,1033.689,1703.754,1021.328,1704.856,1014.986Zm6.661,47.293c-.086,1.888-.106,3.777-.037,5.668-3.644-3.351-3.672-3.854-4.619-5.9a46.381,46.381,0,0,1-4.41-20.921A168.836,168.836,0,0,0,1711.517,1062.279Zm12.782,26.212c1.147.567,4.725,3.9,5.995,4.929a171.516,171.516,0,0,0,12.683,15.729C1732.7,1102.29,1729.6,1099.205,1724.3,1088.491Zm10.054,8.23c6.525,5.312,46.546,33.838,77.392,38.577C1794.184,1136.225,1766.122,1138.383,1734.352,1096.721Zm222.213-160.294a182.4,182.4,0,0,1,7.94,24.477c9.844,46.124,10.108,61.513.719,83.523-10.3,23.916-15.76,58.514-48.959,78.292-22.487,13.433-41.142,15.224-56.917,23.663-7.844,4.148-7.527,5.466-18.185,8.2-10.485,2.757-13.565,3.38-25.5.3-8.9-2.285-23.3-10.294-31.208-14.784-7.108-4.073-7.323-4.434-14.863-10.461,19.167,9.554,49.771,8.858,72.266,5.173,15.919,1.673,18.171,3.14,43.32-6.625,13.939-4.24,32.995-12.616,42.476-24.42,8.271-10.248,10.183-19.032,12.2-26.868,12.587-21.654,10.552-19.136,15.6-34.651l.01-.032c3.679-7.618,5.361-11.058,8.275-52.524,2.739-38.057-30.156-72.757-57.808-99.035-8.142-7.722-30.726-26.07-48.878-28.551-13.429-1.825-29.387-2.7-54.22,9.127-13.406,1.8-39.045,2.9-77.286,41.756-11.88,12-14.537,19.333-18.558,29.225-2.325,5.788-20.845,40.444-6.634,92.224-.623,7.8-.59,13.076,1.164,19.673-9.225-17.969-16.26-43.364-17.38-57.584-5.506-68.877,29.522-87.978,67.764-111.436,39.777-24.437,66.119-42.8,120.211-30.625,16.2,3.544,32.036,7.407,47.472,23.725C1932.982,892.418,1948.127,918.856,1956.565,936.427Zm-124.423-70.616h-.01C1832.285,865.792,1832.316,865.784,1832.142,865.811Z" transform="translate(-1848.638 -509.051)" fill="#fedfd2" style="mix-blend-mode: multiply;isolation: isolate"/>
    <path id="Trazado_404" data-name="Trazado 404" d="M17.627,117.965a84.091,84.091,0,0,0,7.1-5.7c2.068-1.826-.083-2.449-.3-1.485a11.065,11.065,0,0,1-1.691,1.793c-7.639,7.242-15.826,10.134-19.314,10.416-3.714.163-2.57-1.167-1.271-3.007,3.742-5.294,7.976-7.023,16.061-9.973a20.918,20.918,0,0,0,3.566-1.389.453.453,0,0,0-.292-.848c-2.579.641-10.914,3.156-14.464,2.594-2.245-.483-2.261-1.2-.966-3.171,2.713-4.122,6.207-5.177,11.83-7.073a66,66,0,0,0,14.391-2.273c1.935-.66,1.855-2.517-1.142-1.982-6.122,1.09-3.924.868-9.337,1.3-.65.041-4.868.321-6.265-.062a35.723,35.723,0,0,1,10.688-6.476c7.274-.278,20.1-3.072,23.827-4.635,1.534-.643,1.236-3.607-1.539-3.891a44.188,44.188,0,0,0-5.961.159,90.075,90.075,0,0,0,15.25-3.3c5.8-1.99,13.6-6.71,8.225-9.029a8.807,8.807,0,0,0-3.034-.661c5.741.213,9.044.1,9.044.1,4.309.2,3.772-3.269,2.172-3.629-4.975-1.123-29.985-1.1-40.414-3.944,9.793-1.532,20.3-.388,38.232,1.02,18.535,1.451,8.239.608,12.4.891a3.407,3.407,0,0,0,3.238-.734l0,0a3.33,3.33,0,0,0,.714-3.946c-.9-1.781-1.186-2.976-36.843-5.181a94.886,94.886,0,0,0-14.627.442,44.825,44.825,0,0,1-8.132-2.556c-8.324-4.16-2.517-5.3-1.963-5.515,4.553-1.784,10.429-3.3,20.861-3.71,22.84,7.124,31.388,10.473,47.885,11.816,6.122.5,8.115.749,7.61-.254-.414-.823-.475-.79-4.868-2.324,6.026,1.358,7.423,1.5,12.382,2.36,2.518.488,2.581-.871,2.173-1.22-1.662-1.417-.819-.7-9.1-4.026-5.923-2.375-6.47-2.565-9.274-3.668,4.418.019,18.531-.209,25.159-.987,11.41-1.324,11.217-1.969,11.724-2.573a.907.907,0,0,0-.091-1.12c-.978-.883-1.213-1.212-5.491-2.275-5.313-1.314-12.942-2.385-18.358-3.167,4.159-.368,8.8-.783,24.138-3.127,1.1-.168,9.982-1.483,10.919-2a1.52,1.52,0,0,0-.133-2.74c-2.876-.872-6.911-.536-25.02.561-10.568.643-16.762,1.42-26.4,5.023a9.225,9.225,0,0,1-1.327-.321c10.219-6.579,31.82-8.832,43.082-9.461,3.053-.172,21.793-1.27,20.786-4.164,1.379-.839.95-2.486-.856-3.124a60.865,60.865,0,0,0-11.854-2.243C121.294,6.518,113.023.991,96.084.087,93.252-.065,84.708-.246,81.765,1.7c-.683.451-1.509,1.088-1.346,2.024.169.96.436,1.5,7.975,3.851,14.5,4.523,45.468,6.365,54.379,7.576l1.006.357c-24.3,1.114-52.135-4.117-70.223-.631-3.674.711-9.476,2.287-12.307,4.613-2.125,1.76-3.187,5.649,2.288,6.717A57.324,57.324,0,0,0,77.35,27.528c6.385.028,14.587-.277,19.611-.608-2.587.865-7.018,2.666-9.056,4.293a1.4,1.4,0,0,0-.657,1.632c-12.286-.9-23.371,1.633-24.333,2.185a1.6,1.6,0,0,0-.765,1.377,90.457,90.457,0,0,0-19.3.843c-2.5.4-2.383.494-2.855.922a.462.462,0,0,0-.032.639c.673.895.7,1.335,5.272,2.914-12.813.791-15.733,2.342-20.7,3.858-2.825.875-1.9,4.024.567,5.92A23.312,23.312,0,0,0,32.259,55c-11.344,2.323-12.385,10.58,3.776,12.864-15.692,2.9-25.875,7.5-28.136,9.207-2.245,1.687-2.758,3.5-.663,5.35,2.416,2.137,7.585,2.165,10.786,2.085-2.706,2.268-1.573,4.407.866,5.318-1.9,1.112-6.7,4.5-7.142,6.644-.476,2.334.98,3.19,3.237,3.594-3.683,1.329-6.993,2.8-9.333,6.122-1.782,2.532-2.059,4.39.972,5.021,2.335.488,6.113-.347,7.819-.731-8.775,3.451-10.437,5.494-13.3,9.372A7.156,7.156,0,0,0,.145,121.5c-.56,1.44.576,2.358,2.128,2.4C6.907,124.034,13.794,120.573,17.627,117.965ZM137,13.084C123.025,11.706,99.134,9.93,85.3,5.173a21.187,21.187,0,0,1-3.7-1.5.587.587,0,0,1-.049-.3c1.692-3.533,21.1-3.5,36.037,2.086C123.527,7.682,130,10.557,137,13.084ZM70.391,20.47c12.832-4.708,36.074-3,48.24-2.28A346.383,346.383,0,0,1,70.391,20.47Zm8.528,19.419a79.112,79.112,0,0,0-15.225-3.35c-.526-.9,10.939-2.14,11.988-2.248a98.774,98.774,0,0,1,11.473.03C85.154,35.2,79.818,37.9,78.919,39.889Zm17.387-6.565c8.007-2.478,12.946-2.91,33.391-3.817C118.234,31.47,106.36,33.685,96.306,33.324Zm-4.8,9.655c-5.966-.265-1.977-.049-10.324-2.433,2.214-2.114,7.282-4.422,10.4-5.6,3.947.628,5.461.286,9.708.8,1.075.13,20.631,2.762,27.113,5.067C113.1,43.314,94.714,43.119,91.5,42.979Zm-8.917,2.468c-4.1-1.422-14.885-5.062-17.941-7.873a84.637,84.637,0,0,1,14.14,3.368q.014.073.036.147c1,3.431,8.713,3.859,12.189,4.017,4.969,1.87,13.762,5.571,17.775,7.15C100.8,50.861,96.029,50.1,82.586,45.447Zm-32.108-3c17.019-.077,46.142,9.511,51.034,11.411-.086,0-3-.2-5.253-.383C80.314,52.179,72.688,49.466,50.479,42.443Zm-8.328-2.887a2.794,2.794,0,0,1-1.243-.979c.494-.354,11.4-2.074,21.616-1.221,2.026,2.9,8.794,5.744,20.916,9.943-11.693-3.229-23.679-6.173-35.665-5.707A48.591,48.591,0,0,1,42.151,39.556ZM20.568,84.4l.027,0c11.609-.7,13.718-1.087,17.287-1.529a70.572,70.572,0,0,0-16.674,5.713C16.54,87.934,17.944,86.4,20.568,84.4Zm39.041-15.18c-14.587.73-35.932,11.153-40.2,14.218-3.293.142-8.951.323-11.5-1.738-1.15-1.034-1.824-2.148.783-4.013,3.63-2.415,15.439-7.007,30.586-9.408A196.664,196.664,0,0,0,59.609,69.225ZM22.159,83.288c7.643-4.959,34.71-16.508,43.7-12.438,3.606,1.84-4.483,5.739-8.344,7.081C48.109,81.1,32.055,82.666,22.159,83.288Z" transform="translate(-74.022 269.797) rotate(-56)" fill="#d2e1ff" style="mix-blend-mode: multiply;isolation: isolate"/>
    <path id="Trazado_406" data-name="Trazado 406" d="M1999.219,598.419c16.165,28.386,52.877,6.323,35.537-21.308-4.493-7.159-13.131-11.714-21.52-10.672C1994.779,568.733,1992.136,585.975,1999.219,598.419Z" transform="translate(-1825.555 -121.662)" fill="#556eda" style="mix-blend-mode: multiply;isolation: isolate"/>
    <path id="Trazado_390" data-name="Trazado 390" d="M133.972,11.273q4.4,1.015,8.776,2.1c6.345,1.589,11.308,12.077,14.92,17.02,11.521,15.77,26.939,28.152,41.3,41.2,18.68,16.971,34.853,37.274,52.981,54.924,10.351,10.077,36.952,28.223,38.638,43.472C264.049,151.171,234.9,136.75,209.927,115.5c-19-16.168-31.652-36.937-46.982-55.925a227.4,227.4,0,0,1-20.323-29.019c6.8,16.785,9.93,36.1,21.535,50.908,16.71,21.325,38.487,41.9,48.333,67.917,10.21,26.978,9.15,58.4,15.808,86.259-16.232-12.771-26.5-42.616-31.812-62.079a255.728,255.728,0,0,0-26.332-63.251c-14.348-24.71-27.665-50.8-34.2-78.292,2.718,24.852,9.051,47.8,14.9,73.318,6.6,28.78,9.732,57.842,7.135,87.321-1.65,18.724-3.332,51.442-13,67.344-3.6-8.343-3.156-16.861-4.378-25.679-1.578-11.383-6.4-21.924-7.7-33.563-2.762-24.734-8.182-48.954-11.768-73.731-3-20.708-.426-41.551,3.417-61.964,1.25-6.64,2.64-13.254,3.848-19.9,1.1-6.043,1.526-12.325,3.633-18.132-.38,1.047-2.156,2.237-3.019,2.828C122.147,36.1,120.9,53.31,115.7,63.1c-5.832,10.977-14.736,20.875-23.258,29.51-14.289,14.481-36.814,35.6-59.7,45.274,2.974-11.927,4.121-18.5,10.593-33.038,6.055-13.6,13.083-23.8,22.071-35.64,11.354-14.957,28.883-18.746,41.885-30.286,7.275-6.456,14.15-12.963,21.117-19.111-22.833,5.739-47.416,8.1-70.455,11.7C38.275,34.581,19.039,28.317,0,31.36,9.539,23.615,23.352,20.4,33.643,12.484,47.059,2.165,58.413-1.6,76.327.61c15.855,1.958,31.6,4.9,47.2,8.321Q128.755,10.079,133.972,11.273Z" transform="matrix(0.588, 0.809, -0.809, 0.588, 1367.575, 28.006)" fill="#556eda" style="mix-blend-mode: multiply;isolation: isolate"/>
    <path id="Trazado_391" data-name="Trazado 391" d="M101.363,120.885a1.448,1.448,0,0,0-.855-1.107c-2.025-.8-3.456,3.785-.587,3.679C101.015,123.416,101.6,121.975,101.363,120.885ZM90.893,85.471c-2.321-.119-1.971,3.151-.4,3.3C91.839,88.9,93.208,85.59,90.893,85.471Zm81.837,94.592c1.478.271,2.214-1.372,2.1-2.585-.086-.885-.626-1.542-1.664-1.059C171.928,176.994,170.734,179.7,172.73,180.063ZM51.072,74.8c-3.025-2.485-4.193,2.7-1.557,2.78C50.453,77.605,51.475,76.019,51.072,74.8ZM153.7,137.544c1.094-.041,1.675-1.482,1.441-2.572a1.446,1.446,0,0,0-.855-1.107C152.265,133.07,150.834,137.649,153.7,137.544Zm57.851-14.01a1.662,1.662,0,0,0-.129-.144,1.046,1.046,0,0,0-1.476-.045c-.888.713-1.335,2.743.31,2.72A1.761,1.761,0,0,0,211.554,123.534ZM18.5,96.393c-.9-1.84-3.035-.708-3.307,1.012C15.5,99.591,18.554,98.834,18.5,96.393ZM93.549,56.28a1.384,1.384,0,0,0,1.54,1.917c1.07-.182,2-2.1,1.143-2.926C95.364,54.467,93.848,55.324,93.549,56.28ZM12.47,111.293a1.2,1.2,0,0,0-1.345-.842,1.54,1.54,0,0,0-1.036.905c-.437.914-.191,2.146.98,2.226C12.073,113.65,12.74,112.244,12.47,111.293Zm97.591,97.676a1.3,1.3,0,0,0-.943-1c-2.068-.567-3.392,3.633-.493,3.433C109.679,211.327,110.3,209.97,110.061,208.969Zm36.371-101.1c-.916-1.03-2.727-.776-3.033.364C142.773,110.566,147.391,111.14,146.432,107.869Zm54.474,5.024c-1.591.885-.313,3.006.946,2.333C202.729,114.758,202.47,112.024,200.906,112.893ZM175.03,98.062c-.737-1.093-2.305.3-2.706.964-.588.972-.48,2.159.871,2.192.956.023,2.087-1.538,2.008-2.622A1.089,1.089,0,0,0,175.03,98.062Zm-24.9-28.612c-.6.8-.7,2.212.493,2.491,1.045.245,2.186-1.361,1.867-2.339a1.007,1.007,0,0,0-.066-.154A1.384,1.384,0,0,0,150.126,69.45ZM101.483,15.922c.864.077,1.326-.818,1.554-2.076C101.5,11.28,98.919,15.692,101.483,15.922ZM68.547,3.119c-1.488.211-2.2,2.821-.531,3.272C70.317,7.013,71.3,2.728,68.547,3.119ZM76.213,38.8c-.331-.962-1.675-.645-2.211-.069a1.48,1.48,0,0,0-.422,1.147,1.2,1.2,0,0,0,1.669.9A1.729,1.729,0,0,0,76.213,38.8Zm94.441,104.973a1.041,1.041,0,0,0-.252-.393c-.806-.788-2.15-.024-2.605.786-.6,1.058-.283,2.34,1.092,2.352C169.962,146.531,171.039,144.819,170.654,143.777ZM2.874,11.3a1.205,1.205,0,0,0-.834-.349A2.006,2.006,0,0,0,.108,12.093a2.387,2.387,0,0,0-.1.507c-.136,1.868,2.337.941,2.963.04A1.013,1.013,0,0,0,2.874,11.3ZM57.987,47.6a1.433,1.433,0,0,0-1.149.993c-.38.91-.36,2.683.912,2.864.906.128,1.439-.705,1.561-1.631C59.453,48.744,59.032,47.535,57.987,47.6ZM19.7.785c-.479-1.349-2.2-.743-2.816.2-.565.861-.774,2.366.531,2.638,1.2.251,2.623-1.654,2.322-2.723C19.728.859,19.716.822,19.7.785Z" transform="matrix(0.588, 0.809, -0.809, 0.588, 1382.855, 64.54)" fill="#fffcf2"/>
    <path id="Trazado_408" data-name="Trazado 408" d="M2921.367,445.067q-.441.088-.877.184c-25.521,5.575-48.891,22.363-59.911,46.391-7.557,16.478-8.684,39.22,2.762,54.277,12.605,16.582,39.858,14.159,47.3-6.445,1.887-5.034,2.248-10.549,4.242-15.542a25.547,25.547,0,0,1,12.594-13.441c7.784-3.711,16.932-3.237,25.068-6.1a32.576,32.576,0,0,0,20.723-23.848C2979.393,450.027,2944.882,440.351,2921.367,445.067Z" transform="translate(-1532.894 -66.85)" fill="#ff552f" style="mix-blend-mode: multiply;isolation: isolate"/>
    <path id="Trazado_409" data-name="Trazado 409" d="M2358.406,63.334c19.732,23.817,71.589,18.366,85.351-10.374,8.066-16.846-3.509-43.926-17.662-54.187-14.438-10.466-43.58-6.054-58.261,2.246C2346,13.361,2342.981,44.716,2358.406,63.334Z" transform="translate(-1098.61 -45.809)" fill="#f9c300" style="mix-blend-mode: multiply;isolation: isolate"/>
    <path id="Trazado_410" data-name="Trazado 410" d="M2159.767,97.427c-.336.233.027.807.43.519a42.435,42.435,0,0,1,4.343-2.785.293.293,0,1,0-.247-.532A29.375,29.375,0,0,0,2159.767,97.427Zm13.435-7.368c.158-.1,0-.36-.2-.237-1.47.936-1.972,1.316-3.569,2.4-.177.115.008.441.234.282C2171.277,91.413,2171.383,91.279,2173.2,90.059Zm-6.959,7.777a.215.215,0,0,0,.275.332c1.037-.777,2.078-1.55,3.1-2.342a.2.2,0,0,0-.25-.3C2168.473,96.181,2168.146,96.408,2166.243,97.836Zm4.026,1.831a.324.324,0,0,0,.414.5c3.212-2.424,4.34-3.33,6.349-4.736a.275.275,0,1,0-.35-.424C2174.739,96.26,2173.062,97.558,2170.269,99.666Zm7.568-8.156a.181.181,0,0,0,.231.28c3.125-2.489,1.939-1.529,3.74-2.963a.17.17,0,0,0-.217-.261C2179.047,90.548,2180.387,89.479,2177.837,91.51Zm.466,7.92a.365.365,0,0,0,.466.562c1.267-1.166,2.125-1.934,3.795-3.366a.344.344,0,0,0-.438-.531C2180.418,97.476,2179.262,98.549,2178.3,99.43Zm10.484-10.782a.121.121,0,0,0-.154-.185c-2.729,2.462-3.91,3.031-3.372,3.081C2185.424,91.559,2188.667,88.757,2188.788,88.648Zm-8.419,15.3a.377.377,0,0,0,.482.58c2.738-2.424,1.995-1.626,6.145-5.736.387-.377-.144-.894-.475-.572C2183.383,101.217,2184.407,100.386,2180.369,103.947Zm9.424-10.621a.377.377,0,0,0,.482.58c.783-.674,1.56-1.352,2.345-2.025a.368.368,0,0,0-.47-.566C2191.356,91.979,2190.574,92.651,2189.793,93.327Zm-.8,8.857a.368.368,0,0,0,.469.568,40.758,40.758,0,0,0,5.486-5.511c.292-.352-.258-.832-.6-.428A41.188,41.188,0,0,1,2188.991,102.184Zm10.017-11.049a.193.193,0,1,0,.246.3c.273-.26,4.841-4.554,5.7-5.347a.174.174,0,1,0-.222-.268C2203.717,86.723,2202.3,88.046,2199.008,91.134Zm2.488-8.22c.339-.222.03-.83-.4-.632a38.457,38.457,0,0,0-4.731,3.807.384.384,0,0,0,.49.591A40.741,40.741,0,0,1,2201.5,82.914Zm-.3,13.369a.323.323,0,0,0,.525.378c2.236-3,2.56-3.483,3.468-4.628a.308.308,0,0,0-.5-.358C2203.832,92.715,2203.344,93.4,2201.195,96.283Zm3.121,3.038a.356.356,0,0,0-.579-.415,51.853,51.853,0,0,1-4.768,5.373c-.442.451.191,1,.536.647A36.956,36.956,0,0,0,2204.316,99.321Zm2.348,3.384c-.244.294.224.682.492.351,1.11-1.352,1.1-1.341,2.986-3.7a.288.288,0,0,0-.468-.336C2208.664,100.243,2207.67,101.478,2206.665,102.7Zm-9.08,9.585a.454.454,0,0,0,.737.53c1.59-1.835,3.207-3.652,4.7-5.567a.424.424,0,0,0-.689-.5C2200.786,108.633,2199.175,110.455,2197.585,112.29Zm.831,7.086c-.224.267.2.621.445.321,2.578-3.1,3.126-3.768,4.341-5.376a.248.248,0,0,0-.4-.288C2201.259,115.991,2200.492,116.88,2198.416,119.376Zm11.022-4.063a.436.436,0,0,0,.709.507,32.916,32.916,0,0,0,3.524-5.321.406.406,0,1,0-.659-.473A41.14,41.14,0,0,1,2209.438,115.313Zm3.012-11.343c-.286.349.262.812.582.419a42.138,42.138,0,0,0,2.65-3.507.323.323,0,0,0-.525-.376C2214.3,101.7,2213.376,102.835,2212.45,103.97Zm1.667,10.852a.511.511,0,0,0,.83.594c2.418-3.266,3.7-5.048,4.795-6.7a.471.471,0,0,0-.766-.548C2218.538,108.784,2215.563,112.855,2214.117,114.822Zm6.681-13.489c1.339-1.835,1.666-2.212,2.879-3.93a.248.248,0,0,0-.4-.288c-1.606,2.11-1.955,2.543-2.939,3.887A.286.286,0,0,0,2220.8,101.333Zm-6.62-6.758c-.382.419.3,1.128.794.57,3.757-4.129,3.477-3.913,5.139-5.961a.424.424,0,1,0-.689-.5C2219.413,88.7,2217.016,91.448,2214.179,94.576Zm3.121-12.322c.107-.128-.095-.309-.222-.157-1.393,1.68-2.82,3.214-4.342,4.725a.156.156,0,0,0,.2.241A54.188,54.188,0,0,0,2217.3,82.254Zm-6.686-2.877a.548.548,0,0,0,.7.844c3.26-2.964,3.605-3.458,5.872-5.773a.509.509,0,1,0-.651-.784C2214.879,75.206,2214.065,76.252,2210.614,79.377Zm16.711-4.4a.17.17,0,0,0-.276-.2c-1.214,1.468-2.531,2.919-4.4,4.941-.145.16.106.426.3.216C2224.36,78.409,2226.017,76.593,2227.325,74.98Zm-.73,9.673a.507.507,0,0,0,.824.589c2.257-2.668,2.94-3.593,4.039-4.922a.466.466,0,1,0-.756-.544C2229.56,81.044,2228.794,82.055,2226.6,84.653Zm1.471,6.682c-.177.193.139.547.383.275,1.267-1.385,1.852-2.055,2.663-3.018a.219.219,0,0,0-.216-.341C2230.813,88.267,2228.125,91.271,2228.066,91.335Zm.012,8.777a.569.569,0,0,0,.926.664c1.921-2.707,3.7-5.11,5.977-7.826a.521.521,0,0,0-.848-.607A77.784,77.784,0,0,0,2228.078,100.112Zm11.03-6.66a.453.453,0,1,0,.848.32c.747-1.437.562-1.033,2.871-5.044a.411.411,0,1,0-.668-.478C2241.225,89.739,2240.217,91.3,2239.108,93.451Zm-1.353-9.66a.49.49,0,0,0,.8.57,60.3,60.3,0,0,0,4.905-9.116.388.388,0,1,0-.727-.275A86.582,86.582,0,0,1,2237.755,83.792Zm-25.882-14.928a.269.269,0,0,0-.343-.414c-1.97,1.634-2.78,2.257-6.252,4.862a.294.294,0,0,0,.376.453C2208.252,71.8,2209.763,70.694,2211.873,68.864Zm8.38-2.12a.6.6,0,0,0,.77.928,39.42,39.42,0,0,0,4.759-5.375c.364-.472-.351-1.052-.715-.665C2224.282,62.437,2221.726,65.514,2220.253,66.744Zm7.7.752c1.206-1.688,2.418-3.373,3.6-5.081a.274.274,0,0,0-.445-.319c-1.209,1.686-2.426,3.366-3.63,5.055A.3.3,0,0,0,2227.951,67.5Zm11.378-4.014c.207-.387-.465-.8-.711-.382-1.47,2.525-2.743,4.5-4.321,6.978a.452.452,0,0,0,.735.526C2237.652,66.491,2238.273,65.451,2239.329,63.481Zm5.063,4.4c1.726-2.308,2.6-2.29,5.306-6.286a.377.377,0,0,0-.613-.439c-2.862,3.974-3.666,3.969-5.366,6.242A.414.414,0,0,0,2244.392,67.883Zm-4.36-10.005c-.464.49.211,1.037.56.675a61.976,61.976,0,0,0,4.574-5.14.4.4,0,1,0-.653-.468C2242.759,55.055,2241.465,56.366,2240.032,57.878Zm-6.607-2.931a.449.449,0,0,0,.574.691c2.884-2.614,2.606-2.125,4.919-4.323a.4.4,0,1,0-.516-.622C2235.679,53.111,2236.221,52.407,2233.425,54.947Zm16.73-.869c1.151-1.558,2.682-3.631,4.2-5.5a.209.209,0,1,0-.338-.244c-1.5,1.792-2.9,3.672-4.235,5.476A.231.231,0,0,0,2250.155,54.078Zm4.638-15.726c-2.886,2.848-3.922,4.071-7.649,7.424a.528.528,0,0,0,.674.813c2.35-2.108,3.892-3.579,7.586-7.5C2255.895,38.56,2255.194,37.956,2254.793,38.352Zm3.809,11.765a.235.235,0,1,0-.383-.273c-1.017,1.688-1.26,2.093-3.348,5.3a.261.261,0,0,0,.424.3C2257.211,52.485,2257.511,52.017,2258.6,50.117Zm3.03-12.81a42.8,42.8,0,0,1-2.741,3.962c-.327.393.295.94.675.485a30.945,30.945,0,0,0,2.676-4.01A.375.375,0,1,0,2261.632,37.307Zm-37.127,13.1a.3.3,0,1,0-.377-.457c-2.1,1.855-5,4.037-7.267,5.741-.377.284.063.858.465.56A79.015,79.015,0,0,0,2224.505,50.41Zm1.333,4.621a.38.38,0,1,0,.485.585,35.186,35.186,0,0,0,4.847-6.194.354.354,0,1,0-.575-.412A37.955,37.955,0,0,1,2225.838,55.032Zm16.32-16.164a38.621,38.621,0,0,1-5.519,5.337.391.391,0,0,0,.5.6,33.373,33.373,0,0,0,5.588-5.532A.349.349,0,1,0,2242.159,38.868Zm-6.848-3.483a.221.221,0,1,0-.282-.339c-1.847,1.264-4.4,3.261-6.278,4.795a.238.238,0,0,0,.3.366C2231.454,38.234,2233.613,36.591,2235.31,35.384Zm-25.117,23.995a.543.543,0,0,0-.693-.836c-2.441,2.2-2.951,2.39-4.929,4.342a.6.6,0,0,0,.76.916C2207.413,61.748,2208.132,61.427,2210.193,59.379Zm4.343,5.295c-.256.27.116.565.3.368,2.138-2.275,2.632-2.826,3.841-3.922a.221.221,0,0,0-.282-.339A49.092,49.092,0,0,0,2214.536,64.674Zm-14.526,6.344a.4.4,0,1,0-.516-.622c-2.016,1.967-4.866,4.5-6.446,5.925a.435.435,0,0,0,.555.669C2196.415,74.442,2198.217,72.859,2200.01,71.018Zm.534,4.642a.2.2,0,0,0-.318-.229c-.693.922-1.858,2.412-3.5,4.4a.208.208,0,0,0,.338.242C2198.207,78.683,2199.468,77.122,2200.543,75.66Zm-14.81,8.728a.458.458,0,1,0,.586.7,66.03,66.03,0,0,0,5.917-4.521.415.415,0,0,0-.529-.64C2188.832,82.177,2187.85,82.95,2185.734,84.388Zm56.832-50.808c-.344.326.125.794.424.51,1.926-1.824,3.008-2.81,4.85-4.8.229-.243-.195-.673-.442-.412C2245.355,31,2244.595,31.665,2242.566,33.58Zm-19.1,9.047a.321.321,0,0,0-.41-.494c-1.374,1.211-3.1,2.471-4.462,3.446-.354.249.05.8.431.519A53.226,53.226,0,0,0,2223.469,42.626Zm30.1-8.79c-.322.325.139.712.383.461a58.921,58.921,0,0,0,4.7-5.043.27.27,0,0,0-.44-.315C2256.969,30.417,2256.38,30.967,2253.567,33.836Zm8-1.411c-.352.415.306,1.011.721.517,3.286-3.879,3.211-3.793,4.278-5.249a.422.422,0,0,0-.686-.493C2264.733,28.706,2265.344,27.95,2261.563,32.425Zm6.366,7.528a.367.367,0,0,0-.6-.428c-1.78,2.467-2.42,3.333-3.417,4.632a.416.416,0,0,0,.677.485C2265.5,43.452,2266.442,42.21,2267.929,39.954Zm-9.335,18.088a.418.418,0,0,0,.68.487c2.468-3.228,3.427-4.493,5.615-7.57a.407.407,0,0,0-.663-.474C2261.6,54.118,2261.852,53.768,2258.594,58.041ZM2252.371,68.8c1.057-1.992,1.637-2.936,2.942-5.18a.319.319,0,1,0-.519-.371c-1.624,2.637-2.124,3.538-3.072,5.3A.347.347,0,1,0,2252.371,68.8Zm4.178,1.421a.324.324,0,1,0-.527-.376c-1.643,2.544-3.881,5.9-5.222,7.895a.353.353,0,0,0,.574.411C2253.184,75.456,2255.489,71.94,2256.548,70.224Zm1.683,7.863a.256.256,0,0,0,.415.3c.852-1.262,1.714-2.517,2.573-3.772a.25.25,0,0,0-.406-.291C2259.3,76.5,2259.052,76.873,2258.231,78.087Zm8.051-17.426a.457.457,0,0,0-.855-.325,24.822,24.822,0,0,1-3.688,5.872c-.379.451.342,1.095.782.561A23.188,23.188,0,0,0,2266.282,60.661Zm1-5.549c-.281.523.417.829.627.448,1-1.812,1.089-2.009,2.205-4.061a.362.362,0,1,0-.588-.421C2268.76,52.414,2268.021,53.764,2267.278,55.112Zm7.646-15.73a.345.345,0,1,0-.561-.4c-1.451,2.481-2.861,4.662-4.362,6.844a.386.386,0,0,0,.627.45A78.123,78.123,0,0,0,2274.925,39.382Zm-1.057,14.837a.194.194,0,1,0,.363.138c.1-.228,1.974-4.632,3.108-7.306a.18.18,0,0,0-.336-.128C2276.8,47.391,2276.013,49.195,2273.868,54.219Zm-3.888,10.855c1.074-1.68,2.149-3.358,3.2-5.049a.3.3,0,1,0-.482-.347q-1.616,2.513-3.23,5.03A.315.315,0,0,0,2269.98,65.074Zm-1.943,10.569a.475.475,0,0,0,.888.337c.86-1.662,1.635-3.134,2.47-4.64a.458.458,0,1,0-.744-.533C2269.771,72.354,2268.854,74.079,2268.037,75.643Zm14.624-23.532a.31.31,0,1,0-.58-.219c-1.743,3.6-1.778,3.636-3.3,6.444-.265.5.393.777.585.421C2279.37,58.757,2280.905,56.041,2282.661,52.111Zm-6.1,18.628c-.187.391.427.683.639.242a45.629,45.629,0,0,1,2.341-4.292.3.3,0,1,0-.491-.351A35.36,35.36,0,0,0,2276.561,70.739Zm7.3-24.907c2.417-3.477,3.418-4.991,4.53-6.728a.353.353,0,0,0-.575-.411c-.931,1.358-1.3,1.916-4.6,6.676A.4.4,0,0,0,2283.858,45.832Zm.213-10.1q-1.5,2.077-3.03,4.138a.156.156,0,0,0,.253.181c1.013-1.376,2.025-2.756,3.021-4.145A.15.15,0,0,0,2284.071,35.732Zm-2.025-9.5a.47.47,0,0,0-.764-.548,50.489,50.489,0,0,1-6.007,6.925c-.533.526.214,1.219.653.787A45.518,45.518,0,0,0,2282.046,26.232Zm-1.954-7.437c.3-.218-.039-.695-.376-.451-2.436,1.783-3.783,2.911-5.162,4.031a.3.3,0,0,0,.388.467C2276.684,21.424,2277.89,20.42,2280.092,18.795Zm12.755-.37a.3.3,0,0,0-.52-.278c-2.179,4.044-4.094,6.848-4.967,8.8a.325.325,0,1,0,.607.229C2288.764,25.377,2290.966,22.108,2292.847,18.425Zm-1.27-7.021a.121.121,0,0,0-.2-.142,50.26,50.26,0,0,1-3.106,4.061c-.1.114.082.274.2.14A50.773,50.773,0,0,0,2291.577,11.4Zm6.1,11.554c-1.3,1.87-2.644,3.713-3.986,5.554a.251.251,0,0,0,.408.293c1.342-1.841,2.685-3.682,3.988-5.554A.252.252,0,0,0,2297.677,22.959ZM2278.951,7.665c.476-.488-.2-1.067-.575-.7-2.425,2.4-2.9,2.836-7.179,6.6a.487.487,0,0,0,.622.749C2275.393,11.168,2276.58,10.117,2278.951,7.665Zm9.24-3.633a.126.126,0,0,0-.2-.147c-1.294,1.669-2.7,3.749-3.843,5.476a.141.141,0,1,0,.229.164C2285.56,7.738,2286.807,5.869,2288.191,4.032ZM2181.022,82.18a.211.211,0,0,0-.27-.323c-1.662,1.293-2.218,1.676-5.282,3.764a.233.233,0,0,0,.127.411A64.69,64.69,0,0,0,2181.022,82.18Zm8.667-10.429a.307.307,0,1,0-.391-.473,43.254,43.254,0,0,1-5.165,4.145c-.354.242.035.822.441.531A37.508,37.508,0,0,0,2189.69,71.752Zm-10.683,4.4c-1.116.864-2.058,1.49-5.661,3.962-.174.122.012.426.229.274,3.744-2.58,4.53-3.1,5.637-3.989A.161.161,0,0,0,2179.007,76.147Zm18.241-15.138a.425.425,0,0,0-.543-.655,23.475,23.475,0,0,1-4.667,3.241.488.488,0,0,0,.412.884A20.672,20.672,0,0,0,2197.248,61.009ZM2179.1,68.917a.219.219,0,0,0,.184.4,28.018,28.018,0,0,0,5.073-3.2.188.188,0,0,0-.241-.288A30.111,30.111,0,0,1,2179.1,68.917ZM2160.034,89.3a.611.611,0,0,0,.781.941c3.843-3.088,4.661-3.749,6.39-5.385a.569.569,0,0,0-.726-.876C2163.632,86.446,2161.659,87.99,2160.034,89.3Zm15.775-16.776a.177.177,0,0,0-.225-.274,59.13,59.13,0,0,1-6.391,4.492c-.184.116,0,.472.25.3A56.868,56.868,0,0,0,2175.809,72.524ZM2149.781,98.7c-.314.215.007.763.41.5,1.847-1.266,3.7-2.526,5.506-3.849a.3.3,0,0,0,.04-.426C2155.453,94.579,2155.443,94.826,2149.781,98.7Zm8.14-16.4a.216.216,0,1,0,.182.391c1.78-1.043,5.1-2.947,7.588-4.6.171-.111-.015-.419-.194-.307C2162.965,79.385,2161.335,80.318,2157.921,82.3Zm4.835-9.993a.516.516,0,0,0,.435.935c2.088-1.177,4.73-2.689,6.8-3.928a.453.453,0,1,0-.383-.822C2167.121,69.841,2165.81,70.584,2162.756,72.308Zm26.144-14.9c-2.225,1.032-4.127,2.035-6.223,3.226a.367.367,0,1,0,.309.665c2.191-1.251,3.85-2.124,6.171-3.343A.3.3,0,0,0,2188.9,57.412Zm-38.479,33.831a.3.3,0,0,0-.04.428c.3.365.25.046,7-4.828.283-.2-.03-.672-.36-.435C2155,87.821,2152.394,89.763,2150.421,91.243Zm-.262-10.163a.317.317,0,1,0,.268.574c5.57-3.329,5.286-3.148,7.464-4.6.267-.177-.036-.631-.295-.464C2150.6,80.909,2155.739,77.745,2150.159,81.08Zm-.082,5.157c-5.23,4.241-6.137,4.686-5.469,4.749.155.014,5.582-4.369,5.7-4.467A.183.183,0,0,0,2150.077,86.237Zm10.241-20.825c-4.356,2.31-3.835,2.063-7.865,3.95a.339.339,0,0,0,.287.614c3.354-1.563,3.966-1.834,7.848-3.988A.318.318,0,0,0,2160.318,65.412Zm12.039-6.606a51.039,51.039,0,0,1-4.857,2.512.31.31,0,0,0,.261.562,38.4,38.4,0,0,0,4.826-2.579A.273.273,0,1,0,2172.358,58.806Zm115.237-3.386c-.18.224.166.5.362.26,2.946-3.637,2.887-3.509,5.719-7.175a.207.207,0,0,0-.337-.24C2290.606,51.764,2289.649,52.9,2287.594,55.42Zm13.155-21.957c.194-.381-.456-.753-.673-.361-1.888,3.349-1.679,3-3.551,6.371-.318.582.466.929.7.5C2297.879,38.793,2299.521,35.836,2300.75,33.464Zm-12.65,1.122c.376-.695,1.237-2.274,2.319-4.5.187-.381-.425-.695-.642-.242-.813,1.676-1.732,3.435-2.234,4.346A.343.343,0,1,0,2288.1,34.585Zm20.187-14.656c.29-.465-.374-.861-.63-.452a46.591,46.591,0,0,0-3.342,6.451c-.213.458.509.794.749.284A46.834,46.834,0,0,1,2308.286,19.929Zm-4.192-7.477a.188.188,0,1,0-.241-.29c-1.7,1.694-2.282,2.344-3.646,3.887a.2.2,0,1,0,.321.229C2302.023,14.594,2302.434,14.129,2304.094,12.453Zm5.958,15.273c-.752,1.693-1.486,3.395-2.246,5.083a.343.343,0,1,0,.641.244c.76-1.69,1.484-3.395,2.209-5.1A.323.323,0,0,0,2310.052,27.726Zm-9.307,19.659a.481.481,0,0,0,.782.561,58.708,58.708,0,0,0,3.506-5.931c.228-.429-.517-.869-.773-.416C2303.145,43.562,2302.012,45.516,2300.745,47.385Zm11.181-1.557a.3.3,0,1,0-.565-.214q-1.3,2.771-2.632,5.526c-.176.358.391.624.582.222Q2310.641,48.6,2311.926,45.828Zm-19.391,17.578a.321.321,0,0,0,.521.375c2.55-3.884,2-3.059,4.954-7.359a.3.3,0,0,0-.481-.345C2295.222,59.362,2294.729,60.065,2292.536,63.406Zm-6.956,1.853c-.148.264.207.44.326.234,1.052-1.837,2.038-3.5,3.27-5.52.145-.224-.182-.421-.306-.218C2287.723,61.585,2286.613,63.463,2285.579,65.259Zm-17.748-46.437c-1.351,1.492-2.63,3.051-3.93,4.588-.284.332.244.826.588.42,2.282-2.7,2.173-2.638,3.883-4.619A.333.333,0,1,0,2267.832,18.823Zm-6.1-5.529a.224.224,0,1,0-.364-.262c-1.044,1.138-2.769,2.905-4.644,4.687a.235.235,0,0,0,.3.362C2258.614,16.574,2260.653,14.487,2261.729,13.294Zm8.634-6.5a.376.376,0,0,0-.611-.439c-1.316,1.865-2.365,3.192-2.86,3.774-.305.361.266.892.635.454C2268.064,9.955,2269.107,8.619,2270.362,6.8Zm-19.927,7.63a.251.251,0,1,0-.408-.293,41.573,41.573,0,0,1-3.73,3.64.274.274,0,0,0,.35.42A37.106,37.106,0,0,0,2250.435,14.426Zm-1.08,73.355c-.37.452.343,1.048.753.541a45.17,45.17,0,0,0,3.856-5.471.444.444,0,0,0-.1-.609C2253.154,81.735,2253.239,83.015,2249.355,87.781ZM2304.7-.553a.29.29,0,0,0-.472-.338c-1.931,2.453-5.677,7.247-6.034,7.7a.31.31,0,1,0,.5.362C2302.327,2.516,2303.528.97,2304.7-.553Zm9.622-.311a.207.207,0,0,0-.336-.242c-1.093,1.553-2.21,3.406-3.162,5.055-.16.274.221.468.349.249C2312.583,1.738,2313.6.167,2314.318-.864Zm.632,10.483a.256.256,0,1,0-.417-.3c-1.141,1.983-.85,1.465-2.481,4.2a.265.265,0,1,0,.431.31C2314.062,11.178,2314.025,11.257,2314.95,9.619Zm7.292-2.3c.037-.09-1.892,4.624-2.734,6.594a.314.314,0,1,0,.587.224c.894-2.068,2-4.884,2.677-6.616A.284.284,0,0,0,2322.242,7.315ZM2317.814,27.5a.3.3,0,0,0,.558.209c.8-1.633,1.549-3,2.741-5.185.214-.387-.307-.611-.456-.328C2318.825,25.454,2318.279,26.555,2317.814,27.5Z" transform="translate(-983.413 -49.283)" fill="#81c0af" style="mix-blend-mode: multiply;isolation: isolate"/>
    <path id="Trazado_411" data-name="Trazado 411" d="M2222.7,824.068c9.317-4.348,17.25-9.862,31.519-11.033-13.817-2.666-23.682-4.4-37.435-3.586-14.711.874-26.969-.551-38.126-6.58-16.359-8.841-22.526-16.476-34.909-24.89,13.631,3.686,26.213,2.516,45.672,7.895,19.62,5.424,32.2,18.4,57.664,23.531-6.941-3.5-12.547-8.09-17.449-11.346-7.464-4.958-23.417-13.356-34.6-26.273-2.587-2.988-5.365-5.837-7.811-8.988-9.377-12.084-10.717-16.16-16.136-22.306,20.794,12.238,34.813,11.06,49.243,28.956,10.389,12.884,9.934,26.031,26.033,36.973,6.571,4.465,13.734,6.009,21.251,8.225-10.842-6-13.175-18.642-14.9-30.932-3.239-23.114-4.628-27.042-1.33-29.265,2.265-1.526,6.049-.809,8.6,5.1,7,16.235-1.181,25.593-.329,36.787.45,5.919,2.59,11.281,7.212,15.006,8.043,6.484,17.9,7.714,35.87,16.6-16-11.621-30.748-25.548-34.3-44.366a31.235,31.235,0,0,1,16.341,13.685c10.35,17.24,6.093,21.449,35.255,40.264,20.76,13.393,33.7,26.735,46.693,47.106.88,1.38,6.234,8.346,4.13,9.811-3.568,2.483-9.015-7.516-9.93-9.38-9.689-19.74-38.075-54.25-53.99-37.907-9.051,9.293-7.028,27.872-30.737,40.142,1.1-12.5,2.5-25.781,10.26-35.646,7.367-9.367,19.611-14.778,31.691-12.01-16.974-10.94-24.766-14.963-43.129-8.034-16.174,6.1-29.1,16.649-53.917,8.743,10.126-6.332,20.507-12.771,32.165-15.364,13.72-3.053,27.978-.523,41.8,2.141-14.187-6.473-32.123-15.914-47.6-9.165-15.948,6.955-26.648,23.045-43.061,29.054-13.121,4.8-27.743,2.276-41.177-1.562C2180.419,833.4,2203.686,832.943,2222.7,824.068Z" transform="translate(-1925.054 537.205) rotate(-22)" fill="#fdb99d" style="mix-blend-mode: multiply;isolation: isolate"/>
    <g id="Grupo_180" data-name="Grupo 180" transform="matrix(0.956, 0.292, -0.292, 0.956, 298.598, 40.715)">
      <path id="Trazado_158" data-name="Trazado 158" d="M0,43.632A64.9,64.9,0,0,1,124.549,68.978h1.587c.079-1.23.079-2.776.079-3.927A64.9,64.9,0,0,0,0,43.632Z" transform="translate(24.394 27.409)" fill="#fdec98"/>
      <path id="Trazado_160" data-name="Trazado 160" d="M11.106,2.816l.357-2.3L0,0Z" transform="translate(4.403 78.894)" fill="#fdec98"/>
      <path id="Trazado_161" data-name="Trazado 161" d="M7.5,12.891,0,0,4.839,14.16A19.976,19.976,0,0,0,7.5,12.891Z" transform="translate(51.882 14.16)" fill="#fdec98"/>
      <path id="Trazado_162" data-name="Trazado 162" d="M8.052,21.7,0,0,3.689,22.689C5.037,22.252,6.545,22.054,8.052,21.7Z" transform="translate(62.949 2.856)" fill="#fdec98"/>
      <path id="Trazado_163" data-name="Trazado 163" d="M4.165,0,0,23.085c1.507.159,3.015.159,4.6.317Z" transform="translate(88.89 0)" fill="#fdec98"/>
      <path id="Trazado_164" data-name="Trazado 164" d="M.119,0,0,14.359H2.816Z" transform="translate(78.577 8.369)" fill="#fdec98"/>
      <path id="Trazado_165" data-name="Trazado 165" d="M14.2,17.492,0,0,10.551,19.595C11.741,18.881,13.01,18.246,14.2,17.492Z" transform="translate(35.381 15.033)" fill="#fdec98"/>
      <path id="Trazado_166" data-name="Trazado 166" d="M10.71,4.244,0,0,9.678,6.069A14.148,14.148,0,0,1,10.71,4.244Z" transform="translate(12.733 51.922)" fill="#fdec98"/>
      <path id="Trazado_167" data-name="Trazado 167" d="M19.158,3.689,0,0,17.889,7.378C18.206,6.386,18.643,5.156,19.158,3.689Z" transform="translate(0 63.345)" fill="#fdec98"/>
      <path id="Trazado_168" data-name="Trazado 168" d="M17.889,10.67,0,0,15.35,13.8A16.537,16.537,0,0,1,17.889,10.67Z" transform="translate(13.566 36.294)" fill="#fdec98"/>
      <path id="Trazado_169" data-name="Trazado 169" d="M9.639,8.092,0,0,7.735,9.956C8.33,9.321,8.925,8.766,9.639,8.092Z" transform="translate(29.828 30.661)" fill="#fdec98"/>
      <path id="Trazado_170" data-name="Trazado 170" d="M.793,5.355,13.09,0,0,2.935C.159,3.728.635,4.363.793,5.355Z" transform="translate(153.187 64.972)" fill="#fdec98"/>
      <path id="Trazado_172" data-name="Trazado 172" d="M1.785,9.321,11.9,0,0,7.1A15.546,15.546,0,0,1,1.785,9.321Z" transform="translate(140.97 40.181)" fill="#fdec98"/>
      <path id="Trazado_173" data-name="Trazado 173" d="M5.117,0,0,13.962a8.563,8.563,0,0,1,2.737.635Z" transform="translate(101.186 9.956)" fill="#fdec98"/>
      <path id="Trazado_174" data-name="Trazado 174" d="M.595,4.165,19.039,0,0,.476C.159,1.666.436,2.975.595,4.165Z" transform="translate(155.646 77.744)" fill="#fdec98"/>
      <path id="Trazado_175" data-name="Trazado 175" d="M1.9,10.551,18.722,0,0,7.378C.595,8.33,1.309,9.559,1.9,10.551Z" transform="translate(147.039 48.788)" fill="#fdec98"/>
      <path id="Trazado_176" data-name="Trazado 176" d="M11.463,0,0,19.713c1.428.516,2.856,1.19,4.2,1.587Z" transform="translate(111.023 7.695)" fill="#fdec98"/>
      <path id="Trazado_177" data-name="Trazado 177" d="M3.292,16.7,16.421,0,0,14C1.23,14.874,2.221,15.826,3.292,16.7Z" transform="translate(131.213 24.553)" fill="#fdec98"/>
      <path id="Trazado_178" data-name="Trazado 178" d="M9.083,0,0,11.106c.754.436,1.587,1.031,2.34,1.388Z" transform="translate(122.486 21.142)" fill="#fdec98"/>
    </g>
    <text id="SHOPPING" transform="translate(280.373 213.963)" fill="#895967" font-size="28" font-family="OpenSans-Light, Open Sans" font-weight="300" letter-spacing="0.08em"><tspan x="-76.363" y="0">SHOPPING</tspan></text>
    <g id="Grupo_178" data-name="Grupo 178" transform="translate(114.971 92.901)">
      <g id="Grupo_142" data-name="Grupo 142" transform="translate(0 0)">
        <g id="Grupo_140" data-name="Grupo 140">
          <path id="Trazado_84" data-name="Trazado 84" d="M101.032,50.017c7.011-10.241,13.375-22.486,13.246-35.215,0-5.234-3.2-9.951-8.885-8.594C90.467,9.536,90.952,34.8,91.016,45.979c.065,3.3,1.163,7.98.452,9.951-1,3.166-10.726,12.018-11.211,11.825,0,0-1.454-8.949-6.817-13.537-6.365-5.2-13.375-4.491-18.9-2.94-36.7,10.985-31.855,53.5-32.017,53.566a67.012,67.012,0,0,1-15.346,3.974c-.452,3.715-5.137,8.981-1.971,9.4a56.481,56.481,0,0,0,19.061-5.137c.549-.291,7.948,22.971,38.575,14.861,25.717-6.785,39.157-39.415,38.7-67.619,0-1.228-.129-2.358-.129-3.651C101.29,54.443,101.161,52.214,101.032,50.017ZM32.992,100.934a7.263,7.263,0,0,1-.485-1.906C30.8,82.68,37.257,63.845,55.058,56.35c10.694-4.555,19.352,3.845,19.417,14.635a8.52,8.52,0,0,1,.065,1.745C70.727,81.259,34.963,102.032,32.992,100.934Zm27.784,20.1C40.552,127.943,33.8,107.718,33.8,107.718,66.527,91.726,73.312,78.836,74.087,79.256c0,0-1.648,12.051-13.6,23.94,1.745,1.971,3.231,3.974,4.943,5.848,9.3-8.885,15.378-27.106,14.894-35.344,0,0,9.4-8.529,11.566-12.148,0,0,.129,2.52.129,3.715C92.438,86.783,82.778,113.4,60.776,121.029Zm39.706-77.538s-.775-10.661-.775-15.96c-.065-4.911-.517-14.732,5.977-16.057,2.488-.485,3.586,2.229,3.586,4.135C109.27,25.464,100.967,43.556,100.482,43.491Z" transform="translate(-4.116 -5.973)" fill="#f59799"/>
        </g>
        <g id="Grupo_141" data-name="Grupo 141" transform="translate(102.828 34.319)">
          <path id="Trazado_85" data-name="Trazado 85" d="M210.254,60.537c-2.94,2.746-10.694,2.262-9.208,5.751,4.491,3.2,5.751,8.788,5.234,14.118-.743,6.332-6.978,10.4-13.666,8.271-6.978-2.326-10.08-8.4-10.209-17.252-.065-7.657,4.975-12.955,5.2-19.158.291-5.783-6.785-12.568-7.172-15.734-.388-2.262,1.357-7.528,1.971-12.18,1.357-8.852-6.042-9.369-7.56-4.814a30.132,30.132,0,0,0-1.066,8.141c0,2.908,1.551,6.591,1.745,8.788.291,3-2.1,8.368-3.683,12.5h0c-2.2,2.875-6.526,13.02-13.7,10.629C153.232,57.985,152,51.846,152,47.291c0-.452-.194-1.389,0-1.389,3.909-.743,16.574-5.2,16.348-14.668,0-4.652-3.231-8.5-7.237-8.561-8.949-.129-13.989,7.431-16.024,15.12l-.065-.065c-1.26,3.618-5.783,16.509-10.435,15.8-.775-.194-1.971-.937-1.971-3.78,0-9.175,5.945-17.349,5.945-26.654,0-3.651-1.971-7.269-5.718-8.174-5.169-1.163-12.051,6.4-12.18,6.4,0,0,.129-1.712.129-2.358,0-3.457-1.745-6.978-5.46-7.528-4.814-.9-8.174,3.1-10.565,6.526.355-2.262.808-4.685,1.1-6.978-2.746-.452-5.718-.808-8.529-1.2C96.338,16.7,95.563,24,94.3,30.588,93.5,34.562,89.037,45.9,84.062,45.9c-.775,0-2-.614-2-3.392C81.9,33.043,88.1,24.353,88.1,14.693c0-3.457-2.035-6.946-5.977-7.172-5.557-.258-12.051,8.723-12.277,8.594,0,0,.226-1.68.226-2.358-.162-3.3-1.971-6.785-5.686-6.72-4.846.162-8.335,4.685-10.6,8.529.355-2.358.743-4.814,1.228-7.269-2.908.194-5.751.258-8.658.452-1,6.752-1.745,13.925-2.908,20.548-1.034,3.877-5.137,16.929-10.4,18-.743.162-1.874-.258-1.938-3.069-.226-11.534,3.425-23.391,5.783-34.731-2.778.291-5.589.678-8.335.969-1.68,6.881-3.166,13.8-4.265,20.774-.291,1.228-.42,1.938-.678,3.263-.84,3.974-2.52,13.7-6.3,14.991-.775.258-2.165-.065-2.165-2.94,0-4.717,1-9.337,1.906-14.086,1.26-6.978,2.552-13.989,4.1-20.968-2.843.485-5.589.969-8.4,1.454-1.615,7.011-2.94,13.989-4.1,20.838A84.283,84.283,0,0,0,7.3,47.291c0,4.394,1.292,10.92,7.108,9.757,4.458-.937,8.658-9.337,8.723-9.337,0,0,2.778,7.56,7.14,6.849,3.909-.549,6.849-3.489,9.111-7.269-.323,2-.711,4.006-.937,5.977,2.908-.323,5.751-.549,8.691-.775.969-5.331,2-10.726,2.972-16.251.9-5.008,3.263-20.9,9.692-21.549.808-.1,1.454.517,1.325,2,0,11.5-4.038,24-6.461,35.474,3.1-.129,6.138-.194,9.143-.194,1.518-6.4,2.488-13.052,3.845-19.223.872-4.3,3.78-18.512,10.015-18.512,1.2,0,1.648.969,1.648,2,.065,9.3-5.912,18.254-6.009,27.687-.194,4.135,2.294,8.561,6.817,8.788,4.2.226,7.721-2.455,10.4-6.171a51.871,51.871,0,0,0-1,6.235c2.843.291,5.751.549,8.561.9,1.034-5.2,1.906-10.4,2.972-15.7.84-4.265,3.489-20.321,9.725-19.934.775.162,1.292.775,1.292,2.358-.032,11.114-4.038,23.261-6.4,34.149,2.972.42,5.945.9,8.981,1.486,1.486-6.235,2.52-12.568,3.78-18.512.872-3.748,3.942-17.737,9.918-16.7a2.145,2.145,0,0,1,1.583,2.262c.129,8.981-5.783,17.414-5.912,26.589,0,4.135,2.229,8.852,6.785,9.918,5.848,1.422,10.5-3.909,13.246-9.434.969,7.366,4.458,14.635,11.857,16.8,9.208,2.778,15.928-9.175,18.609-15.669h0c1.2-2.972,2.391-5.783,3.554-8.561a18.714,18.714,0,0,1,2.035,7.754c0,3.037-1.357,4.781-2.52,7.5a38.7,38.7,0,0,0-2.746,10.241c-.937,11.921,4.038,22.357,15.055,26.266a20.312,20.312,0,0,0,26.137-13.44C219.107,70.972,213.55,58.954,210.254,60.537ZM160.792,29.07c.937.291,1.486,1.518,1.551,2.94,0,5.525-9.5,10.985-10.177,10.306C152,42.089,155.041,27.2,160.792,29.07Z" transform="translate(-7.299 -7.035)" fill="#f59799"/>
        </g>
      </g>
    </g>
    <g id="_35_" data-name="35%" transform="translate(511.137 37.345)">
      <text id="_35" data-name="35" transform="translate(19.242 131.195)" fill="#db697f" font-size="120" font-family="OpenSans-Bold, Open Sans" font-weight="700"><tspan x="0" y="0">35</tspan></text>
      <text id="OFF" transform="translate(163.252 129.803)" fill="#db697f" font-size="20" font-family="OpenSans-Bold, Open Sans" font-weight="700"><tspan x="0" y="0">OFF</tspan></text>
      <text id="_" data-name="%" transform="translate(156.666 109.871)" fill="#db697f" font-size="57" font-family="OpenSans-Bold, Open Sans" font-weight="700" letter-spacing="-0.02em"><tspan x="0" y="0">%</tspan></text>
      <text id="Compra_mínimo_500.000_y_recibe" data-name="Compra mínimo
$500.000 y recibe" transform="translate(115.796 12)" fill="#8c5152" font-size="14" font-family="SegoeUI, Segoe UI"><tspan x="-50.005" y="0">Compra mínimo</tspan><tspan font-family="SegoeUI-Bold, Segoe UI" font-weight="700"><tspan x="-57.733" y="15">$500.000 y recibe</tspan></tspan></text>
      <g id="Grupo_6131" data-name="Grupo 6131" transform="translate(19.242 146.569)">
        <rect id="Rectángulo_5" data-name="Rectángulo 5" width="184.314" height="22.56" transform="translate(0)" fill="#f59799"/>
        <text id="Con_el_cupón:_HOLY35" data-name="Con el cupón: HOLY35" transform="translate(89.621 17.086)" fill="#fff" font-size="16" font-family="SegoeUI-Bold, Segoe UI" font-weight="700"><tspan x="-83.258" y="0">Con el cupón: </tspan><tspan y="0" fill="#ffeb98">HOLY35</tspan></text>
      </g>
      <path id="Trazado_209" data-name="Trazado 209" d="M178.742,759.606H159.5V623.5h36.145" transform="translate(-159.5 -601.756)" fill="none" stroke="#e8dbdb" stroke-width="4"/>
      <path id="Trazado_210" data-name="Trazado 210" d="M176.4,759.606h19.242V623.5H159.5" transform="translate(27.431 -601.756)" fill="none" stroke="#e8dbdb" stroke-width="4"/>
      <g id="Grupo_3" data-name="Grupo 3" transform="translate(9.94 3.195)">
        <g id="Grupo_1" data-name="Grupo 1">
          <path id="Trazado_1" data-name="Trazado 1" d="M17.421,40.51A13.968,13.968,0,0,0,20.4,38.058,17.347,17.347,0,0,1,23.372,34.7a2.908,2.908,0,0,1,2.7-.661,6.4,6.4,0,0,1,2.893,1.3c1.047.744,1.9,1.515,2.838,2.2A5.5,5.5,0,0,0,34.779,38.8c.413.11.882,0,.882-.386a2.333,2.333,0,0,0-.11-1.378c-.358-.634-.661-1.35-.992-1.984-.413-.8-.689-1.681-1.047-2.507-.3-.772-.661-1.543-.909-2.342a5.809,5.809,0,0,1-.276-2.287,4.535,4.535,0,0,1,2.452-3.058c1.157-.744,2.287-1.378,3.389-2.149a8.293,8.293,0,0,0,1.874-1.681c.055-.165.248-.551,0-.661a2.3,2.3,0,0,0-1.46-.331c-1.736-.083-3.554.11-5.318,0a6.082,6.082,0,0,1-3.665-.827c-1.9-1.185-2.59-3.472-3.251-5.428-.276-.909-.551-1.846-.909-2.755-.138-.413-.331-.854-.551-1.405a2.425,2.425,0,0,0-.744-.992c-.882-.551-1.405.634-1.681,1.35a18.085,18.085,0,0,0-.468,3.279c-.193.964-.3,1.984-.551,2.921a7.994,7.994,0,0,1-.992,2.921,5.33,5.33,0,0,1-4.629,1.984,45.049,45.049,0,0,0-4.712-.055c-.579,0-3.417,0-2.673,1.185v.11c.3.854,1.378,1.433,2.2,1.9a11.855,11.855,0,0,1,1.323.716c.634.523,1.267.882,1.929,1.405.661.413,1.3.882,2.067,1.433A4.136,4.136,0,0,1,17.035,29.1a4.438,4.438,0,0,1,.413,3.086,17.435,17.435,0,0,1-1.212,3.8,11.376,11.376,0,0,0-1.1,3.444c0,.634,0,1.488.634,1.653A2.43,2.43,0,0,0,17.421,40.51ZM34.559,37.4c.11.083,0,.138,0,.083l-.165-.083.11.138c.055.165,0,.22-.11.331h-.055c-.193-.11-.413-.386-.248-.634S34.5,37.287,34.559,37.4Zm-1.3-1.708.055.3v.083c.138,0,.138.193.138.276l-.193.11c-.165.138-.22,0-.3-.055a.413.413,0,0,1,0-.661c-.11-.055,0-.055,0-.055h.3ZM24.006,11.083s-.165-.165-.276-.165l-.055-.248.165-.055a1.529,1.529,0,0,1,.524.055c.11,0,.276.248.11.358h0l-.11-.165-.11-.055-.11-.138v.138l.11.11c0,.11.11.276,0,.276C24.144,11.248,24.061,11.193,24.006,11.083Zm-.165,1.681a.43.43,0,0,1,.634-.248.623.623,0,0,1,.165.358v.11h0v.193C24.364,13.26,23.73,13.122,23.841,12.764Zm0,1.956a.5.5,0,0,1,.8-.413.545.545,0,0,1,.083.8h0c0,.138-.083.193-.248.248C24.144,15.464,23.841,15.051,23.841,14.72Zm.165,2.48c-.165-.386.248-.964.524-.882.248,0,.524.193.524.3l.055.331v.11c.193.358-.055.468-.386.468C24.474,17.53,24.061,17.475,24.006,17.2Zm.716,2.342c-.358-.055-.661-.22-.716-.441-.165-.413.358-.827.716-.827.22,0,.386.055.579.413v.165a.565.565,0,0,1,.138.468C25.3,19.542,24.943,19.542,24.722,19.542Zm7.192,14.493a.394.394,0,0,1,.276.22l.138.276a.478.478,0,0,1-.3.413c-.358.165-.744-.248-.744-.634C31.28,34.035,31.556,33.9,31.914,34.035Zm-3.389-4.877c.413.248.827.882.276,1.3a.833.833,0,0,1-1.1-.193c-.22-.276-.22-1.02.358-1.02.11,0,.3,0,.331.11v-.11S28.387,29.1,28.525,29.158Zm-3.362.827a1.027,1.027,0,0,1-.689-.413.49.49,0,0,1,.468-.634.627.627,0,0,1,.606.937h0A.328.328,0,0,1,25.163,29.985Zm1.9-2.48a1.368,1.368,0,0,1,.468.579l.11.193a.551.551,0,0,1-.331.882,1.012,1.012,0,0,1-1.075-.854C26.183,27.863,26.486,27.284,27.064,27.5Zm1.323-1.047c.138.3.138.413-.083.606a.843.843,0,0,1-1.075-.193c-.22-.413-.11-1.047.468-1.047A.692.692,0,0,1,28.387,26.458Zm-.083-.992a.925.925,0,0,1-1.075-.606c-.11-.441.248-1.1.827-.992a.826.826,0,0,1,.524.8.241.241,0,0,1,.11.22A.744.744,0,0,1,28.3,25.466Zm1.763-1.488h0c.165.3.22.909-.165.964a.923.923,0,0,1-1.1-.716.936.936,0,0,1,.689-.992.924.924,0,0,1,.744.358c0,.165,0,.276-.138.386Zm-3.582-.5c-.055-.138-.248-.3-.248-.468,0-.248.358-.413.579-.413l.413.248.248.3c.165.193-.11.5-.358.606A1.317,1.317,0,0,1,26.486,23.482Zm5.538.386a.887.887,0,0,1-1.1-.22c-.193-.468,0-1.075.634-1.047.193.11.413.165.468.358l.11.193A.419.419,0,0,1,32.024,23.868Zm5.29-1.956c-.358.22-.606-.055-.689-.413-.165-.165,0-.413.3-.468a.579.579,0,0,1,.331.248h.055l.055.055-.055-.3h.055A.563.563,0,0,1,37.314,21.911Zm1.515-1.3H39v.165c0,.083.055.138,0,.248,0,.248-.358.248-.468.055-.165-.055-.165-.22-.11-.413l.165-.055-.055-.138.055-.055A.232.232,0,0,1,38.83,20.616ZM24.061,21.2c-.22-.413.193-1.047.661-1.157a.72.72,0,0,1,.716.882c.11.165-.083.413-.331.524A1.119,1.119,0,0,1,24.061,21.2Zm10.911.3a.39.39,0,0,1,.386.358c.248.22.3.634.055.744-.386.358-.854-.11-.909-.468A.51.51,0,0,1,34.972,21.5Zm-1.763.634.3.083h0c.413.276.634.744.11.964a.69.69,0,0,1-1.019-.413A.514.514,0,0,1,33.209,22.132Zm-8.321,0a.836.836,0,0,1,.661.441c.165.028.165.193.165.276.138.331.248.8-.165.964a1.11,1.11,0,0,1-1.3-.468C24.006,22.959,24.254,22.077,24.888,22.132Zm-2.425,1.212c-.248-.193-.083-.771.331-.854a.524.524,0,0,1,.634.22c.193.055.193.3,0,.468.193.165.193.413-.055.468A.922.922,0,0,1,22.463,23.344Zm-11.545-.634a.491.491,0,0,1-.468-.386c-.165-.248.083-.413.413-.468a.364.364,0,0,1,.3.22c.11.055.165.138.11.248h.055C11.331,22.573,11.166,22.766,10.918,22.711Zm1.378,0a.461.461,0,0,1,.661-.5.957.957,0,0,1,.276.358c.248.193.358.606-.055.661A.675.675,0,0,1,12.3,22.711Zm2.011.882c-.22-.358-.055-.992.358-.992.3,0,.634.358.524.579l.11.165c.055.138-.11.3-.165.413A.9.9,0,0,1,14.307,23.592Zm2.287.634a.7.7,0,0,1-.579-.8.649.649,0,0,1,.854-.276c.248.028.358.331.358.606C17.283,24.116,16.869,24.419,16.594,24.226Zm1.708.634c-.248-.193-.606-.441-.606-.744-.083-.468.606-.689.992-.634a.453.453,0,0,1,.468.386c.055.193.165.358.055.551.193.11.248.441,0,.468C18.936,25.053,18.55,24.887,18.3,24.86Zm1.433.028c-.276-.468.248-1.019.716-1.075a.7.7,0,0,1,.634.413.471.471,0,0,1,.055.634c.193.276-.055.606-.468.606C20.4,25.356,19.845,25.19,19.735,24.887Zm1.956.882c-.413-.468.055-1.3.634-1.35a1.234,1.234,0,0,1,.882.3.546.546,0,0,1,0,.744c.055.248,0,.468-.358.661A1.185,1.185,0,0,1,21.691,25.769Zm1.1.689c.055-.22.413-.22.579-.331.138-.193.055-.551.055-.771v-.3c0-.165-.055-.193,0-.331l.413-.248a4.175,4.175,0,0,1,.8.055,3.073,3.073,0,0,1,1.075-.3c.358,0,.468.441.468.661,0,.3-.11.634,0,.882a2.124,2.124,0,0,0,.524.579c.11.055.11.11.11.3-.11.165-.22.413-.468.413l-.386.055c-.248,0-.358.276-.413.386a1.018,1.018,0,0,1-.5.524c-.579.248-.689-.248-1.047-.524-.331-.276-.909-.11-1.212-.5C22.738,26.816,22.628,26.568,22.793,26.458ZM21.14,27.7c-.276-.248-.055-.579.193-.689a.531.531,0,0,1,.772,0l.22.276.055.165c.193.248-.055.413-.276.413A1.451,1.451,0,0,1,21.14,27.7Zm1.433,1.763c-.413-.22-.248-.744,0-1.157a.9.9,0,0,1,1.1-.22,1.094,1.094,0,0,1,.331.854c.248.3.248.634-.165.689A1.326,1.326,0,0,1,22.573,29.461ZM21.554,31c-.276-.22-.055-.937.248-1.019a.747.747,0,0,1,.937.055c.055.165.248.331.11.579a.351.351,0,0,1-.11.634A1.417,1.417,0,0,1,21.554,31Zm7.688-.11a.625.625,0,0,1,.771.606l-.11.055v.11a.685.685,0,0,1-.882.3C28.745,31.666,28.745,31,29.241,30.894Zm-8.79,1.3c-.055-.413.22-.882.689-.689a.678.678,0,0,1,.551.689c.11.248.22.661-.193.771A.888.888,0,0,1,20.451,32.189Zm10,.193a.631.631,0,0,1,.579.22l.248.248a1.666,1.666,0,0,1,0,.524.6.6,0,0,1-.937.055C30.1,33.1,29.9,32.437,30.453,32.382ZM20.038,34.421a1.2,1.2,0,0,1-.579-.524c-.138-.22.276-.524.524-.634.22-.055.468.11.634.413.248.165.661.579.11.744A2.817,2.817,0,0,1,20.038,34.421Zm-1.267,1.571c-.22-.248-.276-.8,0-.937h.055l-.055-.11h.22c.331.11.8.441.579.8A.764.764,0,0,1,18.771,35.992ZM18.109,37.7a.726.726,0,0,1-.5-.413c0-.165.083-.165.276-.248h0v-.055l.165.055H18.3a.408.408,0,0,1,0,.358v.248Z" transform="translate(-8.315 -8.489)" fill="#d9afb1"/>
        </g>
        <g id="Grupo_2" data-name="Grupo 2" transform="translate(8.527 30.313)">
          <path id="Trazado_2" data-name="Trazado 2" d="M9.01,10h0l-.193-.22-.193-.193c0,.358.138.413.441.413Z" transform="translate(-8.624 -9.589)" fill="#d9afb1"/>
        </g>
      </g>
    </g>
    <g id="_20_" data-name="20%" transform="translate(993.987 35.09)">
      <text id="OFF-2" data-name="OFF" transform="translate(163.252 128.98)" fill="#db697f" font-size="20" font-family="OpenSans-Bold, Open Sans" font-weight="700"><tspan x="0" y="0">OFF</tspan></text>
      <g id="Grupo_6335" data-name="Grupo 6335" transform="translate(0 0)">
        <text id="_20" data-name="20" transform="translate(19.242 130.373)" fill="#db697f" font-size="120" font-family="OpenSans-Bold, Open Sans" font-weight="700"><tspan x="0" y="0">20</tspan></text>
        <text id="_2" data-name="%" transform="translate(156.666 109.048)" fill="#db697f" font-size="57" font-family="OpenSans-Bold, Open Sans" font-weight="700" letter-spacing="-0.02em"><tspan x="0" y="0">%</tspan></text>
        <text id="Compra_mínimo_200.000_y_recibe" data-name="Compra mínimo
$200.000 y recibe" transform="translate(109.492 12)" fill="#8c5152" font-size="14" font-family="SegoeUI, Segoe UI"><tspan x="-50.005" y="0">Compra mínimo</tspan><tspan font-family="SegoeUI-Bold, Segoe UI" font-weight="700"><tspan x="-57.733" y="15">$200.000 y recibe</tspan></tspan></text>
        <g id="Grupo_6320" data-name="Grupo 6320" transform="translate(19.242 145.746)">
          <rect id="Rectángulo_5-2" data-name="Rectángulo 5" width="184.314" height="22.56" transform="translate(0 0)" fill="#f59799"/>
          <text id="Con_el_cupón:_HOLY20" data-name="Con el cupón: HOLY20" transform="translate(91.655 17)" fill="#fff" font-size="16" font-family="SegoeUI-Bold, Segoe UI" font-weight="700"><tspan x="-83.258" y="0">Con el cupón: </tspan><tspan y="0" fill="#ffeb98">HOLY20</tspan></text>
        </g>
        <path id="Trazado_371" data-name="Trazado 371" d="M178.742,759.606H159.5V623.5h36.145" transform="translate(-159.5 -602.579)" fill="none" stroke="#e8dbdb" stroke-width="4"/>
        <path id="Trazado_370" data-name="Trazado 370" d="M176.4,759.606h19.242V623.5H159.5" transform="translate(27.431 -602.579)" fill="none" stroke="#e8dbdb" stroke-width="4"/>
        <g id="Grupo_6322" data-name="Grupo 6322" transform="translate(9.94 2.373)">
          <g id="Grupo_1-2" data-name="Grupo 1">
            <path id="Trazado_1-2" data-name="Trazado 1" d="M17.421,40.51A13.968,13.968,0,0,0,20.4,38.058,17.347,17.347,0,0,1,23.372,34.7a2.908,2.908,0,0,1,2.7-.661,6.4,6.4,0,0,1,2.893,1.3c1.047.744,1.9,1.515,2.838,2.2A5.5,5.5,0,0,0,34.779,38.8c.413.11.882,0,.882-.386a2.333,2.333,0,0,0-.11-1.378c-.358-.634-.661-1.35-.992-1.984-.413-.8-.689-1.681-1.047-2.507-.3-.772-.661-1.543-.909-2.342a5.809,5.809,0,0,1-.276-2.287,4.535,4.535,0,0,1,2.452-3.058c1.157-.744,2.287-1.378,3.389-2.149a8.293,8.293,0,0,0,1.874-1.681c.055-.165.248-.551,0-.661a2.3,2.3,0,0,0-1.46-.331c-1.736-.083-3.554.11-5.318,0a6.082,6.082,0,0,1-3.665-.827c-1.9-1.185-2.59-3.472-3.251-5.428-.276-.909-.551-1.846-.909-2.755-.138-.413-.331-.854-.551-1.405a2.425,2.425,0,0,0-.744-.992c-.882-.551-1.405.634-1.681,1.35a18.085,18.085,0,0,0-.468,3.279c-.193.964-.3,1.984-.551,2.921a7.994,7.994,0,0,1-.992,2.921,5.33,5.33,0,0,1-4.629,1.984,45.049,45.049,0,0,0-4.712-.055c-.579,0-3.417,0-2.673,1.185v.11c.3.854,1.378,1.433,2.2,1.9a11.855,11.855,0,0,1,1.323.716c.634.523,1.267.882,1.929,1.405.661.413,1.3.882,2.067,1.433A4.136,4.136,0,0,1,17.035,29.1a4.438,4.438,0,0,1,.413,3.086,17.435,17.435,0,0,1-1.212,3.8,11.376,11.376,0,0,0-1.1,3.444c0,.634,0,1.488.634,1.653A2.43,2.43,0,0,0,17.421,40.51ZM34.559,37.4c.11.083,0,.138,0,.083l-.165-.083.11.138c.055.165,0,.22-.11.331h-.055c-.193-.11-.413-.386-.248-.634S34.5,37.287,34.559,37.4Zm-1.3-1.708.055.3v.083c.138,0,.138.193.138.276l-.193.11c-.165.138-.22,0-.3-.055a.413.413,0,0,1,0-.661c-.11-.055,0-.055,0-.055h.3ZM24.006,11.083s-.165-.165-.276-.165l-.055-.248.165-.055a1.529,1.529,0,0,1,.524.055c.11,0,.276.248.11.358h0l-.11-.165-.11-.055-.11-.138v.138l.11.11c0,.11.11.276,0,.276C24.144,11.248,24.061,11.193,24.006,11.083Zm-.165,1.681a.43.43,0,0,1,.634-.248.623.623,0,0,1,.165.358v.11h0v.193C24.364,13.26,23.73,13.122,23.841,12.764Zm0,1.956a.5.5,0,0,1,.8-.413.545.545,0,0,1,.083.8h0c0,.138-.083.193-.248.248C24.144,15.464,23.841,15.051,23.841,14.72Zm.165,2.48c-.165-.386.248-.964.524-.882.248,0,.524.193.524.3l.055.331v.11c.193.358-.055.468-.386.468C24.474,17.53,24.061,17.475,24.006,17.2Zm.716,2.342c-.358-.055-.661-.22-.716-.441-.165-.413.358-.827.716-.827.22,0,.386.055.579.413v.165a.565.565,0,0,1,.138.468C25.3,19.542,24.943,19.542,24.722,19.542Zm7.192,14.493a.394.394,0,0,1,.276.22l.138.276a.478.478,0,0,1-.3.413c-.358.165-.744-.248-.744-.634C31.28,34.035,31.556,33.9,31.914,34.035Zm-3.389-4.877c.413.248.827.882.276,1.3a.833.833,0,0,1-1.1-.193c-.22-.276-.22-1.02.358-1.02.11,0,.3,0,.331.11v-.11S28.387,29.1,28.525,29.158Zm-3.362.827a1.027,1.027,0,0,1-.689-.413.49.49,0,0,1,.468-.634.627.627,0,0,1,.606.937h0A.328.328,0,0,1,25.163,29.985Zm1.9-2.48a1.368,1.368,0,0,1,.468.579l.11.193a.551.551,0,0,1-.331.882,1.012,1.012,0,0,1-1.075-.854C26.183,27.863,26.486,27.284,27.064,27.5Zm1.323-1.047c.138.3.138.413-.083.606a.843.843,0,0,1-1.075-.193c-.22-.413-.11-1.047.468-1.047A.692.692,0,0,1,28.387,26.458Zm-.083-.992a.925.925,0,0,1-1.075-.606c-.11-.441.248-1.1.827-.992a.826.826,0,0,1,.524.8.241.241,0,0,1,.11.22A.744.744,0,0,1,28.3,25.466Zm1.763-1.488h0c.165.3.22.909-.165.964a.923.923,0,0,1-1.1-.716.936.936,0,0,1,.689-.992.924.924,0,0,1,.744.358c0,.165,0,.276-.138.386Zm-3.582-.5c-.055-.138-.248-.3-.248-.468,0-.248.358-.413.579-.413l.413.248.248.3c.165.193-.11.5-.358.606A1.317,1.317,0,0,1,26.486,23.482Zm5.538.386a.887.887,0,0,1-1.1-.22c-.193-.468,0-1.075.634-1.047.193.11.413.165.468.358l.11.193A.419.419,0,0,1,32.024,23.868Zm5.29-1.956c-.358.22-.606-.055-.689-.413-.165-.165,0-.413.3-.468a.579.579,0,0,1,.331.248h.055l.055.055-.055-.3h.055A.563.563,0,0,1,37.314,21.911Zm1.515-1.3H39v.165c0,.083.055.138,0,.248,0,.248-.358.248-.468.055-.165-.055-.165-.22-.11-.413l.165-.055-.055-.138.055-.055A.232.232,0,0,1,38.83,20.616ZM24.061,21.2c-.22-.413.193-1.047.661-1.157a.72.72,0,0,1,.716.882c.11.165-.083.413-.331.524A1.119,1.119,0,0,1,24.061,21.2Zm10.911.3a.39.39,0,0,1,.386.358c.248.22.3.634.055.744-.386.358-.854-.11-.909-.468A.51.51,0,0,1,34.972,21.5Zm-1.763.634.3.083h0c.413.276.634.744.11.964a.69.69,0,0,1-1.019-.413A.514.514,0,0,1,33.209,22.132Zm-8.321,0a.836.836,0,0,1,.661.441c.165.028.165.193.165.276.138.331.248.8-.165.964a1.11,1.11,0,0,1-1.3-.468C24.006,22.959,24.254,22.077,24.888,22.132Zm-2.425,1.212c-.248-.193-.083-.771.331-.854a.524.524,0,0,1,.634.22c.193.055.193.3,0,.468.193.165.193.413-.055.468A.922.922,0,0,1,22.463,23.344Zm-11.545-.634a.491.491,0,0,1-.468-.386c-.165-.248.083-.413.413-.468a.364.364,0,0,1,.3.22c.11.055.165.138.11.248h.055C11.331,22.573,11.166,22.766,10.918,22.711Zm1.378,0a.461.461,0,0,1,.661-.5.957.957,0,0,1,.276.358c.248.193.358.606-.055.661A.675.675,0,0,1,12.3,22.711Zm2.011.882c-.22-.358-.055-.992.358-.992.3,0,.634.358.524.579l.11.165c.055.138-.11.3-.165.413A.9.9,0,0,1,14.307,23.592Zm2.287.634a.7.7,0,0,1-.579-.8.649.649,0,0,1,.854-.276c.248.028.358.331.358.606C17.283,24.116,16.869,24.419,16.594,24.226Zm1.708.634c-.248-.193-.606-.441-.606-.744-.083-.468.606-.689.992-.634a.453.453,0,0,1,.468.386c.055.193.165.358.055.551.193.11.248.441,0,.468C18.936,25.053,18.55,24.887,18.3,24.86Zm1.433.028c-.276-.468.248-1.019.716-1.075a.7.7,0,0,1,.634.413.471.471,0,0,1,.055.634c.193.276-.055.606-.468.606C20.4,25.356,19.845,25.19,19.735,24.887Zm1.956.882c-.413-.468.055-1.3.634-1.35a1.234,1.234,0,0,1,.882.3.546.546,0,0,1,0,.744c.055.248,0,.468-.358.661A1.185,1.185,0,0,1,21.691,25.769Zm1.1.689c.055-.22.413-.22.579-.331.138-.193.055-.551.055-.771v-.3c0-.165-.055-.193,0-.331l.413-.248a4.175,4.175,0,0,1,.8.055,3.073,3.073,0,0,1,1.075-.3c.358,0,.468.441.468.661,0,.3-.11.634,0,.882a2.124,2.124,0,0,0,.524.579c.11.055.11.11.11.3-.11.165-.22.413-.468.413l-.386.055c-.248,0-.358.276-.413.386a1.018,1.018,0,0,1-.5.524c-.579.248-.689-.248-1.047-.524-.331-.276-.909-.11-1.212-.5C22.738,26.816,22.628,26.568,22.793,26.458ZM21.14,27.7c-.276-.248-.055-.579.193-.689a.531.531,0,0,1,.772,0l.22.276.055.165c.193.248-.055.413-.276.413A1.451,1.451,0,0,1,21.14,27.7Zm1.433,1.763c-.413-.22-.248-.744,0-1.157a.9.9,0,0,1,1.1-.22,1.094,1.094,0,0,1,.331.854c.248.3.248.634-.165.689A1.326,1.326,0,0,1,22.573,29.461ZM21.554,31c-.276-.22-.055-.937.248-1.019a.747.747,0,0,1,.937.055c.055.165.248.331.11.579a.351.351,0,0,1-.11.634A1.417,1.417,0,0,1,21.554,31Zm7.688-.11a.625.625,0,0,1,.771.606l-.11.055v.11a.685.685,0,0,1-.882.3C28.745,31.666,28.745,31,29.241,30.894Zm-8.79,1.3c-.055-.413.22-.882.689-.689a.678.678,0,0,1,.551.689c.11.248.22.661-.193.771A.888.888,0,0,1,20.451,32.189Zm10,.193a.631.631,0,0,1,.579.22l.248.248a1.666,1.666,0,0,1,0,.524.6.6,0,0,1-.937.055C30.1,33.1,29.9,32.437,30.453,32.382ZM20.038,34.421a1.2,1.2,0,0,1-.579-.524c-.138-.22.276-.524.524-.634.22-.055.468.11.634.413.248.165.661.579.11.744A2.817,2.817,0,0,1,20.038,34.421Zm-1.267,1.571c-.22-.248-.276-.8,0-.937h.055l-.055-.11h.22c.331.11.8.441.579.8A.764.764,0,0,1,18.771,35.992ZM18.109,37.7a.726.726,0,0,1-.5-.413c0-.165.083-.165.276-.248h0v-.055l.165.055H18.3a.408.408,0,0,1,0,.358v.248Z" transform="translate(-8.315 -8.489)" fill="#d9afb1"/>
          </g>
          <g id="Grupo_2-2" data-name="Grupo 2" transform="translate(8.527 30.313)">
            <path id="Trazado_2-2" data-name="Trazado 2" d="M9.01,10h0l-.193-.22-.193-.193c0,.358.138.413.441.413Z" transform="translate(-8.624 -9.589)" fill="#d9afb1"/>
          </g>
        </g>
      </g>
    </g>
    <g id="_30_" data-name="30%" transform="translate(748.203 37.345)">
      <text id="_30" data-name="30" transform="translate(19.242 131.195)" fill="#db697f" font-size="120" font-family="OpenSans-Bold, Open Sans" font-weight="700"><tspan x="0" y="0">30</tspan></text>
      <text id="OFF-3" data-name="OFF" transform="translate(163.252 129.803)" fill="#db697f" font-size="20" font-family="OpenSans-Bold, Open Sans" font-weight="700"><tspan x="0" y="0">OFF</tspan></text>
      <text id="_3" data-name="%" transform="translate(156.666 109.871)" fill="#db697f" font-size="57" font-family="OpenSans-Bold, Open Sans" font-weight="700" letter-spacing="-0.02em"><tspan x="0" y="0">%</tspan></text>
      <text id="Compra_mínimo_300.000_y_recibe" data-name="Compra mínimo
$300.000 y recibe" transform="translate(102.853 12)" fill="#8c5152" font-size="14" font-family="SegoeUI, Segoe UI"><tspan x="-50.005" y="0">Compra mínimo</tspan><tspan font-family="SegoeUI-Bold, Segoe UI" font-weight="700"><tspan x="-57.733" y="15">$300.000 y recibe</tspan></tspan></text>
      <g id="Grupo_6132" data-name="Grupo 6132" transform="translate(19.242 146.569)">
        <rect id="Rectángulo_5-3" data-name="Rectángulo 5" width="184.314" height="22.56" transform="translate(0)" fill="#f59799"/>
        <text id="Con_el_cupón:_HOLY30" data-name="Con el cupón: HOLY30" transform="translate(93.655 17.689)" fill="#fff" font-size="16" font-family="SegoeUI-Bold, Segoe UI" font-weight="700"><tspan x="-83.258" y="0">Con el cupón: </tspan><tspan y="0" fill="#ffeb98">HOLY30</tspan></text>
      </g>
      <path id="Trazado_212" data-name="Trazado 212" d="M178.742,759.606H159.5V623.5h36.145" transform="translate(-159.5 -601.756)" fill="none" stroke="#e8dbdb" stroke-width="4"/>
      <path id="Trazado_211" data-name="Trazado 211" d="M176.4,759.606h19.242V623.5H159.5" transform="translate(27.431 -601.756)" fill="none" stroke="#e8dbdb" stroke-width="4"/>
      <g id="Grupo_6318" data-name="Grupo 6318" transform="translate(179.325 3.062)">
        <g id="Grupo_6147" data-name="Grupo 6147" transform="translate(21.391 23.044)">
          <path id="Trazado_222" data-name="Trazado 222" d="M29.521,18.141a6.529,6.529,0,0,1,.843-.944,3.632,3.632,0,0,1,1.707-1.145v.12a12.612,12.612,0,0,0-1.546,1.185,8.185,8.185,0,0,0-1.285,1.727h-.08a1.865,1.865,0,0,0-.141.582h0a3.535,3.535,0,0,1,1.847-1.727,5.5,5.5,0,0,1,2.63-1.084l.08.141a16.95,16.95,0,0,0-2.47,1.064,4.549,4.549,0,0,0-1.165.924,1.327,1.327,0,0,0-.341.3c.341-.121.763-.261.924-.3,1.064-.281,2.289-.884,3.273-.622v.08c-1.285.382-3.012.462-4.2,1.225a11.239,11.239,0,0,1,1.265-.181c.6-.04,1.2-.04,1.807-.121a4.062,4.062,0,0,0,1.406-.08c1.285-.683.5-3.112-.723-3.393-.683-.181-2.249-.141-2.49-1.044C30.364,15.973,29.943,17.037,29.521,18.141Z" transform="translate(-29.019 -14.848)" fill="#d9afb1"/>
        </g>
        <g id="Grupo_6148" data-name="Grupo 6148">
          <path id="Trazado_223" data-name="Trazado 223" d="M56.031,24.636c-.341-.382-.924-.3-1.2-.743-.422-.843.281-2.068-.241-2.871-.462-.723-1.265-.723-1.827-1.285-.482-.6-.361-1.185-.562-1.827a1.446,1.446,0,0,0-1.345-1.245,3.717,3.717,0,0,1-.924-.161,2.681,2.681,0,0,1-1.084-.884,1.661,1.661,0,0,0-2.128-.884,2.249,2.249,0,0,1-1.767,0c-.522-.261-.944-.863-1.546-1-.924-.181-1.365.422-1.847,1a1.4,1.4,0,0,1-1.365.522c-.663-.1-1-.643-1.707-.643-1.044,0-1.426.542-2.088,1.285-.321.3-.462.723-.9.8-.7.261-1.546-.341-2.128.3a5.947,5.947,0,0,0-.7,1.807c0,.241-.06.622-.341.7a4.466,4.466,0,0,1-1.365.562,1.736,1.736,0,0,0-1.2,1.928,5.089,5.089,0,0,1,.341,1.887c-.04.663-.643.823-1.1,1.044A2.125,2.125,0,0,0,28,27.407c.08.6.783,1.084.622,1.707-.06.321-.281.482-.281.783a1.88,1.88,0,0,0,.221,1.406,9.484,9.484,0,0,1,1.185,1.867,5.993,5.993,0,0,0,.341,1.847A3.82,3.82,0,0,0,32.377,36.1c.984.261,1.827.5,2.751.783a35.977,35.977,0,0,1,5.241,2.289,46.807,46.807,0,0,1,4.9,3.032,5.957,5.957,0,0,0,1.887,1.064,1.235,1.235,0,0,0,1.707-.8A.855.855,0,0,0,49,41.945a27.426,27.426,0,0,1,2.108-5.4c1.084-2.309,2.249-4.6,3.414-6.827.382-.743.883-1.506,1.245-2.269C56.171,26.785,56.774,25.5,56.031,24.636Zm-1.867-.3a16.123,16.123,0,0,1-1.024,2.651,22.256,22.256,0,0,0-1.064,2.61,30.215,30.215,0,0,0-1.385,5.08,30.431,30.431,0,0,1-2.129,7.148,1.519,1.519,0,0,1-.783.944c-.4.221-.643-.181-1.064-.341h-.04A13.949,13.949,0,0,1,43.742,40.8c-1.265-.924-2.63-2.008-3.775-2.972a18.562,18.562,0,0,0-4.6-2.651,29.788,29.788,0,0,0-4.5-1.747l.08-.181a20.331,20.331,0,0,1,9.1,3.855c1.2,1,2.43,2.068,3.695,3.072.763.462,1.365.924,2.048,1.345.422.221.743.422,1.165.6-2.61-2.088-4.8-4.658-7.188-6.948a16.156,16.156,0,0,0-4.719-3.233,35.014,35.014,0,0,1-4.719-2.49c-.121-.02-.08-.161.04-.08,3.574,1.325,6.847,2.349,9.6,4.9,2.209,2.269,4.377,4.98,6.707,7.068A37.636,37.636,0,0,0,44,37.829c-1.446-1.767-2.912-3.454-4.4-5.16a41.318,41.318,0,0,0-4.9-4.839c-.763-.582-1.426-1.165-2.209-1.767a3.8,3.8,0,0,1-1.225-1.245c-.04-.04.04-.181.12-.04a8.108,8.108,0,0,0,2.189,1.506c.763.622,1.546,1.124,2.349,1.767a34.619,34.619,0,0,1,4.759,4.478c1.486,1.707,2.55,3.875,4.056,5.582.7.783,1.265,1.687,1.928,2.53-.8-1.466-1.646-2.952-2.49-4.418a65.241,65.241,0,0,0-4.5-7.57,47.5,47.5,0,0,0-3.9-4.819c-.663-.622-1.285-1.365-1.847-2.008a10.764,10.764,0,0,1-.783-.843l.121-.08a6.815,6.815,0,0,1,1.064.763c.6.622,1.285,1.165,1.928,1.867a51.478,51.478,0,0,1,4.337,5.02A43.6,43.6,0,0,1,42.9,32.668c.623,1.145,1.2,2.349,1.847,3.474.522.964.964,1.968,1.466,2.952-.944-2.349-2.028-4.638-2.831-7.028-.924-2.63-1.566-5.622-3.112-8.092-1.165-2.068-2.831-3.9-3.574-6.225,0-.08.06-.141.141,0,.944,2.329,2.932,4.036,4.2,6.245,1.345,2.45,1.988,5.3,2.972,7.891a61.815,61.815,0,0,0,2.008,5.9c.2.542.522,1.225.843,1.887-.321-1.084-.643-2.068-.984-3.132-.7-2.088-1.2-4.136-1.687-6.225a89.817,89.817,0,0,1-2.791-14.578.081.081,0,1,1,.161,0c.823,4.819,2.028,9.538,3.313,14.357A49.826,49.826,0,0,0,46.212,36.6c.462,1.386.924,2.751,1.285,4.157-.221-3.574-1.124-6.988-1.546-10.522-.241-2.369-.5-4.96-.6-7.289-.08-1.245-.08-2.47-.181-3.675a15.493,15.493,0,0,1,.542-3.414c0-.08.08-.08.08.04.08,1.2,0,2.49,0,3.695,0,1.165.08,2.349.161,3.514.06,2.47.422,5.02.723,7.51.241,2.329.462,4.679.763,7.028a14.68,14.68,0,0,1,.281,1.847,16.56,16.56,0,0,0,.06-2.63c-.06-2.269-.482-4.5-.623-6.666-.08-4.317.281-8.955,2.329-12.751.08-.141.281,0,.181.04-1.948,4.136-2.068,8.654-1.887,13.132.1,2.169.281,4.4.281,6.566q0,1.657-.12,3.313a3.179,3.179,0,0,0-.06.763v.121c1.888-6.827.482-14.4,3.916-20.943.12-.141.281-.06.281.04-2.731,6.807-2.149,14.5-4.016,21.465,1.506-2.369,1.426-5.2,2.028-7.972a49.5,49.5,0,0,1,1.546-5,27.446,27.446,0,0,1,2.43-4.638C54.123,24.255,54.264,24.315,54.164,24.335Z" transform="translate(-27.954 -13.7)" fill="#d9afb1"/>
        </g>
        <g id="Grupo_6149" data-name="Grupo 6149" transform="translate(11.572 25.775)">
          <path id="Trazado_224" data-name="Trazado 224" d="M34.273,18.1h0a4.235,4.235,0,0,0-2.61.321,8.872,8.872,0,0,1-2.209.7v-.08a8.424,8.424,0,0,1,2.49-.944,4.38,4.38,0,0,1,1.928-.3l-.12-.08c-.643-.04-1.365-.181-2.088-.181a10.5,10.5,0,0,0-2.289.442c-.1.04-.1-.04-.1-.121a7.029,7.029,0,0,1,2.209-.482h1.265a9.184,9.184,0,0,1-1.285-.482c-.582-.121-1.064-.2-1.566-.321a.09.09,0,1,1,0-.181,5.888,5.888,0,0,1,3.213.944v.04l.241.08-.08-.08a36.844,36.844,0,0,0-4-2.389c0,1.124-.663,2.048-.743,3.112a2.91,2.91,0,0,0,.6,1.887,1.43,1.43,0,0,0,1.426.1c.9-.281,1.647-.823,2.55-1.165a3.6,3.6,0,0,1,1.908-.341C34.795,18.418,34.534,18.277,34.273,18.1Z" transform="translate(-28.53 -14.984)" fill="#d9afb1"/>
        </g>
      </g>
    </g>
    <g id="_15_" data-name="15%" transform="translate(594.756 242.109)">
      <text id="_15" data-name="15" transform="translate(19.242 128.134)" fill="#db697f" font-size="120" font-family="OpenSans-Bold, Open Sans" font-weight="700"><tspan x="0" y="0">15</tspan></text>
      <text id="OFF-4" data-name="OFF" transform="translate(163.252 126.741)" fill="#db697f" font-size="20" font-family="OpenSans-Bold, Open Sans" font-weight="700"><tspan x="0" y="0">OFF</tspan></text>
      <text id="_4" data-name="%" transform="translate(156.666 106.809)" fill="#db697f" font-size="57" font-family="OpenSans-Bold, Open Sans" font-weight="700" letter-spacing="-0.02em"><tspan x="0" y="0">%</tspan></text>
      <text id="Compra_mínimo_150.000_y_recibe" data-name="Compra mínimo
$150.000 y recibe" transform="translate(109.493 12)" fill="#8c5152" font-size="14" font-family="SegoeUI, Segoe UI"><tspan x="-50.005" y="0">Compra mínimo</tspan><tspan font-family="SegoeUI-Bold, Segoe UI" font-weight="700"><tspan x="-57.733" y="15">$150.000 y recibe</tspan></tspan></text>
      <g id="Grupo_6319" data-name="Grupo 6319" transform="translate(19.242 143.507)">
        <rect id="Rectángulo_5-4" data-name="Rectángulo 5" width="184.314" height="22.56" transform="translate(0)" fill="#f59799"/>
        <text id="Con_el_cupón:_HOLY15" data-name="Con el cupón: HOLY15" transform="translate(90.655 17.689)" fill="#fff" font-size="16" font-family="SegoeUI-Bold, Segoe UI" font-weight="700"><tspan x="-83.258" y="0">Con el cupón: </tspan><tspan y="0" fill="#ffeb98">HOLY15</tspan></text>
      </g>
      <path id="Trazado_369" data-name="Trazado 369" d="M178.742,759.606H159.5V623.5h36.145" transform="translate(-159.5 -604.818)" fill="none" stroke="#e8dbdb" stroke-width="4"/>
      <path id="Trazado_368" data-name="Trazado 368" d="M176.4,759.606h19.242V623.5H159.5" transform="translate(27.431 -604.818)" fill="none" stroke="#e8dbdb" stroke-width="4"/>
      <g id="Grupo_6321" data-name="Grupo 6321" transform="translate(179.325 0)">
        <g id="Grupo_6147-2" data-name="Grupo 6147" transform="translate(21.391 23.044)">
          <path id="Trazado_222-2" data-name="Trazado 222" d="M29.521,18.141a6.529,6.529,0,0,1,.843-.944,3.632,3.632,0,0,1,1.707-1.145v.12a12.612,12.612,0,0,0-1.546,1.185,8.185,8.185,0,0,0-1.285,1.727h-.08a1.865,1.865,0,0,0-.141.582h0a3.535,3.535,0,0,1,1.847-1.727,5.5,5.5,0,0,1,2.63-1.084l.08.141a16.95,16.95,0,0,0-2.47,1.064,4.549,4.549,0,0,0-1.165.924,1.327,1.327,0,0,0-.341.3c.341-.121.763-.261.924-.3,1.064-.281,2.289-.884,3.273-.622v.08c-1.285.382-3.012.462-4.2,1.225a11.239,11.239,0,0,1,1.265-.181c.6-.04,1.2-.04,1.807-.121a4.062,4.062,0,0,0,1.406-.08c1.285-.683.5-3.112-.723-3.393-.683-.181-2.249-.141-2.49-1.044C30.364,15.973,29.943,17.037,29.521,18.141Z" transform="translate(-29.019 -14.848)" fill="#d9afb1"/>
        </g>
        <g id="Grupo_6148-2" data-name="Grupo 6148">
          <path id="Trazado_223-2" data-name="Trazado 223" d="M56.031,24.636c-.341-.382-.924-.3-1.2-.743-.422-.843.281-2.068-.241-2.871-.462-.723-1.265-.723-1.827-1.285-.482-.6-.361-1.185-.562-1.827a1.446,1.446,0,0,0-1.345-1.245,3.717,3.717,0,0,1-.924-.161,2.681,2.681,0,0,1-1.084-.884,1.661,1.661,0,0,0-2.128-.884,2.249,2.249,0,0,1-1.767,0c-.522-.261-.944-.863-1.546-1-.924-.181-1.365.422-1.847,1a1.4,1.4,0,0,1-1.365.522c-.663-.1-1-.643-1.707-.643-1.044,0-1.426.542-2.088,1.285-.321.3-.462.723-.9.8-.7.261-1.546-.341-2.128.3a5.947,5.947,0,0,0-.7,1.807c0,.241-.06.622-.341.7a4.466,4.466,0,0,1-1.365.562,1.736,1.736,0,0,0-1.2,1.928,5.089,5.089,0,0,1,.341,1.887c-.04.663-.643.823-1.1,1.044A2.125,2.125,0,0,0,28,27.407c.08.6.783,1.084.622,1.707-.06.321-.281.482-.281.783a1.88,1.88,0,0,0,.221,1.406,9.484,9.484,0,0,1,1.185,1.867,5.993,5.993,0,0,0,.341,1.847A3.82,3.82,0,0,0,32.377,36.1c.984.261,1.827.5,2.751.783a35.977,35.977,0,0,1,5.241,2.289,46.807,46.807,0,0,1,4.9,3.032,5.957,5.957,0,0,0,1.887,1.064,1.235,1.235,0,0,0,1.707-.8A.855.855,0,0,0,49,41.945a27.426,27.426,0,0,1,2.108-5.4c1.084-2.309,2.249-4.6,3.414-6.827.382-.743.883-1.506,1.245-2.269C56.171,26.785,56.774,25.5,56.031,24.636Zm-1.867-.3a16.123,16.123,0,0,1-1.024,2.651,22.256,22.256,0,0,0-1.064,2.61,30.215,30.215,0,0,0-1.385,5.08,30.431,30.431,0,0,1-2.129,7.148,1.519,1.519,0,0,1-.783.944c-.4.221-.643-.181-1.064-.341h-.04A13.949,13.949,0,0,1,43.742,40.8c-1.265-.924-2.63-2.008-3.775-2.972a18.562,18.562,0,0,0-4.6-2.651,29.788,29.788,0,0,0-4.5-1.747l.08-.181a20.331,20.331,0,0,1,9.1,3.855c1.2,1,2.43,2.068,3.695,3.072.763.462,1.365.924,2.048,1.345.422.221.743.422,1.165.6-2.61-2.088-4.8-4.658-7.188-6.948a16.156,16.156,0,0,0-4.719-3.233,35.014,35.014,0,0,1-4.719-2.49c-.121-.02-.08-.161.04-.08,3.574,1.325,6.847,2.349,9.6,4.9,2.209,2.269,4.377,4.98,6.707,7.068A37.636,37.636,0,0,0,44,37.829c-1.446-1.767-2.912-3.454-4.4-5.16a41.318,41.318,0,0,0-4.9-4.839c-.763-.582-1.426-1.165-2.209-1.767a3.8,3.8,0,0,1-1.225-1.245c-.04-.04.04-.181.12-.04a8.108,8.108,0,0,0,2.189,1.506c.763.622,1.546,1.124,2.349,1.767a34.619,34.619,0,0,1,4.759,4.478c1.486,1.707,2.55,3.875,4.056,5.582.7.783,1.265,1.687,1.928,2.53-.8-1.466-1.646-2.952-2.49-4.418a65.241,65.241,0,0,0-4.5-7.57,47.5,47.5,0,0,0-3.9-4.819c-.663-.622-1.285-1.365-1.847-2.008a10.764,10.764,0,0,1-.783-.843l.121-.08a6.815,6.815,0,0,1,1.064.763c.6.622,1.285,1.165,1.928,1.867a51.478,51.478,0,0,1,4.337,5.02A43.6,43.6,0,0,1,42.9,32.668c.623,1.145,1.2,2.349,1.847,3.474.522.964.964,1.968,1.466,2.952-.944-2.349-2.028-4.638-2.831-7.028-.924-2.63-1.566-5.622-3.112-8.092-1.165-2.068-2.831-3.9-3.574-6.225,0-.08.06-.141.141,0,.944,2.329,2.932,4.036,4.2,6.245,1.345,2.45,1.988,5.3,2.972,7.891a61.815,61.815,0,0,0,2.008,5.9c.2.542.522,1.225.843,1.887-.321-1.084-.643-2.068-.984-3.132-.7-2.088-1.2-4.136-1.687-6.225a89.817,89.817,0,0,1-2.791-14.578.081.081,0,1,1,.161,0c.823,4.819,2.028,9.538,3.313,14.357A49.826,49.826,0,0,0,46.212,36.6c.462,1.386.924,2.751,1.285,4.157-.221-3.574-1.124-6.988-1.546-10.522-.241-2.369-.5-4.96-.6-7.289-.08-1.245-.08-2.47-.181-3.675a15.493,15.493,0,0,1,.542-3.414c0-.08.08-.08.08.04.08,1.2,0,2.49,0,3.695,0,1.165.08,2.349.161,3.514.06,2.47.422,5.02.723,7.51.241,2.329.462,4.679.763,7.028a14.68,14.68,0,0,1,.281,1.847,16.56,16.56,0,0,0,.06-2.63c-.06-2.269-.482-4.5-.623-6.666-.08-4.317.281-8.955,2.329-12.751.08-.141.281,0,.181.04-1.948,4.136-2.068,8.654-1.887,13.132.1,2.169.281,4.4.281,6.566q0,1.657-.12,3.313a3.179,3.179,0,0,0-.06.763v.121c1.888-6.827.482-14.4,3.916-20.943.12-.141.281-.06.281.04-2.731,6.807-2.149,14.5-4.016,21.465,1.506-2.369,1.426-5.2,2.028-7.972a49.5,49.5,0,0,1,1.546-5,27.446,27.446,0,0,1,2.43-4.638C54.123,24.255,54.264,24.315,54.164,24.335Z" transform="translate(-27.954 -13.7)" fill="#d9afb1"/>
        </g>
        <g id="Grupo_6149-2" data-name="Grupo 6149" transform="translate(11.572 25.775)">
          <path id="Trazado_224-2" data-name="Trazado 224" d="M34.273,18.1h0a4.235,4.235,0,0,0-2.61.321,8.872,8.872,0,0,1-2.209.7v-.08a8.424,8.424,0,0,1,2.49-.944,4.38,4.38,0,0,1,1.928-.3l-.12-.08c-.643-.04-1.365-.181-2.088-.181a10.5,10.5,0,0,0-2.289.442c-.1.04-.1-.04-.1-.121a7.029,7.029,0,0,1,2.209-.482h1.265a9.184,9.184,0,0,1-1.285-.482c-.582-.121-1.064-.2-1.566-.321a.09.09,0,1,1,0-.181,5.888,5.888,0,0,1,3.213.944v.04l.241.08-.08-.08a36.844,36.844,0,0,0-4-2.389c0,1.124-.663,2.048-.743,3.112a2.91,2.91,0,0,0,.6,1.887,1.43,1.43,0,0,0,1.426.1c.9-.281,1.647-.823,2.55-1.165a3.6,3.6,0,0,1,1.908-.341C34.795,18.418,34.534,18.277,34.273,18.1Z" transform="translate(-28.53 -14.984)" fill="#d9afb1"/>
        </g>
      </g>
    </g>
    <g id="_10_" data-name="10%" transform="translate(865.869 239.869)">
      <text id="_10" data-name="10" transform="translate(19.242 130.373)" fill="#db697f" font-size="120" font-family="OpenSans-Bold, Open Sans" font-weight="700" letter-spacing="-0.01em"><tspan x="0" y="0">10</tspan></text>
      <text id="OFF-5" data-name="OFF" transform="translate(163.252 128.981)" fill="#db697f" font-size="20" font-family="OpenSans-Bold, Open Sans" font-weight="700"><tspan x="0" y="0">OFF</tspan></text>
      <text id="_5" data-name="%" transform="translate(156.666 109.049)" fill="#db697f" font-size="57" font-family="OpenSans-Bold, Open Sans" font-weight="700" letter-spacing="-0.02em"><tspan x="0" y="0">%</tspan></text>
      <text id="Compra_mínimo_100.000_y_recibe" data-name="Compra mínimo
$100.000 y recibe" transform="translate(110.252 12)" fill="#8c5152" font-size="14" font-family="SegoeUI, Segoe UI"><tspan x="-50.005" y="0">Compra mínimo</tspan><tspan font-family="SegoeUI-Bold, Segoe UI" font-weight="700"><tspan x="-57.733" y="15">$100.000 y recibe</tspan></tspan></text>
      <g id="Grupo_6323" data-name="Grupo 6323" transform="translate(19.242 145.747)">
        <rect id="Rectángulo_5-5" data-name="Rectángulo 5" width="184.314" height="22.56" transform="translate(0 0)" fill="#f59799"/>
        <text id="Con_el_cupón:_HOLY10" data-name="Con el cupón: HOLY10" transform="translate(91.655 17)" fill="#fff" font-size="16" font-family="SegoeUI-Bold, Segoe UI" font-weight="700"><tspan x="-83.258" y="0">Con el cupón: </tspan><tspan y="0" fill="#ffeb98">HOLY10</tspan></text>
      </g>
      <path id="Trazado_373" data-name="Trazado 373" d="M178.742,759.606H159.5V623.5h36.145" transform="translate(-159.5 -602.579)" fill="none" stroke="#e8dbdb" stroke-width="4"/>
      <path id="Trazado_372" data-name="Trazado 372" d="M176.4,759.606h19.242V623.5H159.5" transform="translate(27.431 -602.579)" fill="none" stroke="#e8dbdb" stroke-width="4"/>
      <g id="Grupo_6324" data-name="Grupo 6324" transform="translate(179.325 2.24)">
        <g id="Grupo_6147-3" data-name="Grupo 6147" transform="translate(21.391 23.044)">
          <path id="Trazado_222-3" data-name="Trazado 222" d="M29.521,18.141a6.529,6.529,0,0,1,.843-.944,3.632,3.632,0,0,1,1.707-1.145v.12a12.612,12.612,0,0,0-1.546,1.185,8.185,8.185,0,0,0-1.285,1.727h-.08a1.865,1.865,0,0,0-.141.582h0a3.535,3.535,0,0,1,1.847-1.727,5.5,5.5,0,0,1,2.63-1.084l.08.141a16.95,16.95,0,0,0-2.47,1.064,4.549,4.549,0,0,0-1.165.924,1.327,1.327,0,0,0-.341.3c.341-.121.763-.261.924-.3,1.064-.281,2.289-.884,3.273-.622v.08c-1.285.382-3.012.462-4.2,1.225a11.239,11.239,0,0,1,1.265-.181c.6-.04,1.2-.04,1.807-.121a4.062,4.062,0,0,0,1.406-.08c1.285-.683.5-3.112-.723-3.393-.683-.181-2.249-.141-2.49-1.044C30.364,15.973,29.943,17.037,29.521,18.141Z" transform="translate(-29.019 -14.848)" fill="#d9afb1"/>
        </g>
        <g id="Grupo_6148-3" data-name="Grupo 6148">
          <path id="Trazado_223-3" data-name="Trazado 223" d="M56.031,24.636c-.341-.382-.924-.3-1.2-.743-.422-.843.281-2.068-.241-2.871-.462-.723-1.265-.723-1.827-1.285-.482-.6-.361-1.185-.562-1.827a1.446,1.446,0,0,0-1.345-1.245,3.717,3.717,0,0,1-.924-.161,2.681,2.681,0,0,1-1.084-.884,1.661,1.661,0,0,0-2.128-.884,2.249,2.249,0,0,1-1.767,0c-.522-.261-.944-.863-1.546-1-.924-.181-1.365.422-1.847,1a1.4,1.4,0,0,1-1.365.522c-.663-.1-1-.643-1.707-.643-1.044,0-1.426.542-2.088,1.285-.321.3-.462.723-.9.8-.7.261-1.546-.341-2.128.3a5.947,5.947,0,0,0-.7,1.807c0,.241-.06.622-.341.7a4.466,4.466,0,0,1-1.365.562,1.736,1.736,0,0,0-1.2,1.928,5.089,5.089,0,0,1,.341,1.887c-.04.663-.643.823-1.1,1.044A2.125,2.125,0,0,0,28,27.407c.08.6.783,1.084.622,1.707-.06.321-.281.482-.281.783a1.88,1.88,0,0,0,.221,1.406,9.484,9.484,0,0,1,1.185,1.867,5.993,5.993,0,0,0,.341,1.847A3.82,3.82,0,0,0,32.377,36.1c.984.261,1.827.5,2.751.783a35.977,35.977,0,0,1,5.241,2.289,46.807,46.807,0,0,1,4.9,3.032,5.957,5.957,0,0,0,1.887,1.064,1.235,1.235,0,0,0,1.707-.8A.855.855,0,0,0,49,41.945a27.426,27.426,0,0,1,2.108-5.4c1.084-2.309,2.249-4.6,3.414-6.827.382-.743.883-1.506,1.245-2.269C56.171,26.785,56.774,25.5,56.031,24.636Zm-1.867-.3a16.123,16.123,0,0,1-1.024,2.651,22.256,22.256,0,0,0-1.064,2.61,30.215,30.215,0,0,0-1.385,5.08,30.431,30.431,0,0,1-2.129,7.148,1.519,1.519,0,0,1-.783.944c-.4.221-.643-.181-1.064-.341h-.04A13.949,13.949,0,0,1,43.742,40.8c-1.265-.924-2.63-2.008-3.775-2.972a18.562,18.562,0,0,0-4.6-2.651,29.788,29.788,0,0,0-4.5-1.747l.08-.181a20.331,20.331,0,0,1,9.1,3.855c1.2,1,2.43,2.068,3.695,3.072.763.462,1.365.924,2.048,1.345.422.221.743.422,1.165.6-2.61-2.088-4.8-4.658-7.188-6.948a16.156,16.156,0,0,0-4.719-3.233,35.014,35.014,0,0,1-4.719-2.49c-.121-.02-.08-.161.04-.08,3.574,1.325,6.847,2.349,9.6,4.9,2.209,2.269,4.377,4.98,6.707,7.068A37.636,37.636,0,0,0,44,37.829c-1.446-1.767-2.912-3.454-4.4-5.16a41.318,41.318,0,0,0-4.9-4.839c-.763-.582-1.426-1.165-2.209-1.767a3.8,3.8,0,0,1-1.225-1.245c-.04-.04.04-.181.12-.04a8.108,8.108,0,0,0,2.189,1.506c.763.622,1.546,1.124,2.349,1.767a34.619,34.619,0,0,1,4.759,4.478c1.486,1.707,2.55,3.875,4.056,5.582.7.783,1.265,1.687,1.928,2.53-.8-1.466-1.646-2.952-2.49-4.418a65.241,65.241,0,0,0-4.5-7.57,47.5,47.5,0,0,0-3.9-4.819c-.663-.622-1.285-1.365-1.847-2.008a10.764,10.764,0,0,1-.783-.843l.121-.08a6.815,6.815,0,0,1,1.064.763c.6.622,1.285,1.165,1.928,1.867a51.478,51.478,0,0,1,4.337,5.02A43.6,43.6,0,0,1,42.9,32.668c.623,1.145,1.2,2.349,1.847,3.474.522.964.964,1.968,1.466,2.952-.944-2.349-2.028-4.638-2.831-7.028-.924-2.63-1.566-5.622-3.112-8.092-1.165-2.068-2.831-3.9-3.574-6.225,0-.08.06-.141.141,0,.944,2.329,2.932,4.036,4.2,6.245,1.345,2.45,1.988,5.3,2.972,7.891a61.815,61.815,0,0,0,2.008,5.9c.2.542.522,1.225.843,1.887-.321-1.084-.643-2.068-.984-3.132-.7-2.088-1.2-4.136-1.687-6.225a89.817,89.817,0,0,1-2.791-14.578.081.081,0,1,1,.161,0c.823,4.819,2.028,9.538,3.313,14.357A49.826,49.826,0,0,0,46.212,36.6c.462,1.386.924,2.751,1.285,4.157-.221-3.574-1.124-6.988-1.546-10.522-.241-2.369-.5-4.96-.6-7.289-.08-1.245-.08-2.47-.181-3.675a15.493,15.493,0,0,1,.542-3.414c0-.08.08-.08.08.04.08,1.2,0,2.49,0,3.695,0,1.165.08,2.349.161,3.514.06,2.47.422,5.02.723,7.51.241,2.329.462,4.679.763,7.028a14.68,14.68,0,0,1,.281,1.847,16.56,16.56,0,0,0,.06-2.63c-.06-2.269-.482-4.5-.623-6.666-.08-4.317.281-8.955,2.329-12.751.08-.141.281,0,.181.04-1.948,4.136-2.068,8.654-1.887,13.132.1,2.169.281,4.4.281,6.566q0,1.657-.12,3.313a3.179,3.179,0,0,0-.06.763v.121c1.888-6.827.482-14.4,3.916-20.943.12-.141.281-.06.281.04-2.731,6.807-2.149,14.5-4.016,21.465,1.506-2.369,1.426-5.2,2.028-7.972a49.5,49.5,0,0,1,1.546-5,27.446,27.446,0,0,1,2.43-4.638C54.123,24.255,54.264,24.315,54.164,24.335Z" transform="translate(-27.954 -13.7)" fill="#d9afb1"/>
        </g>
        <g id="Grupo_6149-3" data-name="Grupo 6149" transform="translate(11.572 25.775)">
          <path id="Trazado_224-3" data-name="Trazado 224" d="M34.273,18.1h0a4.235,4.235,0,0,0-2.61.321,8.872,8.872,0,0,1-2.209.7v-.08a8.424,8.424,0,0,1,2.49-.944,4.38,4.38,0,0,1,1.928-.3l-.12-.08c-.643-.04-1.365-.181-2.088-.181a10.5,10.5,0,0,0-2.289.442c-.1.04-.1-.04-.1-.121a7.029,7.029,0,0,1,2.209-.482h1.265a9.184,9.184,0,0,1-1.285-.482c-.582-.121-1.064-.2-1.566-.321a.09.09,0,1,1,0-.181,5.888,5.888,0,0,1,3.213.944v.04l.241.08-.08-.08a36.844,36.844,0,0,0-4-2.389c0,1.124-.663,2.048-.743,3.112a2.91,2.91,0,0,0,.6,1.887,1.43,1.43,0,0,0,1.426.1c.9-.281,1.647-.823,2.55-1.165a3.6,3.6,0,0,1,1.908-.341C34.795,18.418,34.534,18.277,34.273,18.1Z" transform="translate(-28.53 -14.984)" fill="#d9afb1"/>
        </g>
      </g>
    </g>
    <g transform="matrix(1, 0, 0, 1, 0, 0)" filter="url(#Trazado_45)">
      <path id="Trazado_45-2" data-name="Trazado 45" d="M25.561,0H214.806c14.117,0,25.561,13.555,25.561,30.277s-11.444,30.277-25.561,30.277H25.561C11.444,60.553,0,47,0,30.277S11.444,0,25.561,0Z" transform="translate(161.51 260.87)" fill="#895967"/>
    </g>
    <text id="_Compra_ya_" data-name="¡Compra ya!" transform="translate(363.505 299.118)" fill="#fff" font-size="28" font-family="OpenSans-Bold, Open Sans" font-weight="700"><tspan x="-166.154" y="0">¡Compra ya!</tspan></text>
    <text id="_APLICAN_TÉRMINOS_Y_CONDICIONES._PROMOCIÓN_NO_VÁLIDA_EN_SECADORES_NI_PLANCHAS_PARA_EL_CABELLO._Promoción_válida_hasta_el_30_de_Junio_de_2021." data-name="*APLICAN TÉRMINOS Y CONDICIONES. PROMOCIÓN NO VÁLIDA
EN SECADORES NI PLANCHAS PARA EL CABELLO.
Promoción válida hasta el 30 de Junio de 2021." transform="translate(282 373)" fill="#db697f" font-size="12" font-family="OpenSans-Bold, Open Sans" font-weight="700"><tspan x="-187.679" y="0">*APLICAN TÉRMINOS Y CONDICIONES. PROMOCIÓN NO VÁLIDA</tspan><tspan x="-142.336" y="17">EN SECADORES NI PLANCHAS PARA EL CABELLO.</tspan><tspan x="-137.493" y="34">Promoción válida hasta el 30 de Junio de 2021.</tspan></text>
  </g>
</svg>
