<?xml version="1.0" encoding="utf-8"?>
<!-- Generator: Adobe Illustrator 25.2.3, SVG Export Plug-In . SVG Version: 6.00 Build 0)  -->
<svg version="1.1" id="Capa_1" xmlns="http://www.w3.org/2000/svg" xmlns:xlink="http://www.w3.org/1999/xlink" x="0px" y="0px"
	 viewBox="0 0 1575 456" style="enable-background:new 0 0 1575 456;" xml:space="preserve">
<style type="text/css">
	.st0{fill:#AB8759;}
	.st1{fill:#FFFFFF;}
	.st2{fill:#C5A592;}
</style>
<g>
	<g>
		<g>
			<g>
				<path class="st0" d="M177.96,170.67l-14.65-14.47l-0.24-36.27c-0.02-3.46-2.84-6.26-6.3-6.26c-0.01,0-0.03,0-0.04,0
					c-3.48,0.02-6.28,2.86-6.26,6.34l0.25,38.88c0.01,1.67,0.68,3.27,1.87,4.44l16.51,16.3c1.23,1.21,2.83,1.82,4.43,1.82
					c1.62,0,3.25-0.62,4.48-1.87C180.46,177.1,180.43,173.12,177.96,170.67z"/>
			</g>
		</g>
		<g>
			<g>
				<path class="st0" d="M316.72,264.42c-0.01-0.05-0.02-0.1-0.02-0.16c-0.02-0.17-0.05-0.34-0.09-0.51
					c-0.01-0.06-0.03-0.12-0.05-0.18c-0.04-0.16-0.08-0.32-0.13-0.47c-0.02-0.06-0.04-0.12-0.07-0.18
					c-0.05-0.15-0.11-0.29-0.18-0.43c-0.03-0.06-0.06-0.13-0.09-0.19c-0.07-0.13-0.14-0.27-0.21-0.39
					c-0.04-0.06-0.08-0.13-0.12-0.19c-0.08-0.12-0.16-0.24-0.25-0.36c-0.04-0.06-0.09-0.12-0.13-0.18c-0.1-0.13-0.21-0.25-0.32-0.37
					c-0.04-0.04-0.07-0.08-0.11-0.13c-0.16-0.16-0.32-0.31-0.49-0.45c0,0,0,0-0.01-0.01l-38.39-31.3c-2.7-2.2-6.66-1.79-8.86,0.9
					c-2.2,2.7-1.79,6.66,0.9,8.86l24.68,20.12h-81.58c-3.48,0-6.3,2.82-6.3,6.3s2.82,6.3,6.3,6.3h81.58l-24.68,20.12
					c-2.7,2.2-3.1,6.16-0.9,8.86c1.24,1.53,3.06,2.32,4.89,2.32c1.4,0,2.81-0.46,3.98-1.42l38.39-31.3c0,0,0,0,0.01-0.01
					c0.17-0.14,0.34-0.29,0.49-0.45c0.04-0.04,0.07-0.08,0.11-0.12c0.11-0.12,0.22-0.24,0.32-0.37c0.05-0.06,0.09-0.12,0.13-0.18
					c0.09-0.12,0.17-0.24,0.25-0.36c0.04-0.06,0.08-0.13,0.12-0.19c0.08-0.13,0.15-0.26,0.21-0.39c0.03-0.06,0.06-0.13,0.09-0.19
					c0.06-0.14,0.12-0.29,0.18-0.43c0.02-0.06,0.05-0.12,0.07-0.18c0.05-0.15,0.09-0.31,0.13-0.47c0.02-0.06,0.03-0.12,0.05-0.18
					c0.04-0.17,0.06-0.34,0.09-0.51c0.01-0.05,0.02-0.1,0.02-0.16c0.02-0.22,0.04-0.45,0.04-0.68
					C316.76,264.87,316.75,264.64,316.72,264.42z"/>
			</g>
		</g>
		<g>
			<g>
				<path class="st0" d="M218.27,97.02c-2.93-2.9-6.04-5.57-9.28-8l8.97-10.88c2.21-2.68,1.83-6.65-0.85-8.87
					c-2.68-2.21-6.65-1.83-8.87,0.85l-9.95,12.06c-10.73-5.79-22.6-9.26-34.97-10.14v-5.68h12.67c6.44,0,11.68-5.24,11.68-11.68
					v-9.96c0-6.44-5.24-11.68-11.68-11.68h-38.44c-6.44,0-11.68,5.24-11.68,11.68v9.96c0,6.44,5.24,11.68,11.68,11.68h13.18v5.68
					c-12.52,0.89-24.51,4.42-35.32,10.33l-10.1-12.25c-2.21-2.68-6.18-3.06-8.87-0.85s-3.06,6.18-0.85,8.87l9.17,11.11
					c-3.35,2.53-6.55,5.32-9.56,8.36c-16.36,16.52-25.31,38.42-25.2,61.66c0.11,23.25,9.27,45.06,25.79,61.42
					c16.42,16.26,38.14,25.2,61.23,25.2c0.14,0,0.29,0,0.43,0c23.25-0.11,45.06-9.27,61.42-25.79
					c16.36-16.52,25.31-38.42,25.2-61.66C243.94,135.19,234.78,113.37,218.27,97.02z M138.47,53.77v-8.12h36.6v8.12H138.47z
					 M209.91,211.23c-13.99,14.13-32.65,21.96-52.53,22.05c-0.12,0-0.25,0-0.37,0c-19.74,0-38.33-7.64-52.37-21.55
					c-14.13-13.99-21.96-32.65-22.05-52.53c-0.09-19.88,7.56-38.61,21.55-52.74s32.65-21.96,52.53-22.05c0.12,0,0.24,0,0.37,0
					c19.75,0,38.33,7.64,52.37,21.55c14.13,13.99,21.96,32.65,22.05,52.53C231.55,178.37,223.9,197.1,209.91,211.23z"/>
			</g>
		</g>
		<g>
			<g>
				<path class="st0" d="M157.03,92.04c-0.11,0-0.22,0-0.32,0c-17.85,0.09-34.59,7.12-47.15,19.8
					c-12.56,12.68-19.43,29.49-19.34,47.34c0.09,17.85,7.12,34.59,19.8,47.15c12.6,12.48,29.28,19.34,47.01,19.34
					c0.11,0,0.22,0,0.33,0c17.85-0.09,34.59-7.12,47.15-19.8c12.56-12.68,19.43-29.49,19.34-47.34
					C223.66,121.8,193.72,92.04,157.03,92.04z M195.55,197c-10.19,10.29-23.78,15.99-38.26,16.06c-0.09,0-0.18,0-0.27,0
					c-14.38,0-27.92-5.57-38.15-15.7c-10.29-10.19-15.99-23.78-16.06-38.26c-0.07-14.48,5.5-28.12,15.7-38.41
					c10.19-10.29,23.78-15.99,38.26-16.06c0.09,0,0.17,0,0.26,0c29.77,0,54.07,24.15,54.21,53.96
					C211.31,173.07,205.74,186.71,195.55,197z"/>
			</g>
		</g>
		<g>
			<g>
				<path class="st0" d="M157.08,346.77c-5.03-1.91-10.53-1.57-15.48,0.96c-4.75,2.42-8.45,6.59-10.4,11.74
					c-4.11,10.85,0.81,22.81,10.97,26.66c2.15,0.81,4.38,1.22,6.62,1.22c3.01,0,6.02-0.73,8.86-2.17c4.75-2.42,8.45-6.59,10.4-11.74
					C172.16,362.57,167.24,350.62,157.08,346.77z M156.27,368.96c-0.84,2.21-2.38,3.98-4.33,4.97c-1.75,0.89-3.64,1.04-5.31,0.4
					c-3.66-1.39-5.3-6.06-3.66-10.41c0.84-2.21,2.38-3.98,4.33-4.97c1.03-0.53,2.11-0.79,3.17-0.79c0.73,0,1.46,0.13,2.14,0.39
					C156.28,359.93,157.92,364.61,156.27,368.96z"/>
			</g>
		</g>
		<g>
			<g>
				<path class="st0" d="M399.73,346.77c-10.16-3.85-21.77,1.85-25.88,12.69c-4.11,10.85,0.81,22.81,10.97,26.66
					c2.15,0.81,4.38,1.22,6.62,1.22c3.01,0,6.02-0.73,8.86-2.17c4.75-2.42,8.45-6.59,10.4-11.74
					C414.81,362.57,409.89,350.62,399.73,346.77z M398.92,368.96c-0.84,2.21-2.38,3.98-4.33,4.97c-1.75,0.89-3.64,1.04-5.31,0.4
					c-3.66-1.39-5.3-6.06-3.66-10.41c1.33-3.52,4.41-5.77,7.48-5.77c0.73,0,1.45,0.13,2.16,0.39
					C398.93,359.93,400.57,364.61,398.92,368.96z"/>
			</g>
		</g>
		<g>
			<g>
				<path class="st0" d="M464.98,257.8C464.98,257.8,464.98,257.8,464.98,257.8c-9.23-10.45-18.75-21.34-29.12-33.3
					c-3.09-3.56-7.69-5.61-12.63-5.62l-52.94-0.07c1.61-9.96,3.16-19.87,4.59-29.58c0.58-4.05-0.57-8.07-3.14-11.03
					c-2.58-2.97-6.4-4.68-10.5-4.68c-44.08-0.01-67.61-0.03-104.96-0.05l-23.78-0.02c0,0,7.96,0,7.96,0c-3.48,0-6.3,2.82-6.3,6.29
					c0,3.48,2.82,6.3,6.29,6.3l15.82,0.02c37.36,0.02,60.88,0.04,104.97,0.05c0.45,0,0.8,0.12,0.99,0.33
					c0.23,0.27,0.23,0.69,0.19,0.98c-3.06,20.79-6.7,42.58-10.25,63.79c-5.19,30.61-10.5,62-14.51,92.61
					c-0.02,0.12-0.03,0.25-0.05,0.37c-1.95,0-3.9,0-5.86,0c-2.47,0-4.94,0-7.42,0c-3.18,0-6.36-0.01-9.53-0.01
					c-1.96,0-3.91,0-5.87-0.01c-3.69,0-7.39-0.01-11.08-0.01c-1.45,0-2.91,0-4.36-0.01c-4.3-0.01-8.61-0.01-12.91-0.02
					c-0.88,0-1.76,0-2.63,0c-10.11-0.02-20.21-0.04-30.25-0.06c-0.43,0-0.86,0-1.28,0c-10.48-0.02-20.91-0.05-31.26-0.07
					l-31.89-0.07c-3.13-5.6-7.51-10.18-12.81-13.44c-0.17-0.1-0.34-0.21-0.51-0.31c-0.28-0.17-0.57-0.33-0.86-0.49
					c-0.25-0.14-0.49-0.27-0.74-0.4c-0.25-0.13-0.5-0.26-0.75-0.38c-0.32-0.16-0.65-0.31-0.97-0.46c-0.2-0.09-0.4-0.19-0.6-0.28
					c-0.54-0.24-1.09-0.46-1.64-0.67c-0.57-0.22-1.14-0.41-1.72-0.6c-0.32-0.1-0.63-0.19-0.95-0.28c-0.25-0.07-0.5-0.15-0.74-0.22
					c-0.44-0.12-0.88-0.22-1.32-0.32c-0.12-0.03-0.23-0.06-0.35-0.08c-0.53-0.12-1.06-0.22-1.59-0.31c-0.02,0-0.03-0.01-0.05-0.01
					c-5.71-0.97-11.58-0.55-17.25,1.26c-0.02,0.01-0.03,0.01-0.05,0.01c-0.45,0.14-0.9,0.3-1.35,0.46
					c-0.17,0.06-0.35,0.12-0.52,0.19c-0.35,0.13-0.7,0.27-1.05,0.41c-0.15,0.06-0.3,0.11-0.44,0.17c-0.14,0.06-0.28,0.13-0.43,0.19
					c-0.21,0.09-0.42,0.19-0.63,0.28c-0.42,0.19-0.84,0.39-1.25,0.6c-0.1,0.05-0.2,0.09-0.3,0.14c-0.03,0.01-0.05,0.03-0.08,0.04
					c-0.51,0.26-1.02,0.54-1.53,0.82c-0.21,0.12-0.42,0.25-0.62,0.37c-0.28,0.17-0.56,0.33-0.83,0.5c-0.28,0.18-0.56,0.36-0.84,0.54
					c-0.17,0.11-0.33,0.22-0.49,0.33c-4.61,3.11-8.58,7.12-11.7,11.83l-6.66-0.01c-4.96-0.01-9.93-0.01-14.89-0.02
					c1.17-7.2,13.72-85.5,16.01-99.67c0.56-3.43-1.78-6.67-5.21-7.22c-3.45-0.57-6.67,1.78-7.22,5.21
					c-3.77,23.31-17.2,106.97-17.2,106.97c0,0.02,0,0.03-0.01,0.05c0,0.02-0.01,0.03-0.01,0.05l-1.26,8.57
					c-0.69,4.67,0.69,9.4,3.77,12.97c3.08,3.57,7.55,5.62,12.27,5.62l13.58,0.01c0.49,2.63,1.22,5.2,2.2,7.7
					c3.97,10.06,11.5,17.63,21.21,21.3c4.15,1.57,8.42,2.32,12.66,2.32c16.03,0,31.6-10.65,38.03-27.63c0.45-1.2,0.85-2.41,1.2-3.63
					c44.39,0.05,93.72,0.12,137.03,0.17l17.05,0.02c0.01,0,0.01,0,0.02,0c4.05-0.01,8.12,0.01,12.19,0.01l1.13,0
					c0.49,2.53,1.2,5.01,2.15,7.42c3.97,10.06,11.5,17.63,21.21,21.3c4.12,1.56,8.42,2.34,12.74,2.34c5.84,0,11.72-1.42,17.26-4.24
					c9.44-4.8,16.79-13.12,20.69-23.41c0.42-1.1,0.78-2.21,1.11-3.33h0.34c2.5,0,5.01,0.01,7.51,0.01c8.91,0,16.95-6.83,18.3-15.55
					c4.65-30.27,9.52-62.18,13.36-90.25C469.5,266.11,468.09,261.32,464.98,257.8z M112.44,356.59c-0.07,0.25-0.13,0.51-0.2,0.76
					c-0.1,0.37-0.2,0.74-0.29,1.12c-0.07,0.32-0.14,0.63-0.21,0.95c-0.06,0.3-0.13,0.6-0.19,0.89c-0.08,0.4-0.14,0.8-0.21,1.19
					c-0.03,0.2-0.07,0.41-0.1,0.61c-0.07,0.49-0.14,0.98-0.19,1.47c-0.01,0.06-0.02,0.12-0.02,0.18l-13.15-0.01
					c-1.44,0-2.34-0.79-2.74-1.25c-0.4-0.47-1.05-1.47-0.84-2.9l0.47-3.18c5.61,0,11.23,0.01,16.84,0.01l0.88,0
					C112.47,356.49,112.46,356.54,112.44,356.59z M175.49,369.14c-0.01,0.03-0.01,0.07-0.01,0.1c-0.35,2.13-0.91,4.26-1.7,6.35
					c-5.67,14.97-21.12,23.04-34.44,18c-6.35-2.4-11.3-7.43-13.95-14.15c-1.18-2.99-1.84-6.16-1.99-9.38c0-0.08,0.01-0.16,0-0.24
					c-0.06-1.59,0-3.18,0.18-4.75c0-0.01,0-0.02,0-0.03c0.05-0.47,0.12-0.94,0.2-1.41c0.02-0.09,0.03-0.19,0.05-0.28
					c0.07-0.38,0.14-0.77,0.22-1.15c0.03-0.15,0.06-0.29,0.09-0.44c0.08-0.34,0.16-0.68,0.25-1.01c0.04-0.17,0.08-0.34,0.13-0.51
					c0.09-0.33,0.19-0.67,0.3-1c0.05-0.16,0.1-0.33,0.15-0.49c0.16-0.49,0.33-0.98,0.51-1.46c0-0.01,0.01-0.02,0.01-0.02
					c0.24-0.63,0.5-1.25,0.78-1.86c0.06-0.13,0.12-0.26,0.18-0.39c0.29-0.62,0.6-1.24,0.92-1.83c0.03-0.05,0.05-0.09,0.08-0.14
					c5.84-10.56,16.94-16.4,27.4-15.03c0.21,0.03,0.42,0.05,0.62,0.08c0.27,0.04,0.53,0.09,0.79,0.15c0.51,0.1,1.02,0.21,1.52,0.35
					c0.12,0.03,0.24,0.07,0.36,0.1c0.6,0.17,1.2,0.36,1.79,0.59c0.39,0.15,0.77,0.3,1.14,0.47c0.24,0.1,0.47,0.22,0.7,0.33
					c0.13,0.06,0.27,0.12,0.4,0.19c0.32,0.16,0.63,0.33,0.94,0.51c0.04,0.02,0.08,0.04,0.12,0.06c4.53,2.6,8.14,6.71,10.35,11.87
					C175.72,357.77,176.39,363.45,175.49,369.14z M335.21,364.02l-11.4-0.02c-42.75-0.06-91.38-0.12-135.33-0.17
					c-0.02-2.45-0.25-4.89-0.69-7.28l27.33,0.06c18.63,0.04,37.55,0.08,56.56,0.12c1.52,0,3.05,0.01,4.57,0.01
					c2.94,0.01,5.88,0.01,8.81,0.01c2.48,0,4.96,0.01,7.44,0.01c2.28,0,4.57,0.01,6.85,0.01c3.15,0,6.3,0.01,9.44,0.01
					c1.87,0,3.74,0,5.6,0.01c3.49,0,6.97,0.01,10.45,0.01c1.68,0,3.35,0,5.03,0c2.05,0,4.1,0,6.14,0
					C335.75,359.22,335.47,361.62,335.21,364.02z M418.1,369.39c0,0.03,0,0.05-0.01,0.08c-0.35,2.06-0.9,4.11-1.66,6.13
					c-2.79,7.36-7.98,13.27-14.62,16.64c-6.44,3.28-13.48,3.76-19.83,1.35c-6.35-2.4-11.3-7.43-13.95-14.15
					c-1.16-2.95-1.82-6.07-1.99-9.25c0-0.05,0-0.09,0-0.14c-0.07-1.59-0.03-3.18,0.14-4.76c0.01-0.08,0.02-0.16,0.03-0.24
					c0.05-0.41,0.1-0.82,0.17-1.22c0.03-0.16,0.05-0.32,0.08-0.48c0.06-0.33,0.12-0.66,0.19-0.99c0.04-0.2,0.08-0.39,0.12-0.59
					c0.07-0.3,0.14-0.6,0.22-0.91c0.05-0.2,0.1-0.41,0.16-0.61c0.09-0.32,0.18-0.64,0.28-0.95c0.06-0.18,0.11-0.36,0.16-0.54
					c0.16-0.49,0.33-0.98,0.52-1.47c2.79-7.36,7.98-13.27,14.62-16.65c0.44-0.22,0.88-0.43,1.32-0.63c0.14-0.06,0.29-0.12,0.43-0.18
					c0.3-0.13,0.6-0.25,0.91-0.37c0.17-0.06,0.34-0.12,0.51-0.19c0.28-0.1,0.57-0.2,0.85-0.29c0.18-0.06,0.35-0.11,0.53-0.16
					c0.28-0.08,0.57-0.16,0.86-0.24c0.17-0.04,0.34-0.09,0.52-0.13c0.31-0.07,0.61-0.14,0.92-0.2c0.15-0.03,0.3-0.06,0.45-0.09
					c0.4-0.07,0.81-0.13,1.21-0.19c0.05-0.01,0.1-0.02,0.16-0.02c0.46-0.06,0.92-0.1,1.38-0.13c0.12-0.01,0.25-0.01,0.37-0.02
					c0.33-0.02,0.67-0.03,1-0.03c0.12,0,0.23,0,0.35,0c0.62,0.01,1.25,0.03,1.87,0.08c0.02,0,0.03,0,0.05,0
					c0.63,0.06,1.25,0.15,1.87,0.25c0.11,0.02,0.22,0.04,0.34,0.06c0.6,0.11,1.2,0.25,1.79,0.41c0.11,0.03,0.22,0.06,0.32,0.09
					c0.61,0.18,1.22,0.37,1.82,0.6c0.37,0.14,0.73,0.29,1.09,0.45c0.22,0.1,0.43,0.2,0.65,0.3c0.12,0.06,0.24,0.11,0.36,0.17
					C414.56,345.16,420.16,357.04,418.1,369.39z M456.36,269.24c-3.83,27.97-8.69,59.82-13.33,90.03c-0.39,2.55-3.19,4.87-5.85,4.87
					c-2.01,0-4.02,0-6.03-0.01c-0.01-5.25-0.98-10.44-2.91-15.32c-3.55-9-9.96-16-18.22-20.01c-0.24-0.12-0.49-0.23-0.73-0.35
					c-0.23-0.1-0.45-0.21-0.68-0.31c-0.52-0.22-1.04-0.44-1.57-0.64c-8.49-3.22-17.71-3.1-26.34,0.26
					c-1.23,0.48-2.45,1.03-3.66,1.64c-9.44,4.8-16.79,13.12-20.69,23.41c-0.31,0.81-0.58,1.63-0.84,2.45
					c-0.08,0.24-0.15,0.48-0.22,0.72c-0.2,0.67-0.38,1.33-0.55,2c-0.04,0.18-0.09,0.35-0.14,0.53c-0.2,0.83-0.36,1.66-0.51,2.5
					c-0.03,0.17-0.06,0.35-0.08,0.53c-0.13,0.76-0.23,1.53-0.32,2.29c-0.01,0.07-0.02,0.14-0.03,0.21l-0.6,0
					c-1.72,0-3.45-0.01-5.17-0.01c0.49-4.27,1.01-8.59,1.29-10.99c0.1-0.83,0.2-1.66,0.31-2.5c3.9-30.53,9.3-62.73,14.53-93.87
					c0.17-1.04,0.35-2.09,0.53-3.14c0.06-0.35,0.12-0.7,0.18-1.05c1.2-7.09,2.4-14.12,3.56-21.08l54.93,0.07
					c1.31,0,2.42,0.45,3.13,1.27c10.39,11.99,19.94,22.91,29.19,33.38C456.23,266.93,456.53,268.03,456.36,269.24z"/>
			</g>
		</g>
		<g>
			<g>
				<path class="st0" d="M444.94,269.39c-7.59-8.65-15.1-17.27-22.33-25.63c-1.98-2.29-4.9-3.6-8.03-3.6l-29.99-0.04
					c0,0-0.01,0-0.01,0c-5.74,0-10.96,4.41-11.88,10.05l-0.9,5.55c-2.04,12.55-4.16,25.53-6.17,38.31c0,0,0,0,0,0
					c-0.48,3.06,0.37,6.12,2.32,8.4c1.98,2.32,4.94,3.65,8.12,3.66l56.8,0.04c0,0,0.01,0,0.01,0c5.84,0,11.06-4.46,11.89-10.17
					c1.06-7.27,1.58-10.91,2.62-18.18C447.82,274.73,446.93,271.67,444.94,269.39z M432.39,293.54l-53.92-0.04
					c1.89-11.94,3.86-24.03,5.77-35.75l0.82-5.03l28.68,0.04c6.83,7.89,13.9,16.01,21.05,24.17
					C433.86,283.39,433.34,286.99,432.39,293.54z"/>
			</g>
		</g>
	</g>
</g>
<g>
	<path class="st0" d="M581.36,139.83h-27.91v15.3h24.68v14.23h-24.68v16.6h27.91v14.76h-46.34v-75.66h46.34V139.83z"/>
	<path class="st0" d="M634.81,168.07c0-8.19-4.53-12.72-11.53-12.72c-7,0-11.53,4.53-11.53,12.72v32.66h-18.43v-60.14h18.43v7.98
		c3.66-5.07,10.13-8.62,18.21-8.62c13.9,0,23.17,9.48,23.17,25.65v35.13h-18.32V168.07z"/>
	<path class="st0" d="M679.97,140.58l13.04,42.89l13.04-42.89h19.61l-21.34,60.14h-22.74l-21.34-60.14H679.97z"/>
	<path class="st0" d="M756.6,111.27v14.33l-25.97,10.89v-12.72L756.6,111.27z M734.83,140.58h18.43v60.14h-18.43V140.58z"/>
	<path class="st0" d="M795.4,201.58c-17.67,0-31.04-11.85-31.04-30.93c0-19.08,13.69-30.93,31.25-30.93
		c17.67,0,31.25,11.85,31.25,30.93C826.87,189.73,813.08,201.58,795.4,201.58z M795.4,185.63c6.57,0,12.72-4.85,12.72-14.98
		c0-10.24-6.04-14.98-12.5-14.98c-6.68,0-12.5,4.74-12.5,14.98C783.12,180.78,788.72,185.63,795.4,185.63z"/>
	<path class="st0" d="M861.15,201.58c-16.06,0-26.84-8.95-27.7-20.58h18.21c0.43,4.2,4.2,7.01,9.27,7.01c4.74,0,7.22-2.16,7.22-4.85
		c0-9.7-32.76-2.69-32.76-24.79c0-10.24,8.73-18.65,24.46-18.65c15.52,0,24.14,8.62,25.33,20.48h-17.03
		c-0.54-4.1-3.66-6.79-8.84-6.79c-4.31,0-6.68,1.72-6.68,4.63c0,9.59,32.55,2.8,32.87,25.22
		C885.5,193.72,876.23,201.58,861.15,201.58z"/>
	<path class="st0" d="M944.13,201.58c-16.06,0-26.84-8.95-27.7-20.58h18.21c0.43,4.2,4.2,7.01,9.27,7.01c4.74,0,7.22-2.16,7.22-4.85
		c0-9.7-32.76-2.69-32.76-24.79c0-10.24,8.73-18.65,24.46-18.65c15.52,0,24.14,8.62,25.33,20.48h-17.03
		c-0.54-4.1-3.66-6.79-8.84-6.79c-4.31,0-6.68,1.72-6.68,4.63c0,9.59,32.55,2.8,32.87,25.22
		C968.49,193.72,959.22,201.58,944.13,201.58z"/>
	<path class="st0" d="M1006.54,201.58c-17.67,0-30.39-11.85-30.39-30.93c0-19.08,12.5-30.93,30.39-30.93
		c17.57,0,29.96,11.64,29.96,29.96c0,1.72-0.11,3.56-0.32,5.39h-41.71c0.65,7.87,5.5,11.53,11.42,11.53c5.17,0,8.08-2.59,9.59-5.82
		h19.62C1032.19,192.53,1021.52,201.58,1006.54,201.58z M994.57,164.83h23.06c0-6.57-5.17-10.35-11.32-10.35
		C1000.29,154.49,995.65,158.15,994.57,164.83z"/>
	<path class="st0" d="M1069.05,139.72c8.84,0,15.3,3.99,18.54,9.38v-8.51h18.43v60.03c0,16.06-9.27,29.75-30.07,29.75
		c-17.89,0-29.53-9.05-31.15-23.39h18.21c1.19,4.53,5.71,7.44,12.07,7.44c7,0,12.5-3.66,12.5-13.79v-8.51
		c-3.34,5.28-9.7,9.48-18.54,9.48c-14.76,0-26.51-12.07-26.51-31.04C1042.54,151.58,1054.28,139.72,1069.05,139.72z M1074.44,155.78
		c-6.9,0-13.15,5.17-13.15,14.77s6.25,14.98,13.15,14.98c7.01,0,13.15-5.28,13.15-14.87
		C1087.58,161.06,1081.44,155.78,1074.44,155.78z"/>
	<path class="st0" d="M1178.76,200.72h-18.43v-8.19c-3.66,5.17-10.13,8.84-18.21,8.84c-13.9,0-23.28-9.59-23.28-25.65v-35.13h18.32
		v32.66c0,8.19,4.63,12.72,11.53,12.72c7.11,0,11.64-4.53,11.64-12.72v-32.66h18.43V200.72z"/>
	<path class="st0" d="M1210.45,200.72h-18.43v-60.14h18.43v10.02c4.2-6.36,10.78-10.67,18.86-10.67v19.51h-5.07
		c-8.73,0-13.79,3.02-13.79,13.36V200.72z"/>
	<path class="st0" d="M1265.52,201.58c-17.67,0-31.04-11.85-31.04-30.93c0-19.08,13.69-30.93,31.25-30.93
		c17.67,0,31.25,11.85,31.25,30.93C1296.99,189.73,1283.2,201.58,1265.52,201.58z M1265.52,185.63c6.57,0,12.72-4.85,12.72-14.98
		c0-10.24-6.04-14.98-12.5-14.98c-6.68,0-12.5,4.74-12.5,14.98C1253.24,180.78,1258.84,185.63,1265.52,185.63z"/>
	<path class="st0" d="M1331.27,201.58c-16.06,0-26.84-8.95-27.7-20.58h18.21c0.43,4.2,4.2,7.01,9.27,7.01
		c4.74,0,7.22-2.16,7.22-4.85c0-9.7-32.76-2.69-32.76-24.79c0-10.24,8.73-18.65,24.46-18.65c15.52,0,24.14,8.62,25.33,20.48h-17.03
		c-0.54-4.1-3.66-6.79-8.84-6.79c-4.31,0-6.68,1.72-6.68,4.63c0,9.59,32.55,2.8,32.87,25.22
		C1355.62,193.72,1346.36,201.58,1331.27,201.58z"/>
</g>
<g>
	<g>
		<path class="st2" d="M561.29,280.99h-18.3l-4.98,9.3h-5.76l22.44-41.58h6.3l7.74,41.58h-5.76L561.29,280.99z M556.67,255.37
			l-11.4,21.36h15.24L556.67,255.37z"/>
		<path class="st2" d="M599.39,261.91h-4.2l0.78-4.5h4.26l1.44-8.28h5.52l-1.44,8.28h8.52l-0.78,4.5h-8.58l-3.42,19.38
			c-0.6,3.24,0.42,4.38,3.78,4.38h4.02l-0.84,4.62h-4.92c-5.82,0-8.7-2.4-7.56-9L599.39,261.91z"/>
		<path class="st2" d="M644.21,290.29h-5.46l0.84-4.8c-2.7,3.42-7.08,5.28-11.4,5.28c-7.56,0-12.66-4.68-11.04-14.1l3.42-19.26h5.4
			l-3.24,18.54c-1.14,6.66,1.86,10.08,7.38,10.08c5.58,0,10.08-3.48,11.22-10.56v0.18l3.24-18.24h5.46L644.21,290.29z"/>
		<path class="st2" d="M694.97,256.87c8.88,0,14.46,6.6,12.66,16.86c-1.8,10.2-9.78,17.1-18.6,17.1c-6,0-9.66-3.24-11.16-6.6
			l-3.78,21.66h-5.46l8.52-48.48h5.46l-1.08,6.06C684.17,259.99,689.03,256.87,694.97,256.87z M693.05,261.61
			c-5.94,0-11.94,4.56-13.32,12.18c-1.38,7.74,3.06,12.24,9,12.24c6.06,0,11.94-4.56,13.32-12.3
			C703.43,265.99,699.11,261.61,693.05,261.61z"/>
		<path class="st2" d="M741.05,290.29h-5.46l0.84-4.8c-2.7,3.42-7.08,5.28-11.4,5.28c-7.56,0-12.66-4.68-11.04-14.1l3.42-19.26h5.4
			l-3.24,18.54c-1.14,6.66,1.86,10.08,7.38,10.08c5.58,0,10.08-3.48,11.22-10.56v0.18l3.24-18.24h5.46L741.05,290.29z"/>
		<path class="st2" d="M764.45,290.83c-9.36,0-15.18-6.6-13.32-17.04c1.86-10.38,9.72-16.92,19.26-16.92s14.64,6.72,13.08,15.6
			c-0.18,1.14-0.42,2.1-0.78,3.24h-26.28c-0.84,6.72,3.18,10.5,8.88,10.5c4.92,0,8.46-2.52,10.26-6.06h5.88
			C778.67,286.15,772.61,290.83,764.45,290.83z M757.13,271.75h20.82c1.2-6.72-2.94-10.26-8.58-10.26
			C763.97,261.49,758.81,265.15,757.13,271.75z"/>
		<path class="st2" d="M792.95,290.29h-5.46l5.82-32.88h5.46l-1.08,6.24c2.58-4.2,6.6-6.84,11.82-6.84l-1.02,5.64h-1.44
			c-5.22,0-9.54,2.34-10.92,9.96L792.95,290.29z"/>
		<path class="st2" d="M816.05,261.91h-4.2l0.78-4.5h4.26l1.44-8.28h5.52l-1.44,8.28h8.52l-0.78,4.5h-8.58l-3.42,19.38
			c-0.6,3.24,0.42,4.38,3.78,4.38h4.02l-0.84,4.62h-4.92c-5.82,0-8.7-2.4-7.56-9L816.05,261.91z"/>
		<path class="st2" d="M851.21,256.87c6.12,0,9.72,3.12,11.04,6.54l1.08-6h5.52l-5.82,32.88h-5.52l1.14-6.12
			c-2.64,3.54-7.44,6.66-13.5,6.66c-8.76,0-14.4-6.9-12.6-17.1C834.35,263.47,842.33,256.87,851.21,256.87z M851.45,261.61
			c-6,0-11.94,4.38-13.26,12.12c-1.38,7.74,2.94,12.3,8.94,12.3s11.94-4.5,13.32-12.24C861.83,266.17,857.45,261.61,851.45,261.61z"
			/>
		<path class="st2" d="M895.61,290.29h-5.46l5.82-32.88h5.46l-1.08,6.24c2.58-4.2,6.6-6.84,11.82-6.84l-1.02,5.64h-1.44
			c-5.22,0-9.54,2.34-10.92,9.96L895.61,290.29z"/>
		<path class="st2" d="M932.03,256.87c6.12,0,9.72,3.12,11.04,6.54l1.08-6h5.52l-5.82,32.88h-5.52l1.14-6.12
			c-2.64,3.54-7.44,6.66-13.5,6.66c-8.76,0-14.4-6.9-12.6-17.1C915.17,263.47,923.15,256.87,932.03,256.87z M932.26,261.61
			c-6,0-11.94,4.38-13.26,12.12c-1.38,7.74,2.94,12.3,8.94,12.3s11.94-4.5,13.32-12.24C942.64,266.17,938.26,261.61,932.26,261.61z
			 M942.4,243.37l-0.84,4.74l-14.04,6.84l0.72-4.08L942.4,243.37z"/>
		<path class="st2" d="M976.72,256.87c8.88,0,14.46,6.6,12.66,16.86c-1.8,10.2-9.78,17.1-18.6,17.1c-6,0-9.66-3.24-11.16-6.6
			l-3.78,21.66h-5.46l8.52-48.48h5.46l-1.08,6.06C965.92,259.99,970.78,256.87,976.72,256.87z M974.8,261.61
			c-5.94,0-11.94,4.56-13.32,12.18c-1.38,7.74,3.06,12.24,9,12.24c6.06,0,11.94-4.56,13.32-12.3
			C985.18,265.99,980.86,261.61,974.8,261.61z"/>
		<path class="st2" d="M999.46,257.41h5.46l-5.82,32.88h-5.46L999.46,257.41z M1000.18,248.35c0.36-2.1,2.28-3.72,4.32-3.72
			c2.04,0,3.36,1.62,3,3.72c-0.36,2.1-2.28,3.72-4.32,3.72S999.82,250.45,1000.18,248.35z"/>
		<path class="st2" d="M1027.96,256.87c5.16,0,9.36,2.64,11.04,6.42l3.06-17.4h5.52l-7.86,44.4h-5.52l1.14-6.18
			c-2.64,3.66-7.44,6.72-13.44,6.72c-8.82,0-14.46-6.9-12.66-17.1C1011.04,263.47,1019.02,256.87,1027.96,256.87z M1028.14,261.61
			c-6,0-11.94,4.38-13.26,12.12c-1.38,7.74,2.94,12.3,8.94,12.3s11.94-4.5,13.32-12.24
			C1038.52,266.17,1034.14,261.61,1028.14,261.61z"/>
		<path class="st2" d="M1063.42,290.83c-8.34,0-13.92-5.46-13.92-13.68c0-11.22,8.4-20.28,19.8-20.28c8.34,0,14.1,5.4,14.1,13.74
			C1083.4,281.89,1074.76,290.83,1063.42,290.83z M1064.08,286.21c7.98,0,13.68-7.26,13.68-15.3c0-6.36-4.26-9.42-9.24-9.42
			c-8.04,0-13.38,7.26-13.38,15.42C1055.14,283.09,1059.16,286.21,1064.08,286.21z"/>
		<path class="st2" d="M1107.16,257.41h6.06l5.58,26.52l14.94-26.52h5.64l-28.32,48.36h-5.7l9.3-15.84L1107.16,257.41z"/>
		<path class="st2" d="M546.47,362.83c-7.14,0-12.42-3.96-11.7-10.2h5.34c-0.3,3.36,2.1,5.82,6.66,5.82c4.32,0,7.5-1.74,7.5-4.92
			c0-6.72-16.62-4.5-16.62-15.24c0-5.64,5.22-9.42,12.54-9.42c7.14,0,12.24,4.14,11.46,10.32h-5.22c0.42-3.6-2.34-5.94-6.6-5.94
			c-3.9,0-6.72,1.86-6.72,4.86c0,7.08,16.56,4.92,16.56,15.24C559.67,359.23,554.03,362.83,546.47,362.83z"/>
		<path class="st2" d="M572.03,329.41h5.46l-5.82,32.88h-5.46L572.03,329.41z M572.75,320.35c0.36-2.1,2.28-3.72,4.32-3.72
			c2.04,0,3.36,1.62,3,3.72c-0.36,2.1-2.28,3.72-4.32,3.72S572.39,322.45,572.75,320.35z"/>
		<path class="st2" d="M608.33,343.69c1.14-6.72-1.86-10.14-7.38-10.14c-5.58,0-10.02,3.48-11.28,10.56v-0.12l-3.24,18.3h-5.46
			l5.82-32.88h5.46l-0.84,4.74c2.76-3.48,7.08-5.34,11.52-5.34c7.56,0,12.6,4.68,10.92,14.1l-3.42,19.38h-5.4L608.33,343.69z"/>
		<path class="st2" d="M644.69,320.47h5.46l-7.44,41.82h-5.46L644.69,320.47z"/>
		<path class="st2" d="M679.37,343.69c1.14-6.72-1.86-10.14-7.38-10.14c-5.58,0-10.02,3.48-11.28,10.56v-0.12l-3.24,18.3h-5.46
			l5.82-32.88h5.46l-0.84,4.74c2.76-3.48,7.08-5.34,11.52-5.34c7.56,0,12.6,4.68,10.92,14.1l-3.42,19.38h-5.4L679.37,343.69z"/>
		<path class="st2" d="M710.33,328.87c8.16,0,12.72,4.2,13.2,11.1h-5.88c-0.42-3.96-3.3-6.48-8.16-6.48c-6,0-11.22,4.26-12.6,12.3
			c-1.44,8.16,2.28,12.42,8.28,12.42c4.8,0,8.46-2.34,10.38-6.48h5.88c-2.82,6.54-8.94,11.1-17.1,11.1
			c-9.36,0-14.94-6.6-13.08-17.04C693.11,335.47,700.97,328.87,710.33,328.87z"/>
		<path class="st2" d="M741.29,362.83c-8.34,0-13.92-5.46-13.92-13.68c0-11.22,8.4-20.28,19.8-20.28c8.34,0,14.1,5.4,14.1,13.74
			C761.27,353.89,752.63,362.83,741.29,362.83z M741.95,358.21c7.98,0,13.68-7.26,13.68-15.3c0-6.36-4.26-9.42-9.24-9.42
			c-8.04,0-13.38,7.26-13.38,15.42C733.01,355.09,737.03,358.21,741.95,358.21z"/>
		<path class="st2" d="M792.59,343.69c1.14-6.72-1.86-10.14-7.38-10.14c-5.58,0-10.02,3.48-11.28,10.56v-0.12l-3.24,18.3h-5.46
			l5.82-32.88h5.46l-0.84,4.74c2.76-3.48,7.08-5.34,11.52-5.34c7.56,0,12.6,4.68,10.92,14.1l-3.42,19.38h-5.4L792.59,343.69z"/>
		<path class="st2" d="M811.43,329.41l5.34,27.72l15.12-27.72h5.88l-18.72,32.88h-6.42l-7.08-32.88H811.43z"/>
		<path class="st2" d="M851.45,362.83c-9.36,0-15.18-6.6-13.32-17.04c1.86-10.38,9.72-16.92,19.26-16.92
			c9.54,0,14.64,6.72,13.08,15.6c-0.18,1.14-0.42,2.1-0.78,3.24h-26.28c-0.84,6.72,3.18,10.5,8.88,10.5c4.92,0,8.46-2.52,10.26-6.06
			h5.88C865.67,358.15,859.61,362.83,851.45,362.83z M844.13,343.75h20.82c1.2-6.72-2.94-10.26-8.58-10.26
			C850.97,333.49,845.81,337.15,844.13,343.75z"/>
		<path class="st2" d="M901.85,343.69c1.14-6.72-1.86-10.14-7.38-10.14c-5.58,0-10.02,3.48-11.28,10.56v-0.12l-3.24,18.3h-5.46
			l5.82-32.88h5.46l-0.84,4.74c2.76-3.48,7.08-5.34,11.52-5.34c7.56,0,12.6,4.68,10.92,14.1l-3.42,19.38h-5.4L901.85,343.69z"/>
		<path class="st2" d="M918.71,329.41h5.46l-5.82,32.88h-5.46L918.71,329.41z M919.43,320.35c0.36-2.1,2.28-3.72,4.32-3.72
			c2.04,0,3.36,1.62,3,3.72c-0.36,2.1-2.28,3.72-4.32,3.72S919.07,322.45,919.43,320.35z"/>
		<path class="st2" d="M941.81,362.83c-9.36,0-15.18-6.6-13.32-17.04c1.86-10.38,9.72-16.92,19.26-16.92
			c9.54,0,14.64,6.72,13.08,15.6c-0.18,1.14-0.42,2.1-0.78,3.24h-26.28c-0.84,6.72,3.18,10.5,8.88,10.5c4.92,0,8.46-2.52,10.26-6.06
			h5.88C956.03,358.15,949.97,362.83,941.81,362.83z M934.49,343.75h20.82c1.2-6.72-2.94-10.26-8.58-10.26
			C941.33,333.49,936.17,337.15,934.49,343.75z"/>
		<path class="st2" d="M992.21,343.69c1.14-6.72-1.86-10.14-7.38-10.14c-5.58,0-10.02,3.48-11.28,10.56v-0.12l-3.24,18.3h-5.46
			l5.82-32.88h5.46l-0.84,4.74c2.76-3.48,7.08-5.34,11.52-5.34c7.56,0,12.6,4.68,10.92,14.1l-3.42,19.38h-5.4L992.21,343.69z"/>
		<path class="st2" d="M1009.43,333.91h-4.2l0.78-4.5h4.26l1.44-8.28h5.52l-1.44,8.28h8.52l-0.78,4.5h-8.58l-3.42,19.38
			c-0.6,3.24,0.42,4.38,3.78,4.38h4.02l-0.84,4.62h-4.92c-5.82,0-8.7-2.4-7.56-9L1009.43,333.91z"/>
		<path class="st2" d="M1039.25,362.83c-9.36,0-15.18-6.6-13.32-17.04c1.86-10.38,9.72-16.92,19.26-16.92s14.64,6.72,13.08,15.6
			c-0.18,1.14-0.42,2.1-0.78,3.24h-26.28c-0.84,6.72,3.18,10.5,8.88,10.5c4.92,0,8.46-2.52,10.26-6.06h5.88
			C1053.47,358.15,1047.41,362.83,1039.25,362.83z M1031.93,343.75h20.82c1.2-6.72-2.94-10.26-8.58-10.26
			C1038.77,333.49,1033.61,337.15,1031.93,343.75z"/>
		<path class="st2" d="M1073.87,362.83c-7.14,0-12.42-3.96-11.7-10.2h5.34c-0.3,3.36,2.1,5.82,6.66,5.82c4.32,0,7.5-1.74,7.5-4.92
			c0-6.72-16.62-4.5-16.62-15.24c0-5.64,5.22-9.42,12.54-9.42c7.14,0,12.24,4.14,11.46,10.32h-5.22c0.42-3.6-2.34-5.94-6.6-5.94
			c-3.9,0-6.72,1.86-6.72,4.86c0,7.08,16.56,4.92,16.56,15.24C1087.07,359.23,1081.43,362.83,1073.87,362.83z"/>
	</g>
</g>
</svg>
