<?xml version="1.0" encoding="utf-8"?>
<!-- Generator: Adobe Illustrator 25.2.3, SVG Export Plug-In . SVG Version: 6.00 Build 0)  -->
<svg version="1.1" id="Capa_1" xmlns="http://www.w3.org/2000/svg" xmlns:xlink="http://www.w3.org/1999/xlink" x="0px" y="0px"
	 viewBox="0 0 1575 456" style="enable-background:new 0 0 1575 456;" xml:space="preserve">
<style type="text/css">
	.st0{fill:#AB8759;}
	.st1{fill:#FFFFFF;}
	.st2{fill:#C5A592;}
</style>
<g>
	<g>
		<g>
			<path class="st0" d="M323.33,86.95c-3.78-26.48-26.83-46.45-53.61-46.45c-17.22,0-33.58,8.31-43.75,22.24
				c-2.08,2.84-1.46,6.83,1.38,8.9c2.83,2.07,6.83,1.46,8.9-1.39c7.79-10.65,20.29-17.01,33.47-17.01c20.48,0,38.1,15.26,40.99,35.5
				c0.46,3.18,3.18,5.47,6.3,5.47c0.3,0,0.6-0.02,0.91-0.06C321.4,93.65,323.82,90.43,323.33,86.95z"/>
		</g>
	</g>
	<g>
		<g>
			<path class="st0" d="M415.34,158.27l-19.11-31.86c-1.15-1.92-3.22-3.09-5.46-3.09h-18.32c-3.52,0-6.37,2.85-6.37,6.37
				s2.85,6.37,6.37,6.37h14.71l11.47,19.11H140.81l11.47-19.11h6.75c3.52,0,6.37-2.85,6.37-6.37c0-3.52-2.85-6.37-6.37-6.37h-10.35
				c-2.24,0-4.31,1.17-5.46,3.09l-19.11,31.86c-1.18,1.97-1.21,4.42-0.08,6.42c1.13,2,3.25,3.23,5.54,3.23h280.32
				c2.3,0,4.41-1.24,5.54-3.23C416.56,162.69,416.53,160.23,415.34,158.27z"/>
		</g>
	</g>
	<g>
		<g>
			<path class="st0" d="M383.59,99.52c-0.89-1.44-2.32-2.46-3.96-2.84l-86.85-20.31c-1.64-0.39-3.38-0.1-4.81,0.79
				c-1.43,0.89-2.46,2.32-2.84,3.96l-6.55,28c-0.8,3.43,1.33,6.85,4.75,7.65c3.43,0.8,6.86-1.33,7.65-4.75l5.1-21.79l74.44,17.41
				l-11.7,50.01c-0.8,3.43,1.33,6.85,4.75,7.65c0.49,0.11,0.98,0.17,1.46,0.17c2.89,0,5.51-1.98,6.19-4.92l13.15-56.22
				C384.76,102.69,384.48,100.96,383.59,99.52z"/>
		</g>
	</g>
	<g>
		<g>
			<path class="st0" d="M273.09,114.58l-5.8-49.1c-0.2-1.68-1.05-3.21-2.38-4.26s-3.01-1.52-4.69-1.33L153.65,72.5
				c-3.49,0.41-5.99,3.58-5.58,7.08l9.68,81.89c0.38,3.24,3.13,5.63,6.32,5.63c0.25,0,0.5-0.02,0.76-0.04
				c3.49-0.41,5.99-3.58,5.58-7.08l-8.93-75.57l93.91-11.1l5.05,42.77c0.41,3.49,3.57,5.98,7.08,5.58
				C271,121.25,273.5,118.08,273.09,114.58z"/>
		</g>
	</g>
	<g>
		<g>
			<path class="st0" d="M323.48,159.13l-12.65-52.59c-0.4-1.64-1.43-3.06-2.87-3.94c-1.44-0.88-3.17-1.15-4.82-0.76l-102.63,24.68
				c-3.42,0.82-5.53,4.26-4.71,7.68l6.32,26.28c0.82,3.43,4.26,5.53,7.68,4.71c3.42-0.82,5.53-4.26,4.71-7.68l-4.83-20.09
				l90.25-21.7l11.16,46.39c0.7,2.92,3.31,4.88,6.19,4.88c0.49,0,0.99-0.06,1.5-0.18C322.19,165.99,324.3,162.55,323.48,159.13z"/>
		</g>
	</g>
	<g>
		<g>
			<path class="st0" d="M416.25,161.22c-0.18-3.39-2.97-6.04-6.36-6.04H129.56c-3.39,0-6.19,2.66-6.36,6.04l-12.74,248.47
				c-0.09,1.74,0.54,3.45,1.74,4.71c1.2,1.26,2.87,1.98,4.62,1.98h305.81c1.75,0,3.42-0.72,4.63-1.98c1.2-1.27,1.83-2.97,1.74-4.71
				L416.25,161.22z M123.52,403.64l12.09-235.73h268.22l12.09,235.73H123.52z"/>
		</g>
	</g>
	<g>
		<g>
			<path class="st0" d="M317.5,180.66c-10.54,0-19.11,8.57-19.11,19.11c0,10.54,8.57,19.11,19.11,19.11s19.11-8.57,19.11-19.11
				C336.62,189.23,328.04,180.66,317.5,180.66z M317.5,206.14c-3.51,0-6.37-2.86-6.37-6.37s2.86-6.37,6.37-6.37s6.37,2.86,6.37,6.37
				S321.02,206.14,317.5,206.14z"/>
		</g>
	</g>
	<g>
		<g>
			<path class="st0" d="M221.94,180.66c-10.54,0-19.11,8.57-19.11,19.11c0,10.54,8.57,19.11,19.11,19.11s19.11-8.57,19.11-19.11
				C241.05,189.23,232.48,180.66,221.94,180.66z M221.94,206.14c-3.51,0-6.37-2.86-6.37-6.37s2.86-6.37,6.37-6.37
				c3.51,0,6.37,2.86,6.37,6.37S225.45,206.14,221.94,206.14z"/>
		</g>
	</g>
	<g>
		<g>
			<path class="st0" d="M317.5,199.77h-0.49c-3.52,0-6.37,2.85-6.37,6.37c0,0.87,0.17,1.7,0.49,2.46v32.58
				c0,22.83-18.58,41.41-41.41,41.41s-41.41-18.58-41.41-41.41v-35.04c0-3.52-2.85-6.37-6.37-6.37c-3.52,0-6.37,2.85-6.37,6.37
				v35.04c0,29.86,24.29,54.15,54.15,54.15s54.15-24.29,54.15-54.15v-35.04C323.87,202.63,321.02,199.77,317.5,199.77z"/>
		</g>
	</g>
</g>
<g>
	<path class="st0" d="M535.01,125.06h49.25v14.77h-30.82v15.95h23.06v14.33h-23.06v30.61h-18.43V125.06z"/>
	<path class="st0" d="M616.82,139.72c8.95,0,15.3,4.1,18.54,9.38v-8.51h18.43v60.14h-18.43v-8.51c-3.34,5.28-9.7,9.38-18.64,9.38
		c-14.66,0-26.4-12.07-26.4-31.04C590.3,151.58,602.05,139.72,616.82,139.72z M622.2,155.78c-6.9,0-13.15,5.17-13.15,14.77
		s6.25,14.98,13.15,14.98c7.01,0,13.15-5.28,13.15-14.87C635.35,161.06,629.21,155.78,622.2,155.78z M636.75,111.27v14.33
		l-25.97,10.89v-12.72L636.75,111.27z"/>
	<path class="st0" d="M693.66,139.72c15.09,0,25.76,8.3,28.88,22.63h-19.61c-1.51-4.2-4.53-6.9-9.59-6.9
		c-6.57,0-11.1,5.17-11.1,15.2c0,10.02,4.53,15.2,11.1,15.2c5.07,0,7.97-2.48,9.59-6.9h19.61c-3.12,13.9-13.79,22.63-28.88,22.63
		c-17.67,0-30.18-11.85-30.18-30.93C663.48,151.68,675.99,139.72,693.66,139.72z"/>
	<path class="st0" d="M730.63,124.42c0-5.6,4.42-10.02,10.99-10.02c6.47,0,10.88,4.42,10.88,10.02c0,5.5-4.42,9.92-10.88,9.92
		C735.05,134.33,730.63,129.91,730.63,124.42z M732.35,140.58h18.43v60.14h-18.43V140.58z"/>
	<path class="st0" d="M764.15,120.97h18.43v79.75h-18.43V120.97z"/>
	<path class="st0" d="M860.28,140.58h19.94l-37.72,88.7h-19.83l13.79-30.61L812,140.58h20.58l13.9,37.61L860.28,140.58z"/>
	<path class="st0" d="M934.22,201.58c-16.06,0-26.84-8.95-27.7-20.58h18.21c0.43,4.2,4.2,7.01,9.27,7.01c4.74,0,7.22-2.16,7.22-4.85
		c0-9.7-32.76-2.69-32.76-24.79c0-10.24,8.73-18.65,24.46-18.65c15.52,0,24.14,8.62,25.33,20.48h-17.03
		c-0.54-4.1-3.66-6.79-8.84-6.79c-4.31,0-6.68,1.72-6.68,4.63c0,9.59,32.55,2.8,32.87,25.22
		C958.57,193.72,949.3,201.58,934.22,201.58z"/>
	<path class="st0" d="M996.62,201.58c-17.67,0-30.39-11.85-30.39-30.93c0-19.08,12.5-30.93,30.39-30.93
		c17.57,0,29.96,11.64,29.96,29.96c0,1.72-0.11,3.56-0.32,5.39h-41.71c0.65,7.87,5.5,11.53,11.42,11.53c5.17,0,8.08-2.59,9.59-5.82
		h19.62C1022.27,192.53,1011.6,201.58,996.62,201.58z M984.66,164.83h23.06c0-6.57-5.17-10.35-11.32-10.35
		C990.37,154.49,985.73,158.15,984.66,164.83z"/>
	<path class="st0" d="M1059.13,139.72c8.84,0,15.3,3.99,18.54,9.38v-8.51h18.43v60.03c0,16.06-9.27,29.75-30.07,29.75
		c-17.89,0-29.53-9.05-31.15-23.39h18.21c1.19,4.53,5.71,7.44,12.07,7.44c7,0,12.5-3.66,12.5-13.79v-8.51
		c-3.34,5.28-9.7,9.48-18.54,9.48c-14.76,0-26.51-12.07-26.51-31.04C1032.62,151.58,1044.37,139.72,1059.13,139.72z M1064.52,155.78
		c-6.9,0-13.15,5.17-13.15,14.77s6.25,14.98,13.15,14.98c7.01,0,13.15-5.28,13.15-14.87
		C1077.67,161.06,1071.53,155.78,1064.52,155.78z"/>
	<path class="st0" d="M1168.85,200.72h-18.43v-8.19c-3.66,5.17-10.13,8.84-18.21,8.84c-13.9,0-23.28-9.59-23.28-25.65v-35.13h18.32
		v32.66c0,8.19,4.63,12.72,11.53,12.72c7.11,0,11.64-4.53,11.64-12.72v-32.66h18.43V200.72z"/>
	<path class="st0" d="M1200.53,200.72h-18.43v-60.14h18.43v10.02c4.2-6.36,10.78-10.67,18.86-10.67v19.51h-5.07
		c-8.73,0-13.79,3.02-13.79,13.36V200.72z"/>
	<path class="st0" d="M1255.61,201.58c-17.67,0-31.04-11.85-31.04-30.93c0-19.08,13.69-30.93,31.25-30.93
		c17.67,0,31.25,11.85,31.25,30.93C1287.08,189.73,1273.28,201.58,1255.61,201.58z M1255.61,185.63c6.57,0,12.72-4.85,12.72-14.98
		c0-10.24-6.04-14.98-12.5-14.98c-6.68,0-12.5,4.74-12.5,14.98C1243.32,180.78,1248.93,185.63,1255.61,185.63z"/>
</g>
<g>
	<g>
		<path class="st2" d="M561.17,247.93c9.06,0,15.48,4.56,17.22,12.66h-6.54c-1.44-4.86-5.4-7.68-11.52-7.68
			c-8.76,0-16.38,6.36-18.18,16.44c-1.74,10.02,3.66,16.38,12.36,16.38c6.12,0,11.1-2.82,14.22-7.62h6.54
			c-4.56,8.04-12.54,12.54-21.6,12.54c-11.7,0-19.32-8.76-17.1-21.3C538.79,256.81,549.53,247.93,561.17,247.93z"/>
		<path class="st2" d="M595.67,290.83c-8.34,0-13.92-5.46-13.92-13.68c0-11.22,8.4-20.28,19.8-20.28c8.34,0,14.1,5.4,14.1,13.74
			C615.65,281.89,607.01,290.83,595.67,290.83z M596.33,286.21c7.98,0,13.68-7.26,13.68-15.3c0-6.36-4.26-9.42-9.24-9.42
			c-8.04,0-13.38,7.26-13.38,15.42C587.39,283.09,591.41,286.21,596.33,286.21z"/>
		<path class="st2" d="M670.37,271.69c1.14-6.72-1.8-10.14-7.2-10.14c-5.28,0-9.54,3.24-10.98,9.72l-3.42,19.02h-5.4l3.3-18.6
			c1.2-6.72-1.74-10.14-7.2-10.14c-5.52,0-9.96,3.54-11.16,10.62v-0.12l-3.24,18.24h-5.46l5.82-32.88h5.46l-0.84,4.74
			c2.76-3.48,7.02-5.34,11.34-5.34c5.4,0,9.48,2.46,10.74,7.32c2.76-4.74,7.92-7.32,12.96-7.32c7.44,0,12.48,4.68,10.8,14.1
			l-3.42,19.38h-5.4L670.37,271.69z"/>
		<path class="st2" d="M705.05,256.87c8.88,0,14.46,6.6,12.66,16.86c-1.8,10.2-9.78,17.1-18.6,17.1c-6,0-9.66-3.24-11.16-6.6
			l-3.78,21.66h-5.46l8.52-48.48h5.46l-1.08,6.06C694.25,259.99,699.11,256.87,705.05,256.87z M703.13,261.61
			c-5.94,0-11.94,4.56-13.32,12.18c-1.38,7.74,3.06,12.24,9,12.24c6.06,0,11.94-4.56,13.32-12.3
			C713.51,265.99,709.19,261.61,703.13,261.61z"/>
		<path class="st2" d="M727.43,290.29h-5.46l5.82-32.88h5.46l-1.08,6.24c2.58-4.2,6.6-6.84,11.82-6.84l-1.02,5.64h-1.44
			c-5.22,0-9.54,2.34-10.92,9.96L727.43,290.29z"/>
		<path class="st2" d="M763.85,256.87c6.12,0,9.72,3.12,11.04,6.54l1.08-6h5.52l-5.82,32.88h-5.52l1.14-6.12
			c-2.64,3.54-7.44,6.66-13.5,6.66c-8.76,0-14.4-6.9-12.6-17.1C746.99,263.47,754.97,256.87,763.85,256.87z M764.09,261.61
			c-6,0-11.94,4.38-13.26,12.12c-1.38,7.74,2.94,12.3,8.94,12.3s11.94-4.5,13.32-12.24C774.47,266.17,770.09,261.61,764.09,261.61z"
			/>
		<path class="st2" d="M808.97,261.91h-4.2l0.78-4.5h4.26l1.44-8.28h5.52l-1.44,8.28h8.52l-0.78,4.5h-8.58l-3.42,19.38
			c-0.6,3.24,0.42,4.38,3.78,4.38h4.02l-0.84,4.62h-4.92c-5.82,0-8.7-2.4-7.56-9L808.97,261.91z"/>
		<path class="st2" d="M853.79,290.29h-5.46l0.84-4.8c-2.7,3.42-7.08,5.28-11.4,5.28c-7.56,0-12.66-4.68-11.04-14.1l3.42-19.26h5.4
			l-3.24,18.54c-1.14,6.66,1.86,10.08,7.38,10.08c5.58,0,10.08-3.48,11.22-10.56v0.18l3.24-18.24h5.46L853.79,290.29z"/>
		<path class="st2" d="M874.61,290.83c-7.14,0-12.42-3.96-11.7-10.2h5.34c-0.3,3.36,2.1,5.82,6.66,5.82c4.32,0,7.5-1.74,7.5-4.92
			c0-6.72-16.62-4.5-16.62-15.24c0-5.64,5.22-9.42,12.54-9.42c7.14,0,12.24,4.14,11.46,10.32h-5.22c0.42-3.6-2.34-5.94-6.6-5.94
			c-3.9,0-6.72,1.86-6.72,4.86c0,7.08,16.56,4.92,16.56,15.24C887.81,287.23,882.17,290.83,874.61,290.83z"/>
		<path class="st2" d="M935.87,256.87c8.88,0,14.46,6.6,12.66,16.86c-1.8,10.2-9.78,17.1-18.6,17.1c-6,0-9.66-3.24-11.16-6.6
			l-3.78,21.66h-5.46l8.52-48.48h5.46l-1.08,6.06C925.07,259.99,929.93,256.87,935.87,256.87z M933.95,261.61
			c-5.94,0-11.94,4.56-13.32,12.18c-1.38,7.74,3.06,12.24,9,12.24c6.06,0,11.94-4.56,13.32-12.3
			C944.33,265.99,940.01,261.61,933.95,261.61z"/>
		<path class="st2" d="M958.25,290.29h-5.46l5.82-32.88h5.46l-1.08,6.24c2.58-4.2,6.6-6.84,11.82-6.84l-1.02,5.64h-1.44
			c-5.22,0-9.54,2.34-10.92,9.96L958.25,290.29z"/>
		<path class="st2" d="M989.63,290.83c-8.34,0-13.92-5.46-13.92-13.68c0-11.22,8.4-20.28,19.8-20.28c8.34,0,14.1,5.4,14.1,13.74
			C1009.61,281.89,1000.96,290.83,989.63,290.83z M990.29,286.21c7.98,0,13.68-7.26,13.68-15.3c0-6.36-4.26-9.42-9.24-9.42
			c-8.04,0-13.38,7.26-13.38,15.42C981.35,283.09,985.37,286.21,990.29,286.21z"/>
		<path class="st2" d="M1033.13,256.87c5.16,0,9.36,2.64,11.04,6.42l3.06-17.4h5.52l-7.86,44.4h-5.52l1.14-6.18
			c-2.64,3.66-7.44,6.72-13.44,6.72c-8.82,0-14.46-6.9-12.66-17.1C1016.21,263.47,1024.19,256.87,1033.13,256.87z M1033.31,261.61
			c-6,0-11.94,4.38-13.26,12.12c-1.38,7.74,2.94,12.3,8.94,12.3s11.94-4.5,13.32-12.24
			C1043.69,266.17,1039.31,261.61,1033.31,261.61z"/>
		<path class="st2" d="M1083.29,290.29h-5.46l0.84-4.8c-2.7,3.42-7.08,5.28-11.4,5.28c-7.56,0-12.66-4.68-11.04-14.1l3.42-19.26h5.4
			l-3.24,18.54c-1.14,6.66,1.86,10.08,7.38,10.08c5.58,0,10.08-3.48,11.22-10.56v0.18l3.24-18.24h5.46L1083.29,290.29z"/>
		<path class="st2" d="M1112.45,256.87c8.16,0,12.72,4.2,13.2,11.1h-5.88c-0.42-3.96-3.3-6.48-8.16-6.48c-6,0-11.22,4.26-12.6,12.3
			c-1.44,8.16,2.28,12.42,8.28,12.42c4.8,0,8.46-2.34,10.38-6.48h5.88c-2.82,6.54-8.94,11.1-17.1,11.1
			c-9.36,0-14.94-6.6-13.08-17.04C1095.23,263.47,1103.09,256.87,1112.45,256.87z"/>
		<path class="st2" d="M1135.13,261.91h-4.2l0.78-4.5h4.26l1.44-8.28h5.52l-1.44,8.28h8.52l-0.78,4.5h-8.58l-3.42,19.38
			c-0.6,3.24,0.42,4.38,3.78,4.38h4.02l-0.84,4.62h-4.92c-5.82,0-8.7-2.4-7.56-9L1135.13,261.91z"/>
		<path class="st2" d="M1165.25,290.83c-8.34,0-13.92-5.46-13.92-13.68c0-11.22,8.4-20.28,19.8-20.28c8.34,0,14.1,5.4,14.1,13.74
			C1185.22,281.89,1176.59,290.83,1165.25,290.83z M1165.91,286.21c7.98,0,13.68-7.26,13.68-15.3c0-6.36-4.26-9.42-9.24-9.42
			c-8.04,0-13.38,7.26-13.38,15.42C1156.97,283.09,1160.99,286.21,1165.91,286.21z"/>
		<path class="st2" d="M1200.77,290.83c-7.14,0-12.42-3.96-11.7-10.2h5.34c-0.3,3.36,2.1,5.82,6.66,5.82c4.32,0,7.5-1.74,7.5-4.92
			c0-6.72-16.62-4.5-16.62-15.24c0-5.64,5.22-9.42,12.54-9.42c7.14,0,12.24,4.14,11.46,10.32h-5.22c0.42-3.6-2.34-5.94-6.6-5.94
			c-3.9,0-6.72,1.86-6.72,4.86c0,7.08,16.56,4.92,16.56,15.24C1213.97,287.23,1208.33,290.83,1200.77,290.83z"/>
		<path class="st2" d="M554.81,328.87c8.16,0,12.72,4.2,13.2,11.1h-5.88c-0.42-3.96-3.3-6.48-8.16-6.48c-6,0-11.22,4.26-12.6,12.3
			c-1.44,8.16,2.28,12.42,8.28,12.42c4.8,0,8.46-2.34,10.38-6.48h5.88c-2.82,6.54-8.94,11.1-17.1,11.1
			c-9.36,0-14.94-6.6-13.08-17.04C537.59,335.47,545.45,328.87,554.81,328.87z"/>
		<path class="st2" d="M585.77,362.83c-8.34,0-13.92-5.46-13.92-13.68c0-11.22,8.4-20.28,19.8-20.28c8.34,0,14.1,5.4,14.1,13.74
			C605.75,353.89,597.11,362.83,585.77,362.83z M586.43,358.21c7.98,0,13.68-7.26,13.68-15.3c0-6.36-4.26-9.42-9.24-9.42
			c-8.04,0-13.38,7.26-13.38,15.42C577.49,355.09,581.51,358.21,586.43,358.21z"/>
		<path class="st2" d="M637.07,343.69c1.14-6.72-1.86-10.14-7.38-10.14c-5.58,0-10.02,3.48-11.28,10.56v-0.12l-3.24,18.3h-5.46
			l5.82-32.88h5.46l-0.84,4.74c2.76-3.48,7.08-5.34,11.52-5.34c7.56,0,12.6,4.68,10.92,14.1l-3.42,19.38h-5.4L637.07,343.69z"/>
		<path class="st2" d="M689.63,328.87c8.88,0,14.46,6.6,12.66,16.86c-1.8,10.2-9.78,17.1-18.6,17.1c-6,0-9.66-3.24-11.16-6.6
			l-3.78,21.66h-5.46l8.52-48.48h5.46l-1.08,6.06C678.83,331.99,683.69,328.87,689.63,328.87z M687.71,333.61
			c-5.94,0-11.94,4.56-13.32,12.18c-1.38,7.74,3.06,12.24,9,12.24c6.06,0,11.94-4.56,13.32-12.3
			C698.09,337.99,693.77,333.61,687.71,333.61z"/>
		<path class="st2" d="M721.01,362.83c-8.34,0-13.92-5.46-13.92-13.68c0-11.22,8.4-20.28,19.8-20.28c8.34,0,14.1,5.4,14.1,13.74
			C740.99,353.89,732.35,362.83,721.01,362.83z M721.67,358.21c7.98,0,13.68-7.26,13.68-15.3c0-6.36-4.26-9.42-9.24-9.42
			c-8.04,0-13.38,7.26-13.38,15.42C712.73,355.09,716.75,358.21,721.67,358.21z"/>
		<path class="st2" d="M764.87,328.87c8.16,0,12.72,4.2,13.2,11.1h-5.88c-0.42-3.96-3.3-6.48-8.16-6.48c-6,0-11.22,4.26-12.6,12.3
			c-1.44,8.16,2.28,12.42,8.28,12.42c4.8,0,8.46-2.34,10.38-6.48h5.88c-2.82,6.54-8.94,11.1-17.1,11.1
			c-9.36,0-14.94-6.6-13.08-17.04C747.65,335.47,755.51,328.87,764.87,328.87z"/>
		<path class="st2" d="M795.83,362.83c-8.34,0-13.92-5.46-13.92-13.68c0-11.22,8.4-20.28,19.8-20.28c8.34,0,14.1,5.4,14.1,13.74
			C815.81,353.89,807.17,362.83,795.83,362.83z M796.49,358.21c7.98,0,13.68-7.26,13.68-15.3c0-6.36-4.26-9.42-9.24-9.42
			c-8.04,0-13.38,7.26-13.38,15.42C787.55,355.09,791.57,358.21,796.49,358.21z"/>
		<path class="st2" d="M831.35,362.83c-7.14,0-12.42-3.96-11.7-10.2h5.34c-0.3,3.36,2.1,5.82,6.66,5.82c4.32,0,7.5-1.74,7.5-4.92
			c0-6.72-16.62-4.5-16.62-15.24c0-5.64,5.22-9.42,12.54-9.42c7.14,0,12.24,4.14,11.46,10.32h-5.22c0.42-3.6-2.34-5.94-6.6-5.94
			c-3.9,0-6.72,1.86-6.72,4.86c0,7.08,16.56,4.92,16.56,15.24C844.55,359.23,838.91,362.83,831.35,362.83z"/>
		<path class="st2" d="M888.89,328.87c8.16,0,12.72,4.2,13.2,11.1h-5.88c-0.42-3.96-3.3-6.48-8.16-6.48c-6,0-11.22,4.26-12.6,12.3
			c-1.44,8.16,2.28,12.42,8.28,12.42c4.8,0,8.46-2.34,10.38-6.48h5.88c-2.82,6.54-8.94,11.1-17.1,11.1
			c-9.36,0-14.94-6.6-13.08-17.04C871.67,335.47,879.53,328.87,888.89,328.87z"/>
		<path class="st2" d="M913.25,317.89h5.46l-7.86,44.4h-5.46L913.25,317.89z"/>
		<path class="st2" d="M925.97,329.41h5.46l-5.82,32.88h-5.46L925.97,329.41z M926.69,320.35c0.36-2.1,2.28-3.72,4.32-3.72
			c2.04,0,3.36,1.62,3,3.72c-0.36,2.1-2.28,3.72-4.32,3.72S926.33,322.45,926.69,320.35z"/>
		<path class="st2" d="M954.83,328.87c8.16,0,12.72,4.2,13.2,11.1h-5.88c-0.42-3.96-3.3-6.48-8.16-6.48c-6,0-11.22,4.26-12.6,12.3
			c-1.44,8.16,2.28,12.42,8.28,12.42c4.8,0,8.46-2.34,10.38-6.48h5.88c-2.82,6.54-8.94,11.1-17.1,11.1
			c-9.36,0-14.94-6.6-13.08-17.04C937.61,335.47,945.47,328.87,954.83,328.87z"/>
		<path class="st2" d="M974.51,334.09l5.94-13.62h6.12l-8.16,13.62H974.51z"/>
		<path class="st2" d="M996.05,362.83c-7.14,0-12.42-3.96-11.7-10.2h5.34c-0.3,3.36,2.1,5.82,6.66,5.82c4.32,0,7.5-1.74,7.5-4.92
			c0-6.72-16.62-4.5-16.62-15.24c0-5.64,5.22-9.42,12.54-9.42c7.14,0,12.24,4.14,11.46,10.32h-5.22c0.42-3.6-2.34-5.94-6.6-5.94
			c-3.9,0-6.72,1.86-6.72,4.86c0,7.08,16.56,4.92,16.56,15.24C1009.25,359.23,1003.61,362.83,996.05,362.83z"/>
	</g>
</g>
</svg>
