<?xml version="1.0" encoding="utf-8"?>
<!-- Generator: Adobe Illustrator 25.2.3, SVG Export Plug-In . SVG Version: 6.00 Build 0)  -->
<svg version="1.1" id="Capa_1" xmlns="http://www.w3.org/2000/svg" xmlns:xlink="http://www.w3.org/1999/xlink" x="0px" y="0px"
	 viewBox="0 0 66.25 27.24" style="enable-background:new 0 0 66.25 27.24;" xml:space="preserve">
<style type="text/css">
	.st0{fill:#AB8759;}
	.st1{fill:#FFFFFF;}
	.st2{fill:#C5A592;}
	.st3{fill:url(#SVGID_1_);}
	.st4{fill:#F2D2BC;}
	.st5{fill:#A1887A;}
	.st6{fill:#A2897B;}
	.st7{fill:#A28A7B;}
	.st8{fill:#A48C7E;}
</style>
<g>
	<path class="st4" d="M33.01,7.46c0.05,3.77-3.06,6.89-6.87,6.88c-3.79-0.01-6.87-3.09-6.86-6.88c0.01-3.78,3.01-6.87,6.89-6.87
		C30.02,0.6,33.04,3.67,33.01,7.46z M26.14,12.16c2.65-0.02,4.72-2.1,4.71-4.7c-0.01-2.66-2.14-4.66-4.65-4.69
		c-2.67-0.02-4.75,2.16-4.74,4.7C21.47,10.04,23.58,12.16,26.14,12.16z"/>
	<path class="st4" d="M1.57,7.45c0-2.19,0-4.39-0.01-6.58c0-0.24,0.07-0.3,0.3-0.3c0.51,0.02,1.02,0.01,1.53,0.01
		c0.32,0,0.32,0,0.32,0.34c0,1.75,0,3.51,0,5.26c0,0.23,0.05,0.3,0.29,0.3c1.63-0.01,3.25-0.01,4.88,0c0.23,0,0.28-0.06,0.28-0.29
		c-0.01-1.76,0-3.52-0.01-5.28c0-0.26,0.07-0.34,0.33-0.33c0.53,0.02,1.07,0.01,1.6,0c0.2,0,0.26,0.07,0.26,0.26
		c0,4.42,0,8.84,0,13.26c0,0.19-0.05,0.25-0.24,0.25c-0.56-0.01-1.12-0.01-1.68,0c-0.22,0-0.27-0.08-0.27-0.28
		c0.01-1.79,0-3.57,0.01-5.36c0-0.24-0.06-0.31-0.31-0.31c-1.61,0.01-3.22,0.01-4.83,0c-0.27,0-0.32,0.08-0.31,0.33
		c0.01,1.77,0,3.54,0.01,5.31c0,0.24-0.05,0.33-0.3,0.32c-0.52-0.02-1.05-0.02-1.58,0c-0.21,0.01-0.27-0.06-0.27-0.27
		C1.57,11.87,1.57,9.66,1.57,7.45z"/>
	<path class="st4" d="M57.93,10.72c0-1.11,0-2.22,0-3.33c0-0.17-0.05-0.3-0.15-0.44c-1.49-2.01-2.98-4.03-4.47-6.05
		c-0.03-0.04-0.06-0.08-0.09-0.13c-0.1-0.14-0.08-0.2,0.11-0.2c0.7,0.01,1.41,0,2.11,0c0.12,0,0.2,0.04,0.27,0.14
		c1.04,1.45,2.09,2.89,3.13,4.33c0.12,0.16,0.19,0.2,0.33,0.01c0.99-1.39,2-2.76,3-4.15c0.16-0.23,0.33-0.36,0.63-0.34
		c0.62,0.03,1.24,0.01,1.86,0.01c0.07,0,0.17-0.04,0.2,0.05c0.01,0.04-0.05,0.12-0.08,0.17c-0.73,0.99-1.46,1.98-2.19,2.98
		c-0.8,1.09-1.6,2.18-2.4,3.26c-0.08,0.11-0.07,0.22-0.07,0.34c0,2.22-0.01,4.44,0.01,6.66c0,0.27-0.08,0.33-0.33,0.32
		c-0.54-0.02-1.09-0.01-1.63,0c-0.2,0-0.24-0.06-0.24-0.25C57.93,12.97,57.93,11.85,57.93,10.72z"/>
	<path class="st4" d="M40.99,7.47c0-2.15,0-4.3,0-6.45c0-0.44,0-0.44,0.44-0.44c0.48,0,0.97,0.01,1.45,0
		c0.2-0.01,0.26,0.06,0.26,0.26c-0.01,1.61,0,3.22,0,4.83c0,2.14,0,4.28-0.01,6.43c0,0.23,0.06,0.28,0.28,0.28
		c1.73-0.01,3.46,0,5.19-0.01c0.23,0,0.29,0.06,0.28,0.28c-0.02,0.48-0.01,0.97,0,1.45c0,0.18-0.05,0.26-0.25,0.26
		c-2.48,0-4.95-0.01-7.43,0c-0.22,0-0.22-0.11-0.22-0.27C40.99,11.88,40.99,9.68,40.99,7.47z"/>
	<path class="st5" d="M29.05,23.81c-0.41,0.68-0.82,1.36-1.22,2.04c-0.2,0.34-0.46,0.34-0.66,0.01c-0.37-0.61-0.75-1.23-1.12-1.84
		c-0.04-0.07-0.06-0.16-0.16-0.18c-0.06,0.09-0.03,0.18-0.03,0.27c0,0.75-0.01,1.51,0,2.26c0,0.16-0.04,0.22-0.21,0.22
		c-0.58,0-0.58,0.01-0.58-0.56c0-1.2,0-2.4,0-3.61c0-0.2,0.05-0.26,0.26-0.28c0.34-0.03,0.51,0.1,0.67,0.39
		c0.48,0.85,0.99,1.67,1.51,2.53c0.33-0.56,0.65-1.11,0.98-1.65c0.22-0.37,0.44-0.74,0.66-1.12c0.07-0.12,0.64-0.21,0.74-0.12
		c0.05,0.05,0.03,0.11,0.03,0.17c0,1.35,0,2.69,0.01,4.04c0,0.15-0.03,0.21-0.19,0.21c-0.59,0.01-0.59,0.02-0.59-0.57
		c0-0.73,0-1.47,0-2.2C29.1,23.82,29.07,23.82,29.05,23.81z"/>
	<path class="st6" d="M11.39,26.67c-0.87-0.04-1.65-0.38-2.08-1.27c-0.41-0.85-0.33-1.68,0.24-2.44c0.76-1.01,2.43-1.18,3.48-0.37
		c0.96,0.74,1.13,2.23,0.36,3.21C12.9,26.41,12.23,26.65,11.39,26.67z M13.02,24.37c0-0.89-0.67-1.55-1.57-1.54
		c-0.88,0.01-1.54,0.67-1.54,1.54c0,0.89,0.67,1.56,1.56,1.56C12.36,25.93,13.03,25.26,13.02,24.37z"/>
	<path class="st5" d="M34.26,24.35c0-0.66,0.01-1.32,0-1.98c0-0.18,0.05-0.23,0.23-0.23c0.93,0.01,1.86,0.01,2.8,0
		c0.19,0,0.24,0.06,0.24,0.25c-0.01,0.47,0,0.47-0.46,0.47c-0.58,0-1.17,0.01-1.75,0c-0.17,0-0.22,0.05-0.21,0.21
		c0.01,0.23,0.02,0.46,0,0.69c-0.01,0.18,0.04,0.25,0.23,0.24c0.57-0.01,1.14,0,1.7-0.01c0.18,0,0.23,0.05,0.23,0.23
		c-0.01,0.46,0,0.46-0.45,0.46c-0.49,0-0.98,0.01-1.47,0c-0.2-0.01-0.25,0.06-0.24,0.25c0.01,0.24,0.02,0.49,0,0.74
		c-0.02,0.2,0.06,0.24,0.25,0.23c0.68-0.01,1.36,0,2.03-0.01c0.2,0,0.24,0.06,0.24,0.24c-0.01,0.47,0,0.47-0.46,0.47
		c-0.87,0-1.75-0.01-2.62,0c-0.2,0-0.28-0.04-0.27-0.26C34.27,25.67,34.26,25.01,34.26,24.35z"/>
	<path class="st7" d="M19.22,26.66c-0.51-0.01-1.02-0.11-1.49-0.37c-0.17-0.09-0.27-0.19-0.13-0.39c0.09-0.12,0.08-0.34,0.21-0.38
		c0.1-0.03,0.24,0.12,0.37,0.18c0.51,0.25,1.04,0.33,1.6,0.19c0.25-0.06,0.44-0.21,0.45-0.48c0.01-0.26-0.17-0.39-0.39-0.48
		c-0.36-0.15-0.75-0.19-1.12-0.32c-0.14-0.05-0.29-0.09-0.43-0.16c-0.42-0.19-0.68-0.5-0.69-0.98c-0.02-0.5,0.18-0.91,0.63-1.13
		c0.84-0.42,1.68-0.34,2.52,0.05c0.11,0.05,0.14,0.12,0.08,0.22c0,0.01-0.01,0.02-0.01,0.02c-0.17,0.47-0.16,0.46-0.62,0.3
		c-0.39-0.14-0.79-0.2-1.2-0.12c-0.2,0.04-0.37,0.11-0.49,0.29c-0.16,0.24-0.07,0.53,0.22,0.67c0.27,0.14,0.58,0.19,0.87,0.26
		c0.28,0.07,0.55,0.15,0.82,0.27c0.86,0.39,0.81,1.53,0.15,1.99C20.17,26.59,19.71,26.66,19.22,26.66z"/>
	<path class="st7" d="M62.96,26.66c-0.52-0.01-1.05-0.12-1.53-0.4c-0.15-0.09-0.21-0.18-0.1-0.34c0.09-0.13,0.09-0.36,0.22-0.4
		c0.1-0.03,0.26,0.13,0.39,0.19c0.51,0.24,1.03,0.32,1.58,0.18c0.25-0.06,0.44-0.21,0.45-0.48c0.02-0.26-0.17-0.39-0.38-0.48
		c-0.37-0.16-0.77-0.2-1.15-0.32c-0.14-0.04-0.27-0.09-0.4-0.15c-0.42-0.19-0.68-0.5-0.69-0.97c-0.02-0.5,0.18-0.91,0.63-1.13
		c0.84-0.42,1.68-0.35,2.52,0.05c0.1,0.05,0.12,0.11,0.08,0.22c-0.17,0.5-0.16,0.49-0.63,0.32c-0.39-0.14-0.78-0.2-1.2-0.12
		c-0.2,0.04-0.37,0.11-0.49,0.29c-0.16,0.24-0.07,0.53,0.22,0.68c0.27,0.14,0.58,0.19,0.87,0.26c0.28,0.07,0.55,0.15,0.82,0.27
		c0.86,0.39,0.81,1.53,0.15,1.99C63.91,26.59,63.46,26.66,62.96,26.66z"/>
	<path class="st6" d="M3.75,26.66c-1.04,0-1.9-0.57-2.23-1.47c-0.34-0.94-0.07-1.98,0.66-2.58c0.88-0.72,2.37-0.7,3.17,0.03
		c0.15,0.14,0.18,0.24-0.01,0.37c-0.12,0.09-0.21,0.25-0.35,0.29c-0.13,0.03-0.22-0.16-0.34-0.23c-0.59-0.34-1.18-0.35-1.76,0.01
		c-0.55,0.35-0.74,0.89-0.67,1.51c0.08,0.64,0.45,1.07,1.07,1.25c0.57,0.17,1.09,0.07,1.54-0.33c0.12-0.11,0.19-0.1,0.28,0.01
		c0.03,0.04,0.07,0.07,0.11,0.11c0.32,0.3,0.33,0.3-0.02,0.57C4.8,26.54,4.29,26.66,3.75,26.66z"/>
	<path class="st6" d="M55.94,26.66c-1.04,0-1.9-0.57-2.23-1.46c-0.34-0.94-0.07-1.98,0.66-2.58c0.89-0.73,2.4-0.71,3.19,0.05
		c0.14,0.13,0.16,0.22,0,0.33c-0.01,0.01-0.03,0.02-0.04,0.03c-0.11,0.1-0.2,0.25-0.32,0.27c-0.13,0.03-0.22-0.16-0.34-0.23
		c-0.59-0.34-1.18-0.35-1.76,0.01c-0.55,0.35-0.75,0.89-0.67,1.51c0.08,0.64,0.44,1.07,1.07,1.25c0.57,0.17,1.09,0.07,1.54-0.33
		c0.12-0.11,0.19-0.11,0.28,0.01c0.03,0.04,0.07,0.07,0.11,0.11c0.33,0.3,0.33,0.31-0.04,0.59C56.97,26.54,56.47,26.66,55.94,26.66z
		"/>
	<path class="st8" d="M43.02,22.15c0.56,0,1.12,0.01,1.68,0c0.17,0,0.21,0.05,0.21,0.21c0,0.51,0.01,0.51-0.51,0.51
		c-0.25,0-0.49,0.01-0.74,0c-0.2-0.01-0.24,0.06-0.24,0.24c0.01,1.07,0,2.13,0.01,3.2c0,0.23-0.06,0.3-0.29,0.29
		c-0.56-0.02-0.56,0-0.56-0.56c0-0.97,0-1.95,0-2.92c0-0.2-0.05-0.27-0.25-0.26c-0.34,0.02-0.68,0-1.02,0.01
		c-0.14,0-0.22-0.02-0.21-0.19c0.02-0.65-0.09-0.51,0.51-0.53C42.09,22.14,42.55,22.15,43.02,22.15z"/>
	<path class="st5" d="M48.66,24.36c0-0.65,0.01-1.3,0-1.95c0-0.18,0.03-0.25,0.23-0.25c0.59,0.01,0.59,0,0.59,0.59
		c0,1.19-0.01,2.38,0.01,3.58c0,0.23-0.07,0.28-0.28,0.27c-0.55-0.01-0.55,0-0.55-0.54C48.66,25.49,48.66,24.92,48.66,24.36z"/>
</g>
</svg>
