<svg id="Capa_1" enable-background="new 0 0 512 512" height="512" viewBox="0 0 512 512" width="512" xmlns="http://www.w3.org/2000/svg"><g><g><g><g><g><g><g><circle cx="256" cy="256" fill="#ff5f96" r="256"/></g></g></g></g></g></g><path d="m512 256c0-13.424-1.034-26.606-3.025-39.473l-78.36-78.36-349.349 235.548 135.26 135.26c12.867 1.991 26.05 3.025 39.474 3.025 141.385 0 256-114.615 256-256z" fill="#d72878"/><g><path d="m406.177 383.92h-198.352l-37.282-8.925-30.134 8.925h-34.585c-19.139 0-34.655-15.515-34.655-34.655v-59.557l16.781-31.823-16.781-35.593v-59.557c0-19.139 15.515-34.655 34.655-34.655h34.585l25.356 7.568 42.06-7.568h198.352c19.139 0 34.655 15.515 34.655 34.655l-.001 59.557-5.831 29.772 5.831 37.644.001 59.557c-.001 19.14-15.516 34.655-34.655 34.655z" fill="#fff"/></g><g><path d="m435.673 256.408h-348.42l.696 1.477-16.781 31.823v59.558c0 19.139 15.516 34.655 34.655 34.655h34.585l30.134-8.924 37.282 8.924h198.352c19.139 0 34.655-15.516 34.655-34.655l-.001-59.557z" fill="#e9edf5"/></g><g><g><path d="m324.49 162.548c0-11.535 9.351-20.886 20.886-20.886 9.366 0 17.292 6.165 19.941 14.658 2.65-8.493 10.576-14.658 19.941-14.658 11.535 0 20.886 9.351 20.886 20.886 0 23.033-40.827 51.069-40.827 51.069s-40.827-29.402-40.827-51.069z" fill="#ffa1c8"/></g></g><g><path d="m440.831 222.292h-233.006v-94.212h-67.416v94.212h-69.24v67.416h69.24v94.212h67.416v-94.212h233.006z" fill="#ffce00"/></g><g><path d="m71.169 256.408v33.3h69.24v94.212h67.416v-94.212h233.006v-33.3z" fill="#ffb600"/></g><g><path d="m232.433 207.131c-19.432 0-45.334 11.343-58.317 27.769-12.982-16.425-38.884-27.768-58.316-27.768-26.989 0-34.534 21.879-34.534 48.869s7.544 48.869 34.534 48.869c19.432 0 45.334-11.343 58.317-27.769 12.982 16.425 38.884 27.768 58.317 27.768 26.989 0 34.534-21.879 34.534-48.869-.001-26.99-7.545-48.869-34.535-48.869z" fill="#fa0"/></g><g><path d="m81.27 256.408c.076 26.801 7.677 48.461 34.53 48.461 19.432 0 45.334-11.343 58.317-27.769 12.982 16.425 38.884 27.768 58.317 27.768 26.853 0 34.454-21.661 34.53-48.461h-185.694z" fill="#ff9500"/></g><g><ellipse cx="174.117" cy="256" fill="#ff9500" rx="31.276" ry="42.231"/></g><g><path d="m142.848 256.408c.163 23.135 14.096 41.823 31.268 41.823s31.106-18.688 31.268-41.823z" fill="#fe8205"/></g></g></svg>